{
.formatVersion = 3;
axes = (
{
name = Weight;
tag = wght;
}
);
classes = (
{
code = "zero.dnom one.dnom two.dnom three.dnom four.dnom five.dnom six.dnom seven.dnom eight.dnom nine.dnom equal.dnom hyphen.dnom minus.dnom parenleft.dnom parenright.dnom plus.dnom";
name = dnom_frac;
},
{
code = "zero one two three four five six seven eight nine equal hyphen minus parenleft parenright plus";
name = dnom_frac_numr_ordn_sinf_subs_sups;
},
{
code = "slash zero one two three four five six seven eight nine";
name = frac;
},
{
code = "A O a o zero.numr one.numr two.numr three.numr four.numr five.numr six.numr seven.numr eight.numr nine.numr equal.numr hyphen.numr minus.numr parenleft.numr parenright.numr plus.numr";
name = frac_ordn;
},
{
code = "ordfeminine ordmasculine ordfeminine ordmasculine zero.dnom one.dnom two.dnom three.dnom four.dnom five.dnom six.dnom seven.dnom eight.dnom nine.dnom equal.dnom hyphen.dnom minus.dnom parenleft.dnom parenright.dnom plus.dnom";
name = frac_ordn2;
},
{
code = "zero.numr one.numr two.numr three.numr four.numr five.numr six.numr seven.numr eight.numr nine.numr equal.numr hyphen.numr minus.numr parenleft.numr parenright.numr plus.numr";
name = frac_numr;
},
{
code = "zero.inferior one.inferior two.inferior three.inferior four.inferior five.inferior six.inferior seven.inferior eight.inferior nine.inferior plus.inferior minus.inferior equal.inferior parenleft.inferior parenright.inferior hyphen.inferior";
name = sinf_subs;
},
{
code = "zero.superior onesuperior twosuperior threesuperior four.superior five.superior six.superior seven.superior eight.superior nine.superior plus.superior minus.superior equal.superior parenleft.superior parenright.superior hyphen.superior";
name = sups;
},
{

glyphs = (
{
glyphname = .notdef;
layers = (
{
layerId = "C97486CF-1A64-40DF-96D7-C8549AF742BF";
shapes = (
{
closed = 1;
nodes = (
(402,161,l),
(402,162,o),
(402,162,o),
(402,162,c),
(388,172,o),
(387,179,o),
(394,208,cs),
(435,379,l),
(432,379,l),
(423,368,o),
(382,355,o),
(351,358,c),
(344,328,l),
(349,379,o),
(301,392,o),
(257,376,cs),
(216,361,o),
(185,323,o),
(173,264,cs),
(155,174,o),
(207,157,o),
(241,157,cs),
(283,157,o),
(301,184,o),
(316,212,c),
(313,195,o),
(312,166,o),
(337,161,c)
);
},
{
closed = 1;
nodes = (
(249,168,o),
(242,199,o),
(260,274,cs),
(276,337,o),
(294,367,o),
(316,367,cs),
(343,367,o),
(341,319,o),
(334,288,cs),
(326,256,ls),
(317,219,o),
(288,168,o),
(266,168,cs)
);
},
{
closed = 1;
nodes = (
(531,162,l),
(522,168,o),
(518,174,o),
(518,184,cs),
(518,191,o),
(520,198,o),
(522,209,cs),
(556,373,l),
(556,373,o),
(537,380,o),
(527,396,cs),
(505,432,o),
(556,471,o),
(602,480,cs),
(641,487,o),
(703,477,o),
(693,438,c),
(693,438,o),
(696,438,o),
(697,438,c),
(707,482,o),
(648,493,o),
(600,485,cs),
(540,475,o),
(488,433,o),
(478,380,c),
(472,380,o),
(434,380,o),
(434,380,c),
(429,375,l),
(476,375,l),
(443,209,ls),
(437,180,o),
(433,173,o),
(415,163,c)
);
},
{
closed = 1;
nodes = (
(584,374,l),
(605,374,l),
(572,219,ls),
(566,191,o),
(566,157,o),
(622,157,cs),
(667,157,o),
(690,179,o),
(706,219,c),
(706,219,o),
(704,226,o),
(704,231,c),
(700,220,o),
(681,177,o),
(655,177,cs),
(644,177,o),
(644,185,o),
(649,209,cs),
(683,374,l),
(731,374,l),
(733,384,l),
(686,384,l),
(697,438,l),
(693,438,l),
(684,410,o),
(625,378,o),
(585,377,c)
);
},
{
closed = 1;
nodes = (
(50,374,l),
(71,374,l),
(38,219,ls),
(32,191,o),
(32,157,o),
(88,157,cs),
(133,157,o),
(156,179,o),
(172,219,c),
(172,219,o),
(171,228,o),
(171,233,c),
(167,222,o),
(147,177,o),
(121,177,cs),
(110,177,o),
(110,185,o),
(115,209,cs),
(149,374,l),
(197,374,l),
(199,384,l),
(152,384,l),
(163,438,l),
(159,438,l),
(150,410,o),
(91,378,o),
(51,377,c)
);
},
{
closed = 1;
nodes = (
(328,-2,o),
(334,2,o),
(334,11,cs),
(334,20,o),
(328,23,o),
(322,23,cs),
(316,23,o),
(310,20,o),
(310,11,cs),
(310,2,o),
(316,-2,o),
(322,-2,cs)
);
},
{
closed = 1;
nodes = (
(362,0,l),
(383,0,l),
(401,70,l),
(420,0,l),
(440,0,l),
(468,92,l),
(450,92,l),
(433,25,l),
(432,23,o),
(432,21,o),
(432,20,c),
(429,20,l),
(429,21,o),
(428,23,o),
(428,25,c),
(413,92,l),
(390,92,l),
(375,25,l),
(375,23,o),
(374,21,o),
(374,20,c),
(371,20,l),
(371,21,o),
(370,23,o),
(370,25,c),
(353,92,l),
(335,92,l)
);
},
{
closed = 1;
nodes = (
(544,-1,o),
(562,10,o),
(562,46,cs),
(562,82,o),
(544,93,o),
(517,93,cs),
(490,93,o),
(474,82,o),
(474,46,cs),
(474,10,o),
(490,-1,o),
(517,-1,cs)
);
},
{
closed = 1;
nodes = (
(500,13,o),
(491,23,o),
(491,47,cs),
(491,71,o),
(500,79,o),
(516,79,cs),
(534,79,o),
(544,70,o),
(544,46,cs),
(544,22,o),
(534,13,o),
(517,13,cs)
);
},
{
closed = 1;
nodes = (
(577,0,l),
(595,0,l),
(595,50,ls),
(595,68,o),
(606,78,o),
(622,78,cs),
(627,78,o),
(632,77,o),
(633,76,c),
(633,92,l),
(631,93,o),
(629,93,o),
(629,93,c),
(606,93,o),
(595,80,o),
(595,69,c),
(591,92,l),
(577,90,l)
);
},
{
closed = 1;
nodes = (
(645,0,l),
(662,0,l),
(662,34,l),
(674,46,l),
(707,0,l),
(728,0,l),
(687,58,l),
(724,92,l),
(699,92,l),
(662,53,l),
(662,128,l),
(645,126,l)
);
}
);
width = 755;
},
{
layerId = "C6BB3B5A-2B00-4D31-935D-56D5DC5DA0A7";
shapes = (
{
closed = 1;
nodes = (
(402,161,l),
(402,162,o),
(402,162,o),
(402,162,c),
(388,172,o),
(387,179,o),
(394,208,cs),
(435,379,l),
(432,379,l),
(423,368,o),
(382,355,o),
(351,358,c),
(344,328,l),
(349,379,o),
(301,392,o),
(257,376,cs),
(216,361,o),
(185,323,o),
(173,264,cs),
(155,174,o),
(207,157,o),
(241,157,cs),
(283,157,o),
(301,184,o),
(316,212,c),
(313,195,o),
(312,166,o),
(337,161,c)
);
},
{
closed = 1;
nodes = (
(249,168,o),
(242,199,o),
(260,274,cs),
(276,337,o),
(294,367,o),
(316,367,cs),
(343,367,o),
(341,319,o),
(334,288,cs),
(326,256,ls),
(317,219,o),
(288,168,o),
(266,168,cs)
);
},
{
closed = 1;
nodes = (
(531,162,l),
(522,168,o),
(518,174,o),
(518,184,cs),
(518,191,o),
(520,198,o),
(522,209,cs),
(556,373,l),
(556,373,o),
(537,380,o),
(527,396,cs),
(505,432,o),
(556,471,o),
(602,480,cs),
(641,487,o),
(703,477,o),
(693,438,c),
(693,438,o),
(696,438,o),
(697,438,c),
(707,482,o),
(648,493,o),
(600,485,cs),
(540,475,o),
(488,433,o),
(478,380,c),
(472,380,o),
(434,380,o),
(434,380,c),
(429,375,l),
(476,375,l),
(443,209,ls),
(437,180,o),
(433,173,o),
(415,163,c)
);
},
{
closed = 1;
nodes = (
(584,374,l),
(605,374,l),
(572,219,ls),
(566,191,o),
(566,157,o),
(622,157,cs),
(667,157,o),
(690,179,o),
(706,219,c),
(706,219,o),
(704,226,o),
(704,231,c),
(700,220,o),
(681,177,o),
(655,177,cs),
(644,177,o),
(644,185,o),
(649,209,cs),
(683,374,l),
(731,374,l),
(733,384,l),
(686,384,l),
(697,438,l),
(693,438,l),
(684,410,o),
(625,378,o),
(585,377,c)
);
},
{
closed = 1;
nodes = (
(50,374,l),
(71,374,l),
(38,219,ls),
(32,191,o),
(32,157,o),
(88,157,cs),
(133,157,o),
(156,179,o),
(172,219,c),
(172,219,o),
(171,228,o),
(171,233,c),
(167,222,o),
(147,177,o),
(121,177,cs),
(110,177,o),
(110,185,o),
(115,209,cs),
(149,374,l),
(197,374,l),
(199,384,l),
(152,384,l),
(163,438,l),
(159,438,l),
(150,410,o),
(91,378,o),
(51,377,c)
);
},
{
closed = 1;
nodes = (
(328,-2,o),
(334,2,o),
(334,11,cs),
(334,20,o),
(328,23,o),
(322,23,cs),
(316,23,o),
(310,20,o),
(310,11,cs),
(310,2,o),
(316,-2,o),
(322,-2,cs)
);
},
{
closed = 1;
nodes = (
(362,0,l),
(383,0,l),
(401,70,l),
(420,0,l),
(440,0,l),
(468,92,l),
(450,92,l),
(433,25,l),
(432,23,o),
(432,21,o),
(432,20,c),
(429,20,l),
(429,21,o),
(428,23,o),
(428,25,c),
(413,92,l),
(390,92,l),
(375,25,l),
(375,23,o),
(374,21,o),
(374,20,c),
(371,20,l),
(371,21,o),
(370,23,o),
(370,25,c),
(353,92,l),
(335,92,l)
);
},
{
closed = 1;
nodes = (
(544,-1,o),
(562,10,o),
(562,46,cs),
(562,82,o),
(544,93,o),
(517,93,cs),
(490,93,o),
(474,82,o),
(474,46,cs),
(474,10,o),
(490,-1,o),
(517,-1,cs)
);
},
{
closed = 1;
nodes = (
(500,13,o),
(491,23,o),
(491,47,cs),
(491,71,o),
(500,79,o),
(516,79,cs),
(534,79,o),
(544,70,o),
(544,46,cs),
(544,22,o),
(534,13,o),
(517,13,cs)
);
},
{
closed = 1;
nodes = (
(577,0,l),
(595,0,l),
(595,50,ls),
(595,68,o),
(606,78,o),
(622,78,cs),
(627,78,o),
(632,77,o),
(633,76,c),
(633,92,l),
(631,93,o),
(629,93,o),
(629,93,c),
(606,93,o),
(595,80,o),
(595,69,c),
(591,92,l),
(577,90,l)
);
},
{
closed = 1;
nodes = (
(645,0,l),
(662,0,l),
(662,34,l),
(674,46,l),
(707,0,l),
(728,0,l),
(687,58,l),
(724,92,l),
(699,92,l),
(662,53,l),
(662,128,l),
(645,126,l)
);
}
);
width = 755;
},
{
layerId = "D32243E2-577E-4253-BC9B-8FEA88FA4FFA";
shapes = (
{
closed = 1;
nodes = (
(402,161,l),
(402,162,o),
(402,162,o),
(402,162,c),
(388,172,o),
(387,179,o),
(394,208,cs),
(435,379,l),
(432,379,l),
(423,368,o),
(382,355,o),
(351,358,c),
(344,328,l),
(349,379,o),
(301,392,o),
(257,376,cs),
(216,361,o),
(185,323,o),
(173,264,cs),
(155,174,o),
(207,157,o),
(241,157,cs),
(283,157,o),
(301,184,o),
(316,212,c),
(313,195,o),
(312,166,o),
(337,161,c)
);
},
{
closed = 1;
nodes = (
(249,168,o),
(242,199,o),
(260,274,cs),
(276,337,o),
(294,367,o),
(316,367,cs),
(343,367,o),
(341,319,o),
(334,288,cs),
(326,256,ls),
(317,219,o),
(288,168,o),
(266,168,cs)
);
},
{
closed = 1;
nodes = (
(531,162,l),
(522,168,o),
(518,174,o),
(518,184,cs),
(518,191,o),
(520,198,o),
(522,209,cs),
(556,373,l),
(556,373,o),
(537,380,o),
(527,396,cs),
(505,432,o),
(556,471,o),
(602,480,cs),
(641,487,o),
(703,477,o),
(693,438,c),
(693,438,o),
(696,438,o),
(697,438,c),
(707,482,o),
(648,493,o),
(600,485,cs),
(540,475,o),
(488,433,o),
(478,380,c),
(472,380,o),
(434,380,o),
(434,380,c),
(429,375,l),
(476,375,l),
(443,209,ls),
(437,180,o),
(433,173,o),
(415,163,c)
);
},
{
closed = 1;
nodes = (
(584,374,l),
(605,374,l),
(572,219,ls),
(566,191,o),
(566,157,o),
(622,157,cs),
(667,157,o),
(690,179,o),
(706,219,c),
(706,219,o),
(704,226,o),
(704,231,c),
(700,220,o),
(681,177,o),
(655,177,cs),
(644,177,o),
(644,185,o),
(649,209,cs),
(683,374,l),
(731,374,l),
(733,384,l),
(686,384,l),
(697,438,l),
(693,438,l),
(684,410,o),
(625,378,o),
(585,377,c)
);
},
{
closed = 1;
nodes = (
(50,374,l),
(71,374,l),
(38,219,ls),
(32,191,o),
(32,157,o),
(88,157,cs),
(133,157,o),
(156,179,o),
(172,219,c),
(172,219,o),
(171,228,o),
(171,233,c),
(167,222,o),
(147,177,o),
(121,177,cs),
(110,177,o),
(110,185,o),
(115,209,cs),
(149,374,l),
(197,374,l),
(199,384,l),
(152,384,l),
(163,438,l),
(159,438,l),
(150,410,o),
(91,378,o),
(51,377,c)
);
},
{
closed = 1;
nodes = (
(328,-2,o),
(334,2,o),
(334,11,cs),
(334,20,o),
(328,23,o),
(322,23,cs),
(316,23,o),
(310,20,o),
(310,11,cs),
(310,2,o),
(316,-2,o),
(322,-2,cs)
);
},
{
closed = 1;
nodes = (
(362,0,l),
(383,0,l),
(401,70,l),
(420,0,l),
(440,0,l),
(468,92,l),
(450,92,l),
(433,25,l),
(432,23,o),
(432,21,o),
(432,20,c),
(429,20,l),
(429,21,o),
(428,23,o),
(428,25,c),
(413,92,l),
(390,92,l),
(375,25,l),
(375,23,o),
(374,21,o),
(374,20,c),
(371,20,l),
(371,21,o),
(370,23,o),
(370,25,c),
(353,92,l),
(335,92,l)
);
},
{
closed = 1;
nodes = (
(544,-1,o),
(562,10,o),
(562,46,cs),
(562,82,o),
(544,93,o),
(517,93,cs),
(490,93,o),
(474,82,o),
(474,46,cs),
(474,10,o),
(490,-1,o),
(517,-1,cs)
);
},
{
closed = 1;
nodes = (
(500,13,o),
(491,23,o),
(491,47,cs),
(491,71,o),
(500,79,o),
(516,79,cs),
(534,79,o),
(544,70,o),
(544,46,cs),
(544,22,o),
(534,13,o),
(517,13,cs)
);
},
{
closed = 1;
nodes = (
(577,0,l),
(595,0,l),
(595,50,ls),
(595,68,o),
(606,78,o),
(622,78,cs),
(627,78,o),
(632,77,o),
(633,76,c),
(633,92,l),
(631,93,o),
(629,93,o),
(629,93,c),
(606,93,o),
(595,80,o),
(595,69,c),
(591,92,l),
(577,90,l)
);
},
{
closed = 1;
nodes = (
(645,0,l),
(662,0,l),
(662,34,l),
(674,46,l),
(707,0,l),
(728,0,l),
(687,58,l),
(724,92,l),
(699,92,l),
(662,53,l),
(662,128,l),
(645,126,l)
);
}
);
width = 755;
},
{
layerId = "6A0BD57D-C03B-4459-8D3D-7421EEB177BA";
shapes = (
{
closed = 1;
nodes = (
(402,161,l),
(402,162,o),
(402,162,o),
(402,162,c),
(388,172,o),
(387,179,o),
(394,208,cs),
(435,379,l),
(432,379,l),
(423,368,o),
(382,355,o),
(351,358,c),
(344,328,l),
(349,379,o),
(301,392,o),
(257,376,cs),
(216,361,o),
(185,323,o),
(173,264,cs),
(155,174,o),
(207,157,o),
(241,157,cs),
(283,157,o),
(301,184,o),
(316,212,c),
(313,195,o),
(312,166,o),
(337,161,c)
);
},
{
closed = 1;
nodes = (
(249,168,o),
(242,199,o),
(260,274,cs),
(276,337,o),
(294,367,o),
(316,367,cs),
(343,367,o),
(341,319,o),
(334,288,cs),
(326,256,ls),
(317,219,o),
(288,168,o),
(266,168,cs)
);
},
{
closed = 1;
nodes = (
(531,162,l),
(522,168,o),
(518,174,o),
(518,184,cs),
(518,191,o),
(520,198,o),
(522,209,cs),
(556,373,l),
(556,373,o),
(537,380,o),
(527,396,cs),
(505,432,o),
(556,471,o),
(602,480,cs),
(641,487,o),
(703,477,o),
(693,438,c),
(693,438,o),
(696,438,o),
(697,438,c),
(707,482,o),
(648,493,o),
(600,485,cs),
(540,475,o),
(488,433,o),
(478,380,c),
(472,380,o),
(434,380,o),
(434,380,c),
(429,375,l),
(476,375,l),
(443,209,ls),
(437,180,o),
(433,173,o),
(415,163,c)
);
},
{
closed = 1;
nodes = (
(584,374,l),
(605,374,l),
(572,219,ls),
(566,191,o),
(566,157,o),
(622,157,cs),
(667,157,o),
(690,179,o),
(706,219,c),
(706,219,o),
(704,226,o),
(704,231,c),
(700,220,o),
(681,177,o),
(655,177,cs),
(644,177,o),
(644,185,o),
(649,209,cs),
(683,374,l),
(731,374,l),
(733,384,l),
(686,384,l),
(697,438,l),
(693,438,l),
(684,410,o),
(625,378,o),
(585,377,c)
);
},
{
closed = 1;
nodes = (
(50,374,l),
(71,374,l),
(38,219,ls),
(32,191,o),
(32,157,o),
(88,157,cs),
(133,157,o),
(156,179,o),
(172,219,c),
(172,219,o),
(171,228,o),
(171,233,c),
(167,222,o),
(147,177,o),
(121,177,cs),
(110,177,o),
(110,185,o),
(115,209,cs),
(149,374,l),
(197,374,l),
(199,384,l),
(152,384,l),
(163,438,l),
(159,438,l),
(150,410,o),
(91,378,o),
(51,377,c)
);
},
{
closed = 1;
nodes = (
(328,-2,o),
(334,2,o),
(334,11,cs),
(334,20,o),
(328,23,o),
(322,23,cs),
(316,23,o),
(310,20,o),
(310,11,cs),
(310,2,o),
(316,-2,o),
(322,-2,cs)
);
},
{
closed = 1;
nodes = (
(362,0,l),
(383,0,l),
(401,70,l),
(420,0,l),
(440,0,l),
(468,92,l),
(450,92,l),
(433,25,l),
(432,23,o),
(432,21,o),
(432,20,c),
(429,20,l),
(429,21,o),
(428,23,o),
(428,25,c),
(413,92,l),
(390,92,l),
(375,25,l),
(375,23,o),
(374,21,o),
(374,20,c),
(371,20,l),
(371,21,o),
(370,23,o),
(370,25,c),
(353,92,l),
(335,92,l)
);
},
{
closed = 1;
nodes = (
(544,-1,o),
(562,10,o),
(562,46,cs),
(562,82,o),
(544,93,o),
(517,93,cs),
(490,93,o),
(474,82,o),
(474,46,cs),
(474,10,o),
(490,-1,o),
(517,-1,cs)
);
},
{
closed = 1;
nodes = (
(500,13,o),
(491,23,o),
(491,47,cs),
(491,71,o),
(500,79,o),
(516,79,cs),
(534,79,o),
(544,70,o),
(544,46,cs),
(544,22,o),
(534,13,o),
(517,13,cs)
);
},
{
closed = 1;
nodes = (
(577,0,l),
(595,0,l),
(595,50,ls),
(595,68,o),
(606,78,o),
(622,78,cs),
(627,78,o),
(632,77,o),
(633,76,c),
(633,92,l),
(631,93,o),
(629,93,o),
(629,93,c),
(606,93,o),
(595,80,o),
(595,69,c),
(591,92,l),
(577,90,l)
);
},
{
closed = 1;
nodes = (
(645,0,l),
(662,0,l),
(662,34,l),
(674,46,l),
(707,0,l),
(728,0,l),
(687,58,l),
(724,92,l),
(699,92,l),
(662,53,l),
(662,128,l),
(645,126,l)
);
}
);
width = 755;
},
{
layerId = "CA42EF1E-7CAB-449D-BA53-393A55112632";
shapes = (
{
closed = 1;
nodes = (
(402,161,l),
(402,162,o),
(402,162,o),
(402,162,c),
(388,172,o),
(387,179,o),
(394,208,cs),
(435,379,l),
(432,379,l),
(423,368,o),
(382,355,o),
(351,358,c),
(344,328,l),
(349,379,o),
(301,392,o),
(257,376,cs),
(216,361,o),
(185,323,o),
(173,264,cs),
(155,174,o),
(207,157,o),
(241,157,cs),
(283,157,o),
(301,184,o),
(316,212,c),
(313,195,o),
(312,166,o),
(337,161,c)
);
},
{
closed = 1;
nodes = (
(249,168,o),
(242,199,o),
(260,274,cs),
(276,337,o),
(294,367,o),
(316,367,cs),
(343,367,o),
(341,319,o),
(334,288,cs),
(326,256,ls),
(317,219,o),
(288,168,o),
(266,168,cs)
);
},
{
closed = 1;
nodes = (
(531,162,l),
(522,168,o),
(518,174,o),
(518,184,cs),
(518,191,o),
(520,198,o),
(522,209,cs),
(556,373,l),
(556,373,o),
(537,380,o),
(527,396,cs),
(505,432,o),
(556,471,o),
(602,480,cs),
(641,487,o),
(703,477,o),
(693,438,c),
(693,438,o),
(696,438,o),
(697,438,c),
(707,482,o),
(648,493,o),
(600,485,cs),
(540,475,o),
(488,433,o),
(478,380,c),
(472,380,o),
(434,380,o),
(434,380,c),
(429,375,l),
(476,375,l),
(443,209,ls),
(437,180,o),
(433,173,o),
(415,163,c)
);
},
{
closed = 1;
nodes = (
(584,374,l),
(605,374,l),
(572,219,ls),
(566,191,o),
(566,157,o),
(622,157,cs),
(667,157,o),
(690,179,o),
(706,219,c),
(706,219,o),
(704,226,o),
(704,231,c),
(700,220,o),
(681,177,o),
(655,177,cs),
(644,177,o),
(644,185,o),
(649,209,cs),
(683,374,l),
(731,374,l),
(733,384,l),
(686,384,l),
(697,438,l),
(693,438,l),
(684,410,o),
(625,378,o),
(585,377,c)
);
},
{
closed = 1;
nodes = (
(50,374,l),
(71,374,l),
(38,219,ls),
(32,191,o),
(32,157,o),
(88,157,cs),
(133,157,o),
(156,179,o),
(172,219,c),
(172,219,o),
(171,228,o),
(171,233,c),
(167,222,o),
(147,177,o),
(121,177,cs),
(110,177,o),
(110,185,o),
(115,209,cs),
(149,374,l),
(197,374,l),
(199,384,l),
(152,384,l),
(163,438,l),
(159,438,l),
(150,410,o),
(91,378,o),
(51,377,c)
);
},
{
closed = 1;
nodes = (
(328,-2,o),
(334,2,o),
(334,11,cs),
(334,20,o),
(328,23,o),
(322,23,cs),
(316,23,o),
(310,20,o),
(310,11,cs),
(310,2,o),
(316,-2,o),
(322,-2,cs)
);
},
{
closed = 1;
nodes = (
(362,0,l),
(383,0,l),
(401,70,l),
(420,0,l),
(440,0,l),
(468,92,l),
(450,92,l),
(433,25,l),
(432,23,o),
(432,21,o),
(432,20,c),
(429,20,l),
(429,21,o),
(428,23,o),
(428,25,c),
(413,92,l),
(390,92,l),
(375,25,l),
(375,23,o),
(374,21,o),
(374,20,c),
(371,20,l),
(371,21,o),
(370,23,o),
(370,25,c),
(353,92,l),
(335,92,l)
);
},
{
closed = 1;
nodes = (
(544,-1,o),
(562,10,o),
(562,46,cs),
(562,82,o),
(544,93,o),
(517,93,cs),
(490,93,o),
(474,82,o),
(474,46,cs),
(474,10,o),
(490,-1,o),
(517,-1,cs)
);
},
{
closed = 1;
nodes = (
(500,13,o),
(491,23,o),
(491,47,cs),
(491,71,o),
(500,79,o),
(516,79,cs),
(534,79,o),
(544,70,o),
(544,46,cs),
(544,22,o),
(534,13,o),
(517,13,cs)
);
},
{
closed = 1;
nodes = (
(577,0,l),
(595,0,l),
(595,50,ls),
(595,68,o),
(606,78,o),
(622,78,cs),
(627,78,o),
(632,77,o),
(633,76,c),
(633,92,l),
(631,93,o),
(629,93,o),
(629,93,c),
(606,93,o),
(595,80,o),
(595,69,c),
(591,92,l),
(577,90,l)
);
},
{
closed = 1;
nodes = (
(645,0,l),
(662,0,l),
(662,34,l),
(674,46,l),
(707,0,l),
(728,0,l),
(687,58,l),
(724,92,l),
(699,92,l),
(662,53,l),
(662,128,l),
(645,126,l)
);
}
);
width = 755;
},
{
layerId = "F226A6F9-6034-4C5D-800B-D2697DD6BCB4";
shapes = (
{
closed = 1;
nodes = (
(402,161,l),
(402,162,o),
(402,162,o),
(402,162,c),
(388,172,o),
(387,179,o),
(394,208,cs),
(435,379,l),
(432,379,l),
(423,368,o),
(382,355,o),
(351,358,c),
(344,328,l),
(349,379,o),
(301,392,o),
(257,376,cs),
(216,361,o),
(185,323,o),
(173,264,cs),
(155,174,o),
(207,157,o),
(241,157,cs),
(283,157,o),
(301,184,o),
(316,212,c),
(313,195,o),
(312,166,o),
(337,161,c)
);
},
{
closed = 1;
nodes = (
(249,168,o),
(242,199,o),
(260,274,cs),
(276,337,o),
(294,367,o),
(316,367,cs),
(343,367,o),
(341,319,o),
(334,288,cs),
(326,256,ls),
(317,219,o),
(288,168,o),
(266,168,cs)
);
},
{
closed = 1;
nodes = (
(531,162,l),
(522,168,o),
(518,174,o),
(518,184,cs),
(518,191,o),
(520,198,o),
(522,209,cs),
(556,373,l),
(556,373,o),
(537,380,o),
(527,396,cs),
(505,432,o),
(556,471,o),
(602,480,cs),
(641,487,o),
(703,477,o),
(693,438,c),
(693,438,o),
(696,438,o),
(697,438,c),
(707,482,o),
(648,493,o),
(600,485,cs),
(540,475,o),
(488,433,o),
(478,380,c),
(472,380,o),
(434,380,o),
(434,380,c),
(429,375,l),
(476,375,l),
(443,209,ls),
(437,180,o),
(433,173,o),
(415,163,c)
);
},
{
closed = 1;
nodes = (
(584,374,l),
(605,374,l),
(572,219,ls),
(566,191,o),
(566,157,o),
(622,157,cs),
(667,157,o),
(690,179,o),
(706,219,c),
(706,219,o),
(704,226,o),
(704,231,c),
(700,220,o),
(681,177,o),
(655,177,cs),
(644,177,o),
(644,185,o),
(649,209,cs),
(683,374,l),
(731,374,l),
(733,384,l),
(686,384,l),
(697,438,l),
(693,438,l),
(684,410,o),
(625,378,o),
(585,377,c)
);
},
{
closed = 1;
nodes = (
(50,374,l),
(71,374,l),
(38,219,ls),
(32,191,o),
(32,157,o),
(88,157,cs),
(133,157,o),
(156,179,o),
(172,219,c),
(172,219,o),
(171,228,o),
(171,233,c),
(167,222,o),
(147,177,o),
(121,177,cs),
(110,177,o),
(110,185,o),
(115,209,cs),
(149,374,l),
(197,374,l),
(199,384,l),
(152,384,l),
(163,438,l),
(159,438,l),
(150,410,o),
(91,378,o),
(51,377,c)
);
},
{
closed = 1;
nodes = (
(328,-2,o),
(334,2,o),
(334,11,cs),
(334,20,o),
(328,23,o),
(322,23,cs),
(316,23,o),
(310,20,o),
(310,11,cs),
(310,2,o),
(316,-2,o),
(322,-2,cs)
);
},
{
closed = 1;
nodes = (
(362,0,l),
(383,0,l),
(401,70,l),
(420,0,l),
(440,0,l),
(468,92,l),
(450,92,l),
(433,25,l),
(432,23,o),
(432,21,o),
(432,20,c),
(429,20,l),
(429,21,o),
(428,23,o),
(428,25,c),
(413,92,l),
(390,92,l),
(375,25,l),
(375,23,o),
(374,21,o),
(374,20,c),
(371,20,l),
(371,21,o),
(370,23,o),
(370,25,c),
(353,92,l),
(335,92,l)
);
},
{
closed = 1;
nodes = (
(544,-1,o),
(562,10,o),
(562,46,cs),
(562,82,o),
(544,93,o),
(517,93,cs),
(490,93,o),
(474,82,o),
(474,46,cs),
(474,10,o),
(490,-1,o),
(517,-1,cs)
);
},
{
closed = 1;
nodes = (
(500,13,o),
(491,23,o),
(491,47,cs),
(491,71,o),
(500,79,o),
(516,79,cs),
(534,79,o),
(544,70,o),
(544,46,cs),
(544,22,o),
(534,13,o),
(517,13,cs)
);
},
{
closed = 1;
nodes = (
(577,0,l),
(595,0,l),
(595,50,ls),
(595,68,o),
(606,78,o),
(622,78,cs),
(627,78,o),
(632,77,o),
(633,76,c),
(633,92,l),
(631,93,o),
(629,93,o),
(629,93,cs),
(606,93,o),
(595,80,o),
(595,69,c),
(591,92,l),
(577,90,l)
);
},
{
closed = 1;
nodes = (
(645,0,l),
(662,0,l),
(662,34,l),
(674,46,l),
(707,0,l),
(728,0,l),
(687,58,l),
(724,92,l),
(699,92,l),
(662,53,l),
(662,128,l),
(645,126,l)
);
}
);
width = 755;
}
);
},
{
glyphname = m;
layers = (
{
anchors = (
{
name = top;
position = "{453, 520}";
},
{
name = bottom;
position = "{453, -20}";
}
);
layerId = "C97486CF-1A64-40DF-96D7-C8549AF742BF";
shapes = (
{
closed = 1;
nodes = (
(45,0,l),
(235,0,l),
(235,500,l),
(45,500,l)
);
},
{
closed = 1;
nodes = (
(357,0,l),
(547,0,l),
(547,314,ls),
(547,458,o),
(486,520,o),
(396,520,cs),
(309,520,o),
(243,461,o),
(217,360,c),
(219,282,l),
(235,217,l),
(235,313.18,o),
(253,380,o),
(302,380,cs),
(338,380,o),
(357,344.815,o),
(357,267.407,cs)
);
},
{
closed = 1;
nodes = (
(669,0,l),
(859,0,l),
(859,314,ls),
(859,458,o),
(798,520,o),
(708,520,cs),
(621,520,o),
(555,461,o),
(529,360,c),
(531,282,l),
(547,217,l),
(547,313.18,o),
(565,380,o),
(614,380,cs),
(650,380,o),
(669,344.815,o),
(669,267.407,cs)
);
}
);
width = 899;
},
{
anchors = (
{
name = top;
position = "{453, 520}";
},
{
name = bottom;
position = "{453, -20}";
}
);
layerId = "C6BB3B5A-2B00-4D31-935D-56D5DC5DA0A7";
shapes = (
{
closed = 1;
nodes = (
(45,0,l),
(210,0,l),
(210,500,l),
(45,500,l)
);
},
{
closed = 1;
nodes = (
(370,0,l),
(535,0,l),
(535,304,ls),
(535,448,o),
(478,520,o),
(381,520,cs),
(272,520,o),
(212,428,o),
(196,350,c),
(198,278,l),
(210,217,l),
(210,312,o),
(241,396,o),
(307,396,cs),
(345,396,o),
(370,367,o),
(370,272,cs)
);
},
{
closed = 1;
nodes = (
(695,0,l),
(860,0,l),
(860,304,ls),
(860,448,o),
(803,520,o),
(706,520,cs),
(597,520,o),
(537,428,o),
(521,350,c),
(523,278,l),
(535,217,l),
(535,312,o),
(566,396,o),
(632,396,cs),
(670,396,o),
(695,367,o),
(695,272,cs)
);
}
);
width = 899;
},
{
anchors = (
{
name = top;
position = "{452, 520}";
},
{
name = bottom;
position = "{452, -20}";
}
);
layerId = "D32243E2-577E-4253-BC9B-8FEA88FA4FFA";
shapes = (
{
closed = 1;
nodes = (
(54,0,l,{name = ab01;}),
(199,0,l,{name = sh01;}),
(199,500,l,{name = av01;}),
(54,500,l)
);
},
{
closed = 1;
nodes = (
(379,0,l,{name = ab01;}),
(524,0,l),
(524,314,ls),
(524,462,o),
(458,520,o),
(369,520,cs,{name = at01;}),
(276,520,o),
(208,456,o),
(191,361,c),
(192,282,l),
(199,217,l,{name = iv01;}),
(199,333.604,o),
(238,410,o),
(310,410,cs,{name = sv01;}),
(352,410,o),
(379,383.936,o),
(379,278.68,cs)
);
},
{
closed = 1;
nodes = (
(704,0,l,{name = ab01;}),
(849,0,l),
(849,314,ls),
(849,462,o),
(783,520,o),
(694,520,cs,{name = at01;}),
(601,520,o),
(533,456,o),
(516,361,c),
(517,282,l),
(524,217,l,{name = iv01;}),
(524,333.604,o),
(563,410,o),
(635,410,cs,{name = sv01;}),
(677,410,o),
(704,383.936,o),
(704,278.68,cs)
);
}
);
width = 899;
},
{
anchors = (
{
name = top;
position = "{452, 520}";
},
{
name = bottom;
position = "{452, -20}";
}
);
layerId = "6A0BD57D-C03B-4459-8D3D-7421EEB177BA";
shapes = (
{
closed = 1;
nodes = (
(64,0,l,{name = ab01;}),
(184,0,l,{name = sh01;}),
(184,500,l,{name = av01;}),
(64,500,l)
);
},
{
closed = 1;
nodes = (
(394,0,l,{name = ab01;}),
(514,0,l),
(514,314,ls),
(514,458,o),
(450,520,o),
(359,520,cs,{name = at01;}),
(263,520,o),
(189,452,o),
(176,355,c),
(177,280,l),
(184,217,l,{name = iv01;}),
(184,345.204,o),
(229,430,o),
(314,430,cs,{name = sv01;}),
(364,430,o),
(394,399.86,o),
(394,291.355,cs)
);
},
{
closed = 1;
nodes = (
(719,0,l,{name = ab01;}),
(839,0,l),
(839,314,ls),
(839,458,o),
(775,520,o),
(684,520,cs,{name = at01;}),
(588,520,o),
(514,452,o),
(501,355,c),
(503,280,l),
(514,217,l,{name = iv01;}),
(514,345.204,o),
(558,430,o),
(641,430,cs,{name = sv01;}),
(690,430,o),
(719,399.86,o),
(719,291.355,cs)
);
}
);
width = 899;
},
{
anchors = (
{
name = top;
position = "{452, 520}";
},
{
name = bottom;
position = "{452, -20}";
}
);
layerId = "CA42EF1E-7CAB-449D-BA53-393A55112632";
shapes = (
{
closed = 1;
nodes = (
(74,0,l,{name = ab01;}),
(164,0,l,{name = sh01;}),
(164,500,l,{name = av01;}),
(74,500,l)
);
},
{
closed = 1;
nodes = (
(407,0,l,{name = ab01;}),
(497,0,l),
(497,304,ls),
(497,448,o),
(446,520,o),
(346,520,cs,{name = at01;}),
(248,520,o),
(177,451,o),
(156,342,c),
(157,274,l),
(164,217,l,{name = iv01;}),
(164,357.203,o),
(215,450,o),
(316,450,cs,{name = sv01;}),
(384,450,o),
(407,407.812,o),
(407,294.308,cs)
);
},
{
closed = 1;
nodes = (
(739,0,l,{name = ab01;}),
(829,0,l),
(829,304,ls),
(829,448,o),
(778,520,o),
(678,520,cs,{name = at01;}),
(580,520,o),
(509,451,o),
(488,342,c),
(489,274,l),
(497,217,l,{name = iv01;}),
(497,357.203,o),
(548,450,o),
(648,450,cs,{name = sv01;}),
(716,450,o),
(739,407.812,o),
(739,294.308,cs)
);
}
);
width = 899;
},
{
anchors = (
{
name = top;
position = "{452, 520}";
},
{
name = bottom;
position = "{451, -20}";
}
);
layerId = "F226A6F9-6034-4C5D-800B-D2697DD6BCB4";
shapes = (
{
closed = 1;
nodes = (
(84,0,l,{name = ab01;}),
(144,0,l,{name = sh01;}),
(144,500,l,{name = av01;}),
(84,500,l)
);
},
{
closed = 1;
nodes = (
(422,0,l,{name = ab01;}),
(482,0,l),
(482,314,ls),
(482,461,o),
(422,520,o),
(335,520,cs,{name = at01;}),
(230,520,o),
(147,435,o),
(140,327,c),
(141,277,l),
(144,237,l,{name = iv01;}),
(144,383,o),
(205,469,o),
(313,469,cs,{name = sv01;}),
(384,469,o),
(422,431,o),
(422,307,cs)
);
},
{
closed = 1;
nodes = (
(759,0,l,{name = ab01;}),
(819,0,l),
(819,314,ls),
(819,461,o),
(759,520,o),
(672,520,cs,{name = at01;}),
(567,520,o),
(484,435,o),
(477,327,c),
(478,277,l),
(482,237,l,{name = iv01;}),
(482,383,o),
(543,469,o),
(650,469,cs,{name = sv01;}),
(721,469,o),
(759,431,o),
(759,307,cs)
);
}
);
width = 899;
}
);
leftKerningGroup = i;
rightKerningGroup = h;
unicode = 109;
},
{
glyphname = u;
layers = (
{
anchors = (
{
name = ogonek;
position = "{398, -3}";
},
{
name = top;
position = "{290, 520}";
},
{
name = bottom;
position = "{290, -20}";
}
);
layerId = "C97486CF-1A64-40DF-96D7-C8549AF742BF";
shapes = (
{
closed = 1;
nodes = (
(33,500,l),
(33,185,ls),
(33,63,o),
(132.879,-20,o),
(291.02,-20,cs),
(443.96,-20,o),
(548,64,o),
(548,185,cs),
(548,500,l),
(358,500,l),
(358,241.794,ls),
(358,149.508,o),
(338.043,123,o),
(291.087,123,cs),
(239.435,123,o),
(223,158.344,o),
(223,241.794,cs),
(223,500,l)
);
}
);
width = 580;
},
{
anchors = (
{
name = top;
position = "{290, 520}";
},
{
name = bottom;
position = "{290, -20}";
},
{
name = ogonek;
position = "{397, -3}";
}
);
layerId = "C6BB3B5A-2B00-4D31-935D-56D5DC5DA0A7";
shapes = (
{
closed = 1;
nodes = (
(47,500,l),
(47,185,ls),
(47,62,o),
(144,-20,o),
(291,-20,cs),
(439,-20,o),
(534,65,o),
(534,185,cs),
(534,500,l),
(369,500,l),
(369,228,ls),
(369,137,o),
(345,104,o),
(291,104,cs),
(237,104,o),
(212,138,o),
(212,228,cs),
(212,500,l)
);
}
);
width = 580;
},
{
anchors = (
{
name = top;
position = "{290, 520}";
},
{
name = bottom;
position = "{290, -20}";
},
{
name = ogonek;
position = "{396, -2}";
}
);
layerId = "D32243E2-577E-4253-BC9B-8FEA88FA4FFA";
shapes = (
{
closed = 1;
nodes = (
(56,500,l,{name = av01;}),
(56,185,ls),
(56,62,o),
(143,-20,o),
(290,-20,cs,{name = dv01;}),
(438,-20,o),
(523,65,o),
(523,185,cs),
(523,500,l,{name = av02;}),
(378,500,l),
(378,209.291,ls),
(378,124.083,o),
(347,90,o),
(290,90,cs,{name = dv02;}),
(236,90,o),
(201,121.076,o),
(201,209.291,cs),
(201,500,l)
);
}
);
width = 580;
},
{
anchors = (
{
name = top;
position = "{290, 520}";
},
{
name = bottom;
position = "{290, -20}";
},
{
name = ogonek;
position = "{391, -2}";
}
);
layerId = "6A0BD57D-C03B-4459-8D3D-7421EEB177BA";
shapes = (
{
closed = 1;
nodes = (
(66,500,l,{name = av01;}),
(66,185,ls),
(66,62,o),
(149,-20,o),
(290,-20,cs,{name = dv01;}),
(432,-20,o),
(513,65,o),
(513,185,cs),
(513,500,l,{name = av02;}),
(393,500,l),
(393,198.298,ls),
(393,109.091,o),
(356,70,o),
(291,70,cs,{name = dv02;}),
(227,70,o),
(186,106.084,o),
(186,198.298,cs),
(186,500,l)
);
}
);
width = 580;
},
{
anchors = (
{
name = top;
position = "{290, 520}";
},
{
name = bottom;
position = "{290, -20}";
},
{
name = ogonek;
position = "{389, -3}";
}
);
layerId = "CA42EF1E-7CAB-449D-BA53-393A55112632";
shapes = (
{
closed = 1;
nodes = (
(76,500,l,{name = av01;}),
(76,185,ls),
(76,62,o),
(155,-20,o),
(290,-20,cs,{name = dv01;}),
(426,-20,o),
(503,65,o),
(503,185,cs),
(503,500,l,{name = av02;}),
(413,500,l),
(413,184.298,ls),
(413,91.091,o),
(368,50,o),
(291,50,cs,{name = dv02;}),
(215,50,o),
(166,88.085,o),
(166,184.298,cs),
(166,500,l)
);
}
);
width = 580;
},
{
anchors = (
{
name = top;
position = "{290, 520}";
},
{
name = bottom;
position = "{290, -20}";
},
{
name = ogonek;
position = "{387, -3}";
}
);
layerId = "F226A6F9-6034-4C5D-800B-D2697DD6BCB4";
shapes = (
{
closed = 1;
nodes = (
(86,500,l,{name = av01;}),
(86,185,ls),
(86,62,o),
(161,-20,o),
(289,-20,cs,{name = dv01;}),
(420,-20,o),
(493,65,o),
(493,185,cs),
(493,500,l,{name = av02;}),
(433,500,l),
(433,183,ls),
(433,86,o),
(380,31,o),
(290,31,cs,{name = dv02;}),
(203,31,o),
(146,83,o),
(146,183,cs),
(146,500,l)
);
}
);
width = 580;
}
);
leftKerningGroup = u;
unicode = 117;
},
{
glyphname = h;
layers = (
{
anchors = (
{
name = bottom;
position = "{308, -20}";
},
{
name = top;
position = "{141, 750}";
}
);
layerId = "C97486CF-1A64-40DF-96D7-C8549AF742BF";
shapes = (
{
closed = 1;
nodes = (
(49,0,l),
(239,0,l),
(239,750,l),
(49,750,l)
);
},
{
closed = 1;
nodes = (
(376,0,l),
(566,0,l),
(566,314,ls),
(566,458,o),
(502,520,o),
(408,520,cs),
(317,520,o),
(248,461,o),
(221,360,c),
(223,282,l),
(239,217,l),
(239,313.18,o),
(259,380,o),
(314,380,cs),
(354,380,o),
(376,344.815,o),
(376,267.407,cs)
);
}
);
width = 606;
},
{
anchors = (
{
name = bottom;
position = "{308, -20}";
},
{
name = top;
position = "{131, 750}";
}
);
layerId = "C6BB3B5A-2B00-4D31-935D-56D5DC5DA0A7";
shapes = (
{
closed = 1;
nodes = (
(49,0,l),
(214,0,l),
(214,750,l),
(49,750,l)
);
},
{
closed = 1;
nodes = (
(401,0,l),
(566,0,l),
(566,304,ls),
(566,448,o),
(505,520,o),
(390,520,cs),
(281,520,o),
(217,428,o),
(200,350,c),
(202,278,l),
(214,217,l),
(214,312,o),
(250,396,o),
(327,396,cs),
(373,396,o),
(401,367,o),
(401,272,cs)
);
}
);
width = 606;
},
{
anchors = (
{
name = bottom;
position = "{308, -20}";
},
{
name = top;
position = "{136, 750}";
}
);
layerId = "D32243E2-577E-4253-BC9B-8FEA88FA4FFA";
shapes = (
{
closed = 1;
nodes = (
(64,0,l,{name = ab03;}),
(209,0,l),
(209,750,l,{name = ab01;}),
(64,750,l)
);
},
{
closed = 1;
nodes = (
(406,0,l,{name = ab01;}),
(551,0,l),
(551,314,ls),
(551,462,o),
(482,520,o),
(379,520,cs,{name = at01;}),
(291,520,o),
(220,456,o),
(201,361,c),
(202,282,l),
(209,217,l,{name = iv01;}),
(209,333.604,o),
(251,410,o),
(326,410,cs,{name = sv01;}),
(376,410,o),
(406,383.936,o),
(406,278.68,cs)
);
}
);
width = 606;
},
{
anchors = (
{
name = bottom;
position = "{308, -20}";
},
{
name = top;
position = "{134, 750}";
}
);
layerId = "6A0BD57D-C03B-4459-8D3D-7421EEB177BA";
shapes = (
{
closed = 1;
nodes = (
(74,0,l,{name = ab03;}),
(194,0,l),
(194,750,l,{name = ab01;}),
(74,750,l)
);
},
{
closed = 1;
nodes = (
(421,0,l,{name = ab01;}),
(541,0,l),
(541,314,ls),
(541,458,o),
(474,520,o),
(370,520,cs,{name = at01;}),
(277,520,o),
(200,452,o),
(186,355,c),
(187,280,l),
(194,217,l,{name = iv01;}),
(194,345.204,o),
(242,430,o),
(330,430,cs,{name = sv01;}),
(389,430,o),
(421,399.86,o),
(421,291.355,cs)
);
}
);
width = 606;
},
{
anchors = (
{
name = bottom;
position = "{308, -20}";
},
{
name = top;
position = "{129, 750}";
}
);
layerId = "CA42EF1E-7CAB-449D-BA53-393A55112632";
shapes = (
{
closed = 1;
nodes = (
(84,0,l,{name = ab03;}),
(174,0,l),
(174,750,l,{name = ab01;}),
(84,750,l)
);
},
{
closed = 1;
nodes = (
(441,0,l,{name = ab01;}),
(531,0,l),
(531,304,ls),
(531,448,o),
(476,520,o),
(362,520,cs,{name = at01;}),
(265,520,o),
(189,451,o),
(166,342,c),
(167,274,l),
(174,217,l,{name = iv01;}),
(174,357.203,o),
(230,450,o),
(340,450,cs,{name = sv01;}),
(415,450,o),
(441,407.812,o),
(441,294.308,cs)
);
}
);
width = 606;
},
{
anchors = (
{
name = bottom;
position = "{308, -20}";
},
{
name = top;
position = "{126, 750}";
}
);
layerId = "F226A6F9-6034-4C5D-800B-D2697DD6BCB4";
shapes = (
{
closed = 1;
nodes = (
(94,0,l,{name = ab03;}),
(154,0,l),
(154,750,l,{name = ab01;}),
(94,750,l)
);
},
{
closed = 1;
nodes = (
(461,0,l,{name = ab01;}),
(521,0,l),
(521,314,ls),
(521,461,o),
(456,520,o),
(361,520,cs,{name = at01;}),
(247,520,o),
(158,435,o),
(150,327,c),
(151,277,l),
(154,237,l,{name = iv01;}),
(154,383,o),
(222,469,o),
(340,469,cs,{name = sv01;}),
(419,469,o),
(461,431,o),
(461,307,cs)
);
}
);
width = 606;
}
);
leftKerningGroup = b;
rightKerningGroup = h;
unicode = 104;
},
{
glyphname = l;
layers = (
{
anchors = (
{
name = top;
position = "{130, 750}";
},
{
name = bottom;
position = "{182, -20}";
},
{
name = topright;
position = "{270, 750}";
}
);
layerId = "C97486CF-1A64-40DF-96D7-C8549AF742BF";
shapes = (
{
closed = 1;
nodes = (
(304,133,l),
(291.533,125.603,o),
(276.322,122,o),
(267.122,122,cs),
(244.12,122,o),
(234,143.033,o),
(234,209.138,cs),
(234,750,l),
(44,750,l),
(44,132,ls),
(44,26,o),
(93.016,-20,o),
(206.732,-20,cs),
(253.787,-20,o),
(293,-12,o),
(338,6,c)
);
}
);
width = 300;
},
{
anchors = (
{
name = top;
position = "{128, 750}";
},
{
name = bottom;
position = "{180, -20}";
},
{
name = topright;
position = "{250, 750}";
}
);
layerId = "C6BB3B5A-2B00-4D31-935D-56D5DC5DA0A7";
shapes = (
{
closed = 1;
nodes = (
(293,117,l),
(274,110,o),
(256.101,107,o),
(245.739,107,cs),
(217.478,107,o),
(209,127,o),
(209,193,cs),
(209,750,l),
(44,750,l),
(44,132,ls),
(44,33,o),
(94.136,-20,o),
(201.288,-20,cs),
(239.627,-20,o),
(276,-11,o),
(323,5,c)
);
}
);
width = 300;
},
{
anchors = (
{
name = top;
position = "{128, 750}";
},
{
name = bottom;
position = "{180, -20}";
},
{
name = topright;
position = "{240, 750}";
}
);
layerId = "D32243E2-577E-4253-BC9B-8FEA88FA4FFA";
shapes = (
{
closed = 1;
nodes = (
(291,104,l),
(266,94.308,o),
(248.562,90,o),
(234.795,90,cs,{name = dv02;}),
(204.507,90,o),
(199,110.03,o),
(199,175.129,cs),
(199,750,l,{name = ab01;}),
(54,750,l),
(54,132,ls),
(54,30,o),
(97.8,-20,o),
(205.84,-20,cs,{name = dv01;}),
(246.72,-20,o),
(273,-12,o),
(318,3,c)
);
}
);
width = 300;
},
{
anchors = (
{
name = top;
position = "{128, 750}";
},
{
name = bottom;
position = "{180, -20}";
},
{
name = topright;
position = "{230, 750}";
}
);
layerId = "6A0BD57D-C03B-4459-8D3D-7421EEB177BA";
shapes = (
{
closed = 1;
nodes = (
(277,88,l),
(259,79,o),
(237.75,73,o),
(218.348,73,cs,{name = dv02;}),
(185.087,73,o),
(174,90,o),
(174,161,cs),
(174,750,l,{name = ab01;}),
(54,750,l),
(54,132,ls),
(54,30,o),
(94.58,-20,o),
(197.961,-20,cs,{name = dv01;}),
(226.947,-20,o),
(254,-16,o),
(300,2,c)
);
}
);
width = 300;
},
{
anchors = (
{
name = top;
position = "{128, 750}";
},
{
name = bottom;
position = "{180, -20}";
},
{
name = topright;
position = "{220, 750}";
}
);
layerId = "CA42EF1E-7CAB-449D-BA53-393A55112632";
shapes = (
{
closed = 1;
nodes = (
(266,68,l),
(246,59,o),
(221,53,o),
(200,53,cs,{name = dv02;}),
(166,53,o),
(156,68,o),
(156,141,cs),
(156,750,l,{name = ab01;}),
(66,750,l),
(66,132,ls),
(66,30,o),
(102,-20,o),
(191,-20,cs,{name = dv01;}),
(216,-20,o),
(241,-17,o),
(284,1,c)
);
}
);
width = 300;
},
{
anchors = (
{
name = bottom;
position = "{184, -20}";
},
{
name = top;
position = "{132, 750}";
},
{
name = topright;
position = "{210, 750}";
}
);
layerId = "F226A6F9-6034-4C5D-800B-D2697DD6BCB4";
shapes = (
{
closed = 1;
nodes = (
(261,48,l),
(240,39,o),
(210.681,33,o),
(189.255,33,cs,{name = dv02;}),
(145.277,33,o),
(134,58,o),
(134,131,cs),
(134,750,l,{name = ab01;}),
(74,750,l),
(74,132,ls),
(74,25,o),
(105.367,-20,o),
(189.735,-20,cs,{name = dv01;}),
(214.612,-20,o),
(233,-15,o),
(273,3,c)
);
}
);
width = 300;
}
);
leftKerningGroup = b;
rightKerningGroup = l;
unicode = 108;
},
{
glyphname = p;
layers = (
{
anchors = (
{
name = bottom;
position = "{361, -20}";
},
{
name = top;
position = "{352, 520}";
}
);
layerId = "C97486CF-1A64-40DF-96D7-C8549AF742BF";
shapes = (
{
closed = 1;
nodes = (
(60,-200,l),
(250,-200,l),
(250,500,l),
(60,500,l)
);
},
{
closed = 1;
nodes = (
(509,-20,o),
(593,99,o),
(593,255,cs),
(593,411,o),
(523,520,o),
(385,520,cs),
(270,520,o),
(213,428,o),
(213,255,cs),
(213,82,o),
(271,-20,o),
(373,-20,cs)
);
},
{
closed = 1;
nodes = (
(277,116,o),
(250,168,o),
(250,255,cs),
(250,335,o),
(278,383,o),
(326,383,cs),
(374,383,o),
(403,334,o),
(403,254,cs),
(403,167,o),
(373,116,o),
(322,116,cs)
);
}
);
width = 632;
},
{
anchors = (
{
name = bottom;
position = "{369, -20}";
},
{
name = top;
position = "{350, 520}";
}
);
layerId = "C6BB3B5A-2B00-4D31-935D-56D5DC5DA0A7";
shapes = (
{
closed = 1;
nodes = (
(61,-200,l),
(226,-200,l),
(226,500,l),
(61,500,l)
);
},
{
closed = 1;
nodes = (
(509,-20,o),
(593,99,o),
(593,255,cs),
(593,411,o),
(518,520,o),
(379,520,cs),
(261,520,o),
(191,421,o),
(191,255,cs),
(191,90,o),
(263,-20,o),
(372,-20,cs)
);
},
{
closed = 1;
nodes = (
(264,106,o),
(226,166,o),
(226,257,cs),
(226,337,o),
(265,393,o),
(322,393,cs),
(390,393,o),
(428,341,o),
(428,256,cs),
(428,164,o),
(388,106,o),
(323,106,cs)
);
}
);
width = 632;
},
{
anchors = (
{
name = bottom;
position = "{379, -20}";
},
{
name = top;
position = "{345, 520}";
}
);
layerId = "D32243E2-577E-4253-BC9B-8FEA88FA4FFA";
shapes = (
{
closed = 1;
nodes = (
(71,-200,l,{name = av01;}),
(216,-200,l),
(216,500,l,{name = av02;}),
(71,500,l)
);
},
{
closed = 1;
nodes = (
(500,-20,o),
(583,99,o),
(583,255,cs),
(583,411,o),
(509,520,o),
(370,520,cs,{name = at01;}),
(259,520,o),
(184,413,o),
(184,255,cs),
(184,98,o),
(254,-20,o),
(364,-20,cs,{name = dv01;})
);
},
{
closed = 1;
nodes = (
(258.19,90,o),
(216,153.197,o),
(216,256.52,cs),
(216,348.809,o),
(259.195,410,o),
(326.498,410,cs,{name = sv01;}),
(393.801,410,o),
(438,348.809,o),
(438,255.517,cs),
(438,158.213,o),
(391.792,90,o),
(327.502,90,cs,{name = dv02;})
);
}
);
width = 632;
},
{
anchors = (
{
name = bottom;
position = "{359, -20}";
},
{
name = top;
position = "{347, 520}";
}
);
layerId = "6A0BD57D-C03B-4459-8D3D-7421EEB177BA";
shapes = (
{
closed = 1;
nodes = (
(81,-200,l,{name = av01;}),
(201,-200,l),
(201,500,l,{name = av02;}),
(81,500,l)
);
},
{
closed = 1;
nodes = (
(499,-20,o),
(583,99,o),
(583,255,cs),
(583,411,o),
(508,520,o),
(367,520,cs,{name = at01;}),
(247,520,o),
(179,422,o),
(179,255,cs),
(179,88,o),
(244,-20,o),
(361,-20,cs,{name = dv01;})
);
},
{
closed = 1;
nodes = (
(256,70,o),
(201,151.226,o),
(201,256.518,cs),
(201,357.799,o),
(258,430,o),
(337,430,cs,{name = sv01;}),
(417,430,o),
(463,366.825,o),
(463,255.515,cs),
(463,142.201,o),
(414,70,o),
(336,70,cs,{name = dv02;})
);
}
);
width = 632;
},
{
anchors = (
{
name = bottom;
position = "{350, -20}";
},
{
name = top;
position = "{341, 520}";
}
);
layerId = "CA42EF1E-7CAB-449D-BA53-393A55112632";
shapes = (
{
closed = 1;
nodes = (
(92,-200,l,{name = av01;}),
(182,-200,l),
(182,500,l,{name = av02;}),
(92,500,l)
);
},
{
closed = 1;
nodes = (
(488,-20,o),
(574,99,o),
(574,255,cs),
(574,411,o),
(497,520,o),
(352,520,cs,{name = at01;}),
(229,520,o),
(160,402,o),
(160,255,cs),
(160,108,o),
(226,-20,o),
(346,-20,cs,{name = dv01;})
);
},
{
closed = 1;
nodes = (
(245,50,o),
(182,141.228,o),
(182,256.516,cs),
(182,369.8,o),
(247,450,o),
(338,450,cs,{name = sv01;}),
(430,450,o),
(484,378.822,o),
(484,255.514,cs),
(484,130.2,o),
(427,50,o),
(337,50,cs,{name = dv02;})
);
}
);
width = 632;
},
{
anchors = (
{
name = top;
position = "{341, 520}";
},
{
name = bottom;
position = "{350, -20}";
}
);
layerId = "F226A6F9-6034-4C5D-800B-D2697DD6BCB4";
shapes = (
{
closed = 1;
nodes = (
(102,-200,l,{name = av01;}),
(162,-200,l),
(162,500,l,{name = av02;}),
(102,500,l)
);
},
{
closed = 1;
nodes = (
(486,-20,o),
(564,99,o),
(564,256,cs),
(564,411,o),
(488,520,o),
(356,520,cs,{name = at01;}),
(219,520,o),
(146,403,o),
(146,247,cs),
(146,95,o),
(216,-20,o),
(350,-20,cs,{name = dv01;})
);
},
{
closed = 1;
nodes = (
(233,30,o),
(162,131,o),
(162,255,cs),
(162,381,o),
(235,469,o),
(349,469,cs,{name = sv01;}),
(450,469,o),
(504,400,o),
(504,257,cs),
(504,108,o),
(446,30,o),
(346,30,cs,{name = dv02;})
);
}
);
width = 632;
}
);
leftKerningGroup = i;
rightKerningGroup = b1;
unicode = 112;
},
{
glyphname = d;
layers = (
{
anchors = (
{
name = bottom;
position = "{266, -20}";
},
{
name = top;
position = "{259, 750}";
},
{
name = topright;
position = "{601, 750}";
}
);
layerId = "C97486CF-1A64-40DF-96D7-C8549AF742BF";
shapes = (
{
closed = 1;
nodes = (
(363,0,l),
(553,0,l),
(553,750,l),
(363,750,l)
);
},
{
closed = 1;
nodes = (
(338,-20,o),
(395,82,o),
(395,255,cs),
(395,432,o),
(339,520,o),
(226,520,cs),
(89,520,o),
(20,411,o),
(20,255,cs),
(20,99,o),
(103,-20,o),
(237,-20,cs)
);
},
{
closed = 1;
nodes = (
(240,116,o),
(210,167,o),
(210,254,cs),
(210,334,o),
(239,383,o),
(287,383,cs),
(335,383,o),
(363,335,o),
(363,255,cs),
(363,168,o),
(336,116,o),
(291,116,cs)
);
}
);
width = 597;
},
{
anchors = (
{
name = bottom;
position = "{266, -20}";
},
{
name = top;
position = "{259, 750}";
},
{
name = topright;
position = "{591, 750}";
}
);
layerId = "C6BB3B5A-2B00-4D31-935D-56D5DC5DA0A7";
shapes = (
{
closed = 1;
nodes = (
(387,0,l),
(552,0,l),
(552,750,l),
(387,750,l)
);
},
{
closed = 1;
nodes = (
(348,-20,o),
(419,90,o),
(419,255,cs),
(419,421,o),
(350,520,o),
(233,520,cs),
(94,520,o),
(20,411,o),
(20,255,cs),
(20,99,o),
(103,-20,o),
(239,-20,cs)
);
},
{
closed = 1;
nodes = (
(226.204,106,o),
(185,165,o),
(185,256,cs),
(185,344,o),
(223.189,393,o),
(290.522,393,cs),
(347.806,393,o),
(387,337,o),
(387,257,cs),
(387,166,o),
(348.811,106,o),
(289.517,106,cs)
);
}
);
width = 597;
},
{
anchors = (
{
name = bottom;
position = "{275, -20}";
},
{
name = top;
position = "{270, 750}";
},
{
name = topright;
position = "{580, 750}";
}
);
layerId = "D32243E2-577E-4253-BC9B-8FEA88FA4FFA";
shapes = (
{
closed = 1;
nodes = (
(397,0,l,{name = ab02;}),
(542,0,l),
(542,750,l,{name = ab01;}),
(397,750,l)
);
},
{
closed = 1;
nodes = (
(366,-20,o),
(429,89,o),
(429,255,cs),
(429,423,o),
(361,520,o),
(243,520,cs,{name = at01;}),
(104,520,o),
(30,411,o),
(30,255,cs),
(30,99,o),
(113,-20,o),
(249,-20,cs,{name = dv01;})
);
},
{
closed = 1;
nodes = (
(218.195,90,o),
(175,154.201,o),
(175,255.517,cs),
(175,352.821,o),
(216.186,410,o),
(286.502,410,cs,{name = sv01;}),
(353.805,410,o),
(397,348.809,o),
(397,256.52,cs),
(397,153.197,o),
(354.81,90,o),
(285.498,90,cs,{name = dv02;})
);
}
);
width = 597;
},
{
anchors = (
{
name = bottom;
position = "{285, -20}";
},
{
name = top;
position = "{281, 750}";
},
{
name = topright;
position = "{580, 750}";
}
);
layerId = "6A0BD57D-C03B-4459-8D3D-7421EEB177BA";
shapes = (
{
closed = 1;
nodes = (
(422,0,l,{name = ab02;}),
(542,0,l),
(542,750,l,{name = ab01;}),
(422,750,l)
);
},
{
closed = 1;
nodes = (
(379,-20,o),
(444,78,o),
(444,255,cs),
(444,422,o),
(376,520,o),
(256,520,cs,{name = at01;}),
(115,520,o),
(40,411,o),
(40,255,cs),
(40,99,o),
(124,-20,o),
(262,-20,cs,{name = dv01;})
);
},
{
closed = 1;
nodes = (
(209,70,o),
(160,142.201,o),
(160,255.515,cs),
(160,366.825,o),
(205,430,o),
(286,430,cs,{name = sv01;}),
(365,430,o),
(422,357.799,o),
(422,256.518,cs),
(422,151.226,o),
(367,70,o),
(287,70,cs,{name = dv02;})
);
}
);
width = 597;
},
{
anchors = (
{
name = top;
position = "{280, 750}";
},
{
name = bottom;
position = "{285, -20}";
},
{
name = topright;
position = "{560, 750}";
}
);
layerId = "CA42EF1E-7CAB-449D-BA53-393A55112632";
shapes = (
{
closed = 1;
nodes = (
(442,0,l,{name = ab02;}),
(532,0,l),
(532,750,l,{name = ab01;}),
(442,750,l)
);
},
{
closed = 1;
nodes = (
(398,-20,o),
(464,78,o),
(464,255,cs),
(464,422,o),
(395,520,o),
(272,520,cs,{name = at01;}),
(127,520,o),
(50,411,o),
(50,255,cs),
(50,99,o),
(136,-20,o),
(278,-20,cs,{name = dv01;})
);
},
{
closed = 1;
nodes = (
(197,50,o),
(140,130.201,o),
(140,255.514,cs),
(140,378.822,o),
(191,450,o),
(286,450,cs,{name = sv01;}),
(377,450,o),
(442,369.799,o),
(442,256.516,cs),
(442,141.228,o),
(379,50,o),
(287,50,cs,{name = dv02;})
);
}
);
width = 597;
},
{
anchors = (
{
name = top;
position = "{284, 750}";
},
{
name = bottom;
position = "{290, -20}";
},
{
name = topright;
position = "{550, 750}";
}
);
layerId = "F226A6F9-6034-4C5D-800B-D2697DD6BCB4";
shapes = (
{
closed = 1;
nodes = (
(462,0,l,{name = ab03;}),
(522,0,l),
(522,750,l,{name = ab01;}),
(462,750,l)
);
},
{
closed = 1;
nodes = (
(408,-20,o),
(480,81,o),
(480,251,cs),
(480,423,o),
(406,520,o),
(274,520,cs,{name = at01;}),
(135,520,o),
(60,411,o),
(60,258,cs),
(60,99,o),
(140,-20,o),
(279,-20,cs,{name = dv01;})
);
},
{
closed = 1;
nodes = (
(185,30,o),
(120,118,o),
(120,258,cs),
(120,390,o),
(177,469,o),
(280,469,cs,{name = sv01;}),
(389,469,o),
(462,381,o),
(462,254,cs),
(462,126,o),
(387,30,o),
(284,30,cs,{name = dv02;})
);
}
);
width = 597;
}
);
leftKerningGroup = a;
unicode = 100;
},
{
glyphname = o;
layers = (
{
anchors = (
{
name = ogonek;
position = "{392, -3}";
},
{
name = top;
position = "{289, 520}";
},
{
name = bottom;
position = "{289, -20}";
},
{
name = topgr;
position = "{289, 520}";
}
);
layerId = "1442ED3A-B473-4AAF-9A66-11AD2FB076FA";
name = "#instance";
shapes = (
{
closed = 1;
nodes = (
(444.507,-20,o),
(528,79,o),
(528,250,cs),
(528,421,o),
(444.507,520,o),
(289,520,cs,{name = at01;}),
(132.45,520,o),
(50,421,o),
(50,250,cs),
(50,79,o),
(132.45,-20,o),
(289,-20,cs,{name = dv01;})
);
},
{
closed = 1;
nodes = (
(167.195,31,o),
(110,105,o),
(110,253,cs),
(110,400,o),
(170.373,469,o),
(289,469,cs,{name = sv01;}),
(410.805,469,o),
(468,397,o),
(468,248,cs),
(468,102,o),
(408.686,31,o),
(289,31,cs,{name = dv02;})
);
}
);
width = 578;
},
{
anchors = (
{
name = ogonek;
position = "{401, -3}";
},
{
name = top;
position = "{289, 520}";
},
{
name = bottom;
position = "{289, -20}";
},
{
name = topgr;
position = "{289, 520}";
}
);
layerId = "C97486CF-1A64-40DF-96D7-C8549AF742BF";
shapes = (
{
closed = 1;
nodes = (
(463,-20,o),
(558,79,o),
(558,255,cs),
(558,421,o),
(462,520,o),
(289,520,cs),
(126,520,o),
(20,421,o),
(20,255,cs),
(20,79,o),
(127,-20,o),
(289,-20,cs)
);
},
{
closed = 1;
nodes = (
(236,120,o),
(210,163.643,o),
(210,250.929,cs),
(210,337.286,o),
(235,380,o),
(289,380,cs),
(341,380,o),
(368,339.143,o),
(368,251.857,cs),
(368,163.643,o),
(341,120,o),
(289,120,cs)
);
}
);
width = 578;
},
{
anchors = (
{
name = ogonek;
position = "{398, -3}";
},
{
name = top;
position = "{289, 520}";
},
{
name = bottom;
position = "{289, -20}";
},
{
name = topgr;
position = "{289, 520}";
}
);
layerId = "C6BB3B5A-2B00-4D31-935D-56D5DC5DA0A7";
shapes = (
{
closed = 1;
nodes = (
(452.16,-20,o),
(555,80,o),
(555,255,cs),
(555,431,o),
(448.204,520,o),
(289,520,cs),
(137.706,520,o),
(23,429,o),
(23,255,cs),
(23,89,o),
(129.796,-20,o),
(289,-20,cs)
);
},
{
closed = 1;
nodes = (
(221.99,103,o),
(188,155,o),
(188,254,cs),
(188,349,o),
(221.019,396,o),
(287.058,396,cs),
(355.038,396,o),
(390,347,o),
(390,252,cs),
(390,156,o),
(353.096,103,o),
(286.087,103,cs)
);
}
);
width = 578;
},
{
anchors = (
{
name = ogonek;
position = "{398, -3}";
},
{
name = top;
position = "{289, 520}";
},
{
name = bottom;
position = "{289, -20}";
},
{
name = topgr;
position = "{289, 520}";
}
);
layerId = "D32243E2-577E-4253-BC9B-8FEA88FA4FFA";
shapes = (
{
closed = 1;
nodes = (
(463,-20,o),
(548,84,o),
(548,255,cs),
(548,416,o),
(462,520,o),
(289,520,cs,{name = at01;}),
(127,520,o),
(30,416,o),
(30,255,cs),
(30,84,o),
(128,-20,o),
(289,-20,cs,{name = dv01;})
);
},
{
closed = 1;
nodes = (
(217,90,o),
(178,146.352,o),
(178,255.031,cs),
(178,359.686,o),
(214,410,o),
(289,410,cs,{name = sv01;}),
(365,410,o),
(400,357.673,o),
(400,253.019,cs),
(400,145.346,o),
(368,90,o),
(289,90,cs,{name = dv02;})
);
}
);
width = 578;
},
{
anchors = (
{
name = ogonek;
position = "{394, -3}";
},
{
name = top;
position = "{289, 520}";
},
{
name = bottom;
position = "{289, -20}";
},
{
name = topgr;
position = "{289, 520}";
}
);
layerId = "6A0BD57D-C03B-4459-8D3D-7421EEB177BA";
shapes = (
{
closed = 1;
nodes = (
(459.024,-20,o),
(541,79,o),
(541,255,cs),
(541,421,o),
(458.012,520,o),
(289,520,cs,{name = at01;}),
(131.12,520,o),
(37,421,o),
(37,255,cs),
(37,79,o),
(132.133,-20,o),
(289,-20,cs,{name = dv01;})
);
},
{
closed = 1;
nodes = (
(204.07,70,o),
(157,132.346,o),
(157,255.028,cs),
(157,373.687,o),
(201,430,o),
(289,430,cs,{name = sv01;}),
(378.023,430,o),
(421,369.665,o),
(421,253.017,cs),
(421,135.363,o),
(377,70,o),
(289,70,cs,{name = dv02;})
);
}
);
width = 578;
},
{
anchors = (
{
name = ogonek;
position = "{391, -3}";
},
{
name = top;
position = "{289, 520}";
},
{
name = bottom;
position = "{289, -20}";
},
{
name = topgr;
position = "{289, 520}";
}
);
layerId = "CA42EF1E-7CAB-449D-BA53-393A55112632";
shapes = (
{
closed = 1;
nodes = (
(447.611,-20,o),
(532,79,o),
(532,255,cs),
(532,421,o),
(447.611,520,o),
(283.916,520,cs,{name = at01;}),
(131.406,520,o),
(46,421,o),
(46,255,cs),
(46,79,o),
(131.406,-20,o),
(282.9,-20,cs,{name = dv01;})
);
},
{
closed = 1;
nodes = (
(185.289,50,o),
(136,118.342,o),
(136,255.025,cs),
(136,387.688,o),
(184.262,450,o),
(286.946,450,cs,{name = sv01;}),
(390.658,450,o),
(442,383.668,o),
(442,253.015,cs),
(442,115.327,o),
(391.685,50,o),
(284.893,50,cs,{name = dv02;})
);
}
);
width = 578;
},
{
anchors = (
{
name = top;
position = "{289, 520}";
},
{
name = bottom;
position = "{289, -20}";
},
{
name = ogonek;
position = "{392, -3}";
},
{
name = topgr;
position = "{289, 520}";
}
);
layerId = "F226A6F9-6034-4C5D-800B-D2697DD6BCB4";
shapes = (
{
closed = 1;
nodes = (
(444.507,-20,o),
(528,79,o),
(528,250,cs),
(528,421,o),
(444.507,520,o),
(289,520,cs,{name = at01;}),
(132.45,520,o),
(50,421,o),
(50,250,cs),
(50,79,o),
(132.45,-20,o),
(289,-20,cs,{name = dv01;})
);
},
{
closed = 1;
nodes = (
(167.195,31,o),
(110,105,o),
(110,253,cs),
(110,400,o),
(170.373,469,o),
(289,469,cs,{name = sv01;}),
(410.805,469,o),
(468,397,o),
(468,248,cs),
(468,102,o),
(408.686,31,o),
(289,31,cs,{name = dv02;})
);
}
);
width = 578;
}
);
leftKerningGroup = a;
rightKerningGroup = b1;
unicode = 111;
},
{
glyphname = q;
layers = (
{
anchors = (
{
name = bottom;
position = "{261, -20}";
},
{
name = top;
position = "{262, 520}";
}
);
layerId = "C97486CF-1A64-40DF-96D7-C8549AF742BF";
shapes = (
{
closed = 1;
nodes = (
(373,-200,l),
(563,-200,l),
(563,500,l),
(373,500,l)
);
},
{
closed = 1;
nodes = (
(348,-20,o),
(405,82,o),
(405,255,cs),
(405,428,o),
(349,520,o),
(236,520,cs),
(99,520,o),
(30,411,o),
(30,255,cs),
(30,99,o),
(113,-20,o),
(247,-20,cs)
);
},
{
closed = 1;
nodes = (
(250,116,o),
(220,167,o),
(220,254,cs),
(220,334,o),
(249,383,o),
(297,383,cs),
(345,383,o),
(373,335,o),
(373,255,cs),
(373,168,o),
(346,116,o),
(301,116,cs)
);
}
);
width = 635;
},
{
anchors = (
{
name = bottom;
position = "{271, -20}";
},
{
name = top;
position = "{272, 520}";
}
);
layerId = "C6BB3B5A-2B00-4D31-935D-56D5DC5DA0A7";
shapes = (
{
closed = 1;
nodes = (
(397,-200,l),
(562,-200,l),
(562,500,l),
(397,500,l)
);
},
{
closed = 1;
nodes = (
(358.089,-20,o),
(429,90,o),
(429,255,cs),
(429,421,o),
(360.086,520,o),
(243.233,520,cs),
(104.407,520,o),
(30.5,411,o),
(30.5,255,cs),
(30.5,99,o),
(113.396,-20,o),
(249.226,-20,cs)
);
},
{
closed = 1;
nodes = (
(233.595,106,o),
(195.5,161,o),
(195.5,256,cs),
(195.5,346,o),
(231.59,393,o),
(300.761,393,cs),
(357.903,393,o),
(397,337,o),
(397,257,cs),
(397,166,o),
(358.905,106,o),
(299.759,106,cs)
);
}
);
width = 635;
},
{
anchors = (
{
name = bottom;
position = "{280, -20}";
},
{
name = top;
position = "{281, 520}";
}
);
layerId = "D32243E2-577E-4253-BC9B-8FEA88FA4FFA";
shapes = (
{
closed = 1;
nodes = (
(407,-200,l),
(552,-200,l),
(552,500,l),
(407,500,l)
);
},
{
closed = 1;
nodes = (
(376.079,-20,o),
(439,89,o),
(439,255,cs),
(439,423,o),
(371.085,520,o),
(253.233,520,cs,{name = at01;}),
(114.407,520,o),
(40.5,411,o),
(40.5,255,cs),
(40.5,99,o),
(123.396,-20,o),
(259.226,-20,cs,{name = dv01;})
);
},
{
closed = 1;
nodes = (
(229.6,90,o),
(185.5,155.204,o),
(185.5,255.517,cs),
(185.5,350.815,o),
(227.595,410,o),
(296.751,410,cs,{name = sv01;}),
(363.903,410,o),
(407,348.809,o),
(407,256.52,cs),
(407,153.197,o),
(364.905,90,o),
(295.749,90,cs,{name = dv02;})
);
}
);
width = 635;
},
{
anchors = (
{
name = bottom;
position = "{290, -20}";
},
{
name = top;
position = "{291, 520}";
}
);
layerId = "6A0BD57D-C03B-4459-8D3D-7421EEB177BA";
shapes = (
{
closed = 1;
nodes = (
(432,-200,l),
(552,-200,l),
(552,500,l),
(432,500,l)
);
},
{
closed = 1;
nodes = (
(389,-20,o),
(454,88,o),
(454,255,cs),
(454,422,o),
(386,520,o),
(266,520,cs,{name = at01;}),
(125,520,o),
(50,411,o),
(50,255,cs),
(50,99,o),
(134,-20,o),
(272,-20,cs,{name = dv01;})
);
},
{
closed = 1;
nodes = (
(221,70,o),
(170,145.209,o),
(170,255.515,cs),
(170,363.816,o),
(218,430,o),
(296,430,cs,{name = sv01;}),
(375,430,o),
(432,357.799,o),
(432,256.518,cs),
(432,151.226,o),
(377,70,o),
(297,70,cs,{name = dv02;})
);
}
);
width = 635;
},
{
anchors = (
{
name = bottom;
position = "{300, -20}";
},
{
name = top;
position = "{294, 520}";
}
);
layerId = "CA42EF1E-7CAB-449D-BA53-393A55112632";
shapes = (
{
closed = 1;
nodes = (
(452,-200,l),
(542,-200,l),
(542,500,l),
(452,500,l)
);
},
{
closed = 1;
nodes = (
(408,-20,o),
(474,78,o),
(474,255,cs),
(474,422,o),
(405,520,o),
(282,520,cs,{name = at01;}),
(137,520,o),
(60,411,o),
(60,255,cs),
(60,99,o),
(146,-20,o),
(288,-20,cs,{name = dv01;})
);
},
{
closed = 1;
nodes = (
(209,50,o),
(150,133.208,o),
(150,255.514,cs),
(150,375.815,o),
(206,450,o),
(296,450,cs,{name = sv01;}),
(387,450,o),
(452,369.799,o),
(452,256.516,cs),
(452,141.228,o),
(389,50,o),
(297,50,cs,{name = dv02;})
);
}
);
width = 635;
},
{
anchors = (
{
name = bottom;
position = "{300, -20}";
},
{
name = top;
position = "{301, 520}";
}
);
layerId = "F226A6F9-6034-4C5D-800B-D2697DD6BCB4";
shapes = (
{
closed = 1;
nodes = (
(472,-200,l),
(532,-200,l),
(532,500,l),
(472,500,l)
);
},
{
closed = 1;
nodes = (
(409,-20,o),
(490,78,o),
(490,257,cs),
(490,422,o),
(421,520,o),
(288,520,cs,{name = at01;}),
(148,520,o),
(70,411,o),
(70,257,cs),
(70,99,o),
(152,-20,o),
(287,-20,cs,{name = dv01;})
);
},
{
closed = 1;
nodes = (
(197,30,o),
(130,121,o),
(130,256,cs),
(130,387,o),
(194,469,o),
(295,469,cs,{name = sv01;}),
(399,469,o),
(472,381,o),
(472,255,cs),
(472,131,o),
(401,30,o),
(296,30,cs,{name = dv02;})
);
}
);
width = 635;
}
);
leftKerningGroup = a;
unicode = 113;
},
{
glyphname = b;
layers = (
{
anchors = (
{
name = bottom;
position = "{345, -20}";
},
{
name = top;
position = "{353, 750}";
}
);
layerId = "C97486CF-1A64-40DF-96D7-C8549AF742BF";
shapes = (
{
closed = 1;
nodes = (
(60,0,l),
(250,0,l),
(250,750,l),
(60,750,l)
);
},
{
closed = 1;
nodes = (
(510,-20,o),
(593,99,o),
(593,255,cs),
(593,411,o),
(524,520,o),
(392.319,520,cs),
(274,520,o),
(218,432,o),
(218,255,cs),
(218,82,o),
(275,-20,o),
(387.974,-20,cs)
);
},
{
closed = 1;
nodes = (
(277,120,o),
(250,170.637,o),
(250,255.356,cs),
(250,333.258,o),
(278,380,o),
(326,380,cs),
(374,380,o),
(403,332.285,o),
(403,254.382,cs),
(403,169.663,o),
(373,120,o),
(322,120,cs)
);
}
);
width = 635;
},
{
anchors = (
{
name = bottom;
position = "{345, -20}";
},
{
name = top;
position = "{353, 750}";
}
);
layerId = "C6BB3B5A-2B00-4D31-935D-56D5DC5DA0A7";
shapes = (
{
closed = 1;
nodes = (
(63,0,l),
(228,0,l),
(228,750,l),
(63,750,l)
);
},
{
closed = 1;
nodes = (
(512,-20,o),
(595,99,o),
(595,255,cs),
(595,411,o),
(521,520,o),
(382,520,cs),
(265,520,o),
(196,421,o),
(196,255,cs),
(196,90,o),
(267,-20,o),
(387.092,-20,cs)
);
},
{
closed = 1;
nodes = (
(266.189,106,o),
(228,166,o),
(228,257,cs),
(228,337,o),
(267.194,393,o),
(324.478,393,cs),
(387.791,393,o),
(430,339,o),
(430,256,cs),
(430,170,o),
(384.776,106,o),
(325.483,106,cs)
);
}
);
width = 635;
},
{
anchors = (
{
name = bottom;
position = "{345, -20}";
},
{
name = top;
position = "{353, 750}";
}
);
layerId = "D32243E2-577E-4253-BC9B-8FEA88FA4FFA";
shapes = (
{
closed = 1;
nodes = (
(73,0,l),
(218,0,l,{name = ab02;}),
(218,750,l,{name = ab01;}),
(73,750,l,{name = sh01;})
);
},
{
closed = 1;
nodes = (
(501.604,-20,o),
(584.5,99,o),
(584.5,255,cs),
(584.5,411,o),
(510.593,520,o),
(371.767,520,cs,{name = at01;}),
(253.915,520,o),
(186,423,o),
(186,255,cs),
(186,89,o),
(248.921,-20,o),
(372.491,-20,cs,{name = dv01;})
);
},
{
closed = 1;
nodes = (
(260.095,90,o),
(218,153.197,o),
(218,256.52,cs),
(218,348.809,o),
(261.097,410,o),
(328.249,410,cs,{name = sv01;}),
(398.407,410,o),
(439.5,351.818,o),
(439.5,255.517,cs),
(439.5,154.201,o),
(396.403,90,o),
(329.251,90,cs,{name = dv02;})
);
}
);
width = 635;
},
{
anchors = (
{
name = bottom;
position = "{345, -20}";
},
{
name = top;
position = "{353, 750}";
}
);
layerId = "6A0BD57D-C03B-4459-8D3D-7421EEB177BA";
shapes = (
{
closed = 1;
nodes = (
(83,0,l),
(203,0,l,{name = ab02;}),
(203,750,l,{name = ab01;}),
(83,750,l,{name = sh01;})
);
},
{
closed = 1;
nodes = (
(501,-20,o),
(585,99,o),
(585,255,cs),
(585,411,o),
(510,520,o),
(376.03,520,cs,{name = at01;}),
(249,520,o),
(181,422,o),
(181,255,cs),
(181,78,o),
(246,-20,o),
(367.316,-20,cs,{name = dv01;})
);
},
{
closed = 1;
nodes = (
(258,70,o),
(203,151.226,o),
(203,256.518,cs),
(203,357.799,o),
(260,430,o),
(339,430,cs,{name = sv01;}),
(418,430,o),
(465,364.819,o),
(465,255.515,cs),
(465,144.206,o),
(415,70,o),
(338,70,cs,{name = dv02;})
);
}
);
width = 635;
},
{
anchors = (
{
name = bottom;
position = "{345, -20}";
},
{
name = top;
position = "{353, 750}";
}
);
layerId = "CA42EF1E-7CAB-449D-BA53-393A55112632";
shapes = (
{
closed = 1;
nodes = (
(93,0,l),
(183,0,l,{name = ab02;}),
(183,750,l,{name = ab01;}),
(93,750,l,{name = sh01;})
);
},
{
closed = 1;
nodes = (
(489,-20,o),
(575,99,o),
(575,255,cs),
(575,411,o),
(498,520,o),
(360.437,520,cs,{name = at01;}),
(230,520,o),
(161,422,o),
(161,255,cs),
(161,78,o),
(227,-20,o),
(351.646,-20,cs,{name = dv01;})
);
},
{
closed = 1;
nodes = (
(246,50,o),
(183,138.221,o),
(183,255.514,cs),
(183,368.797,o),
(248,450,o),
(339,450,cs,{name = sv01;}),
(430,450,o),
(485,376.817,o),
(485,255.514,cs),
(485,132.206,o),
(427,50,o),
(338,50,cs,{name = dv02;})
);
}
);
width = 635;
},
{
anchors = (
{
name = top;
position = "{353, 750}";
},
{
name = bottom;
position = "{345, -20}";
}
);
layerId = "F226A6F9-6034-4C5D-800B-D2697DD6BCB4";
shapes = (
{
closed = 1;
nodes = (
(103,0,l),
(163,0,l,{name = ab02;}),
(163,750,l,{name = ab01;}),
(103,750,l,{name = sh01;})
);
},
{
closed = 1;
nodes = (
(474,-20,o),
(565,89,o),
(565,256,cs),
(565,411,o),
(487,520,o),
(353,520,cs,{name = at01;}),
(236,520,o),
(146,437,o),
(146,248,cs),
(146,73,o),
(223,-20,o),
(344,-20,cs,{name = dv01;})
);
},
{
closed = 1;
nodes = (
(234,30,o),
(163,126,o),
(163,252,cs),
(163,380,o),
(236,469,o),
(341,469,cs,{name = sv01;}),
(442,469,o),
(505,388,o),
(505,256,cs),
(505,120,o),
(439,30,o),
(338,30,cs,{name = dv02;})
);
}
);
width = 635;
}
);
leftKerningGroup = b;
rightKerningGroup = b1;
unicode = 98;
},
{
glyphname = c;
layers = (
{
anchors = (
{
name = top;
position = "{304, 520}";
},
{
name = bottom;
position = "{304, -20}";
}
);
layerId = "C97486CF-1A64-40DF-96D7-C8549AF742BF";
shapes = (
{
closed = 1;
nodes = (
(427.235,167.765,l),
(397,137.124,o),
(356,120,o),
(313,120,cs),
(247,120,o),
(220,163.643,o),
(220,250.929,cs),
(220,337.286,o),
(243,380,o),
(318,380,cs),
(362,380,o),
(389.883,365.179,o),
(424,332,c),
(522,430,l),
(466,486,o),
(396,520,o),
(293,520,cs),
(130,520,o),
(30,421,o),
(30,255,cs),
(30,79,o),
(131,-20,o),
(293,-20,cs),
(398,-20,o),
(469,14,o),
(525,70,c)
);
}
);
width = 545;
},
{
anchors = (
{
name = top;
position = "{304, 520}";
},
{
name = bottom;
position = "{304, -20}";
}
);
layerId = "C6BB3B5A-2B00-4D31-935D-56D5DC5DA0A7";
shapes = (
{
closed = 1;
nodes = (
(437,158,l),
(410,123,o),
(360,104,o),
(309,104,cs),
(230,104,o),
(195,155,o),
(195,254,cs),
(195,349,o),
(234,396,o),
(308,396,cs),
(355,396,o),
(406,377,o),
(433,342,c),
(518,427,l),
(468,488,o),
(393,520,o),
(294,520,cs),
(141,520,o),
(30,429,o),
(30,255,cs),
(30,89,o),
(131,-20,o),
(292,-20,cs),
(394,-20,o),
(472,12,o),
(522,73,c)
);
}
);
width = 545;
},
{
anchors = (
{
name = top;
position = "{304, 520}";
},
{
name = bottom;
position = "{304, -20}";
}
);
layerId = "D32243E2-577E-4253-BC9B-8FEA88FA4FFA";
shapes = (
{
closed = 1;
nodes = (
(444,145,l),
(415,111.389,o),
(371,90,o),
(315,90,cs,{name = dv02;}),
(210,90,o),
(185,163.459,o),
(185,255.031,cs),
(185,359.686,o),
(223,410,o),
(298,410,cs,{name = sv01;}),
(353,410,o),
(405,390.648,o),
(436,355,c),
(514,433,l),
(464,490,o),
(387,520,o),
(294,520,cs,{name = at01;}),
(132,520,o),
(40,416,o),
(40,255,cs),
(40,84,o),
(132,-20,o),
(293,-20,cs,{name = dv01;}),
(396,-20,o),
(472,10,o),
(522,67,c)
);
}
);
width = 545;
},
{
anchors = (
{
name = top;
position = "{303, 520}";
},
{
name = bottom;
position = "{303, -20}";
}
);
layerId = "6A0BD57D-C03B-4459-8D3D-7421EEB177BA";
shapes = (
{
closed = 1;
nodes = (
(448,138,l),
(418,95.373,o),
(350,70,o),
(299,70,cs,{name = dv02;}),
(191,68.997,o),
(170,167.544,o),
(170,255.029,cs),
(170,373.688,o),
(211,430,o),
(297,430,cs,{name = sv01;}),
(352,430,o),
(410,406.657,o),
(442,362,c),
(510,430,l),
(468,483,o),
(392,520,o),
(294,520,cs),
(138,520,o),
(50,421,o),
(50,255,cs),
(50,79,o),
(138,-20,o),
(293,-20,cs,{name = dv01;}),
(393,-20,o),
(474,17,o),
(516,70,c)
);
}
);
width = 545;
},
{
anchors = (
{
name = top;
position = "{304, 520}";
},
{
name = bottom;
position = "{304, -20}";
}
);
layerId = "CA42EF1E-7CAB-449D-BA53-393A55112632";
shapes = (
{
closed = 1;
nodes = (
(454,123,l),
(418,76.361,o),
(357,50,o),
(295,50,cs,{name = dv02;}),
(198,50,o),
(150,118.342,o),
(150,255.025,cs),
(150,387.688,o),
(197,450,o),
(297,450,cs,{name = sv01;}),
(356,450,o),
(412,423.639,o),
(448,377,c),
(501,430,l),
(460,483,o),
(388,520,o),
(294,520,cs,{name = at01;}),
(144,520,o),
(60,421,o),
(60,255,cs),
(60,79,o),
(146,-20,o),
(295,-20,cs,{name = dv01;}),
(391,-20,o),
(466,17,o),
(507,70,c)
);
}
);
width = 545;
},
{
anchors = (
{
name = top;
position = "{304, 520}";
},
{
name = bottom;
position = "{304, -20}";
}
);
layerId = "F226A6F9-6034-4C5D-800B-D2697DD6BCB4";
shapes = (
{
closed = 1;
nodes = (
(467,106,l),
(421,50,o),
(363,31,o),
(300,31,cs,{name = dv02;}),
(185,31,o),
(130,105,o),
(130,253,cs),
(130,400,o),
(184,469,o),
(296,469,cs,{name = sv01;}),
(357,469,o),
(415,450,o),
(461,394,c),
(497,430,l),
(457,483,o),
(390,520,o),
(300,520,cs,{name = at01;}),
(150,520,o),
(70,421,o),
(70,250,cs),
(70,79,o),
(150,-20,o),
(300,-20,cs,{name = dv01;}),
(391,-20,o),
(463,17,o),
(503,70,c)
);
}
);
width = 545;
}
);
leftKerningGroup = a;
rightKerningGroup = b1;
unicode = 99;
},
{
glyphname = e;
layers = (
{
anchors = (
{
name = top;
position = "{271, 520}";
},
{
name = bottom;
position = "{271, -20}";
},
{
name = ogonek;
position = "{401, -3}";
}
);
layerId = "C97486CF-1A64-40DF-96D7-C8549AF742BF";
shapes = (
{
closed = 1;
nodes = (
(207,309,l),
(211,365.838,o),
(242.952,393,o),
(289.94,393,cs),
(336.928,393,o),
(363.241,365.838,o),
(367,309,c)
);
},
{
closed = 1;
nodes = (
(436,158,l),
(408.358,133.229,o),
(358.389,117,o),
(306.649,117,cs),
(238.619,117,o),
(207,147.667,o),
(207,209,c),
(554,209,l),
(575.474,390.707,o),
(470.467,520,o),
(283,520,cs),
(129.824,520,o),
(20,419,o),
(20,251,cs),
(20,81,o),
(134.724,-20,o),
(303.377,-20,cs),
(401.432,-20,o),
(469.089,14,o),
(524,70,c)
);
}
);
width = 570;
},
{
anchors = (
{
name = top;
position = "{271, 520}";
},
{
name = bottom;
position = "{271, -20}";
},
{
name = ogonek;
position = "{397, -3}";
}
);
layerId = "C6BB3B5A-2B00-4D31-935D-56D5DC5DA0A7";
shapes = (
{
closed = 1;
nodes = (
(193,316,l),
(199,366.041,o),
(235.09,397,o),
(290.829,397,cs),
(340.513,397,o),
(382.965,372.043,o),
(388,316,c)
);
},
{
closed = 1;
nodes = (
(437,158,l),
(409.294,123,o),
(362.09,103,o),
(305.427,103,cs),
(230.517,103,o),
(194.565,138,o),
(191,212,c),
(553,212,l),
(573.595,407.026,o),
(466.306,520,o),
(287,520,cs),
(133.803,520,o),
(23,420,o),
(23,254,cs),
(23,85,o),
(139.662,-20,o),
(304.361,-20,cs),
(394.554,-20,o),
(472.982,12,o),
(522,73,c)
);
}
);
width = 570;
},
{
anchors = (
{
name = top;
position = "{271, 520}";
},
{
name = bottom;
position = "{271, -20}";
},
{
name = ogonek;
position = "{389, -3}";
}
);
layerId = "D32243E2-577E-4253-BC9B-8FEA88FA4FFA";
shapes = (
{
closed = 1;
nodes = (
(178,312,l,{name = sv02;}),
(186,376.621,o),
(230.455,410,o),
(290.032,410,cs,{name = sv01;}),
(348.663,410,o),
(389.352,382.621,o),
(395,312,c,{name = dv04;})
);
},
{
closed = 1;
nodes = (
(438,145,l),
(408.368,109.352,o),
(361.529,90,o),
(305.132,90,cs,{name = sv01;}),
(220.059,90,o),
(178,134.336,o),
(178,222,c,{name = sv04;}),
(543,222,l,{name = dv03;}),
(553,419,o),
(451.778,520,o),
(291.895,520,cs,{name = at01;}),
(134.954,520,o),
(30,422,o),
(30,251,cs,{name = sv03;}),
(30,85,o),
(127.984,-20,o),
(298.476,-20,cs,{name = at01;}),
(389.601,-20,o),
(467.008,10,o),
(516,67,c)
);
}
);
width = 570;
},
{
anchors = (
{
name = top;
position = "{271, 520}";
},
{
name = bottom;
position = "{271, -20}";
},
{
name = ogonek;
position = "{393, -2}";
}
);
layerId = "6A0BD57D-C03B-4459-8D3D-7421EEB177BA";
shapes = (
{
closed = 1;
nodes = (
(162,307,l,{name = sv02;}),
(171.114,385.639,o),
(220.869,430,o),
(290.136,430,cs,{name = sv01;}),
(358.428,430,o),
(402.329,385.639,o),
(411,307,c,{name = dv04;})
);
},
{
closed = 1;
nodes = (
(439,138,l),
(408.962,94.358,o),
(346.948,70,o),
(288.81,70,cs,{name = dv02;}),
(201.603,70,o),
(158,125.353,o),
(158,227,c,{name = sv04;}),
(531,227,l,{name = dv03;}),
(541,424,o),
(443.769,520,o),
(289.891,520,cs,{name = at01;}),
(138.952,520,o),
(38,427,o),
(38,251,cs,{name = sv03;}),
(38,72,o),
(141.787,-20,o),
(294.53,-20,cs,{name = dv01;}),
(391.463,-20,o),
(465.877,17,o),
(507,70,c)
);
}
);
width = 570;
},
{
anchors = (
{
name = top;
position = "{271, 520}";
},
{
name = bottom;
position = "{271, -20}";
},
{
name = ogonek;
position = "{390, -3}";
}
);
layerId = "CA42EF1E-7CAB-449D-BA53-393A55112632";
shapes = (
{
closed = 1;
nodes = (
(141,296,l,{name = sv02;}),
(151,398.329,o),
(208.137,450,o),
(287.547,450,cs,{name = sv01;}),
(366.958,450,o),
(417.316,398.329,o),
(427,296,c,{name = dv04;})
);
},
{
closed = 1;
nodes = (
(443,123,l),
(408.029,76.361,o),
(355.571,50,o),
(293.4,50,cs,{name = dv02;}),
(186.543,50,o),
(137,128.419,o),
(137,237,c,{name = sv04;}),
(520,237,l,{name = dv03;}),
(530,421,o),
(436.76,520,o),
(287.907,520,cs,{name = at01;}),
(143.95,520,o),
(47,427,o),
(47,251,cs,{name = sv03;}),
(47,72,o),
(146.778,-20,o),
(292.532,-20,cs,{name = dv01;}),
(385.462,-20,o),
(455.893,17,o),
(496,70,c)
);
}
);
width = 570;
},
{
anchors = (
{
name = top;
position = "{271, 520}";
},
{
name = bottom;
position = "{271, -20}";
},
{
name = ogonek;
position = "{389, -3}";
}
);
layerId = "F226A6F9-6034-4C5D-800B-D2697DD6BCB4";
shapes = (
{
closed = 1;
nodes = (
(113,297,l,{name = sv02;}),
(125,415,o),
(177.333,470,o),
(282,470,cs,{name = sv01;}),
(381.821,470,o),
(427.37,420,o),
(439,297,c,{name = dv04;})
);
},
{
closed = 1;
nodes = (
(443,106,l),
(398.345,50,o),
(348.836,31,o),
(289.62,31,cs,{name = dv02;}),
(169.246,31,o),
(111,110,o),
(111,247,c,{name = sv04;}),
(503,247,l,{name = dv03;}),
(513,421,o),
(423.749,520,o),
(280.903,520,cs,{name = at01;}),
(142.948,520,o),
(50,427,o),
(50,254,cs,{name = sv03;}),
(50,72,o),
(152.608,-20,o),
(290.396,-20,cs,{name = dv01;}),
(377.369,-20,o),
(439.911,17,o),
(479,70,c)
);
}
);
width = 570;
}
);
leftKerningGroup = a;
rightKerningGroup = b1;
unicode = 101;
},
{
glyphname = f;
layers = (
{
anchors = (
{
name = top;
position = "{220, 750}";
},
{
name = bottom;
position = "{173, -20}";
}
);
layerId = "C97486CF-1A64-40DF-96D7-C8549AF742BF";
shapes = (
{
closed = 1;
nodes = (
(79,0,l),
(269,0,l),
(269,370,l),
(399,370,l),
(399,500,l),
(269,500,l),
(269,541,ls),
(269,578,o),
(285,612,o),
(328,612,cs),
(339,612,o),
(356,610,o),
(373,604,c),
(411,728,l),
(354,745.739,o),
(316,752,o),
(277,752,cs),
(148,752,o),
(79,684.733,o),
(79,568.271,cs),
(79,500,l),
(2,500,l),
(2,370,l),
(79,370,l)
);
}
);
width = 413;
},
{
anchors = (
{
name = top;
position = "{230, 750}";
},
{
name = bottom;
position = "{173, -20}";
}
);
layerId = "C6BB3B5A-2B00-4D31-935D-56D5DC5DA0A7";
shapes = (
{
closed = 1;
nodes = (
(89,0,l),
(254,0,l),
(254,380,l),
(390,380,l),
(390,500,l),
(254,500,l),
(254,547,ls),
(254,593,o),
(270,627,o),
(312,627,cs),
(324,627,o),
(348,624,o),
(366,617,c),
(396,728,l),
(337,746,o),
(307,751,o),
(273,751,cs),
(158,751,o),
(89,694,o),
(89,588,cs),
(89,500,l),
(12,500,l),
(12,380,l),
(89,380,l)
);
}
);
width = 413;
},
{
anchors = (
{
name = top;
position = "{234, 750}";
},
{
name = bottom;
position = "{173, -20}";
}
);
layerId = "D32243E2-577E-4253-BC9B-8FEA88FA4FFA";
shapes = (
{
closed = 1;
nodes = (
(99,0,l,{name = ab01;}),
(244,0,l),
(244,390,l,{name = sv01;}),
(389,390,l),
(389,500,l,{name = sv02;}),
(244,500,l),
(244,569,ls),
(244,620,o),
(263,637,o),
(300,637,cs,{name = dv01;}),
(316,637,o),
(347,634,o),
(365,627,c),
(386,728,l),
(327,746,o),
(297,751,o),
(266,751,cs,{name = dv02;}),
(154,751,o),
(99,684,o),
(99,588,cs),
(99,500,l,{name = dv04;}),
(12,500,l),
(12,390,l),
(99,390,l,{name = dv03;})
);
}
);
width = 413;
},
{
anchors = (
{
name = top;
position = "{240, 750}";
},
{
name = bottom;
position = "{173, -20}";
}
);
layerId = "6A0BD57D-C03B-4459-8D3D-7421EEB177BA";
shapes = (
{
closed = 1;
nodes = (
(114,0,l,{name = ab01;}),
(234,0,l),
(234,410,l,{name = sv01;}),
(380,410,l),
(380,500,l,{name = sv02;}),
(234,500,l),
(234,579,ls),
(234,633,o),
(252,660,o),
(290,660,cs,{name = dv01;}),
(304,660,o),
(338,656,o),
(361,648,c),
(376,728,l),
(321,745.217,o),
(293,750,o),
(264,750,cs,{name = dv02;}),
(169,750,o),
(114,698.207,o),
(114,607.57,cs),
(114,500,l,{name = dv04;}),
(22,500,l),
(22,410,l),
(114,410,l,{name = dv03;})
);
}
);
width = 413;
},
{
anchors = (
{
name = top;
position = "{240, 750}";
},
{
name = bottom;
position = "{173, -20}";
}
);
layerId = "CA42EF1E-7CAB-449D-BA53-393A55112632";
shapes = (
{
closed = 1;
nodes = (
(129,0,l,{name = ab01;}),
(219,0,l),
(219,430,l,{name = sv01;}),
(374,430,l),
(374,500,l,{name = sv02;}),
(219,500,l),
(219,609,ls),
(219,670,o),
(238,680,o),
(270,680,cs,{name = dv01;}),
(291,680,o),
(327,676,o),
(351,668,c),
(366,728,l),
(314,745.217,o),
(289,750,o),
(261,750,cs,{name = dv02;}),
(178,750,o),
(129,708.167,o),
(129,607.57,cs),
(129,500,l,{name = dv04;}),
(22,500,l),
(22,430,l),
(129,430,l,{name = dv03;})
);
}
);
width = 413;
},
{
anchors = (
{
name = top;
position = "{239, 750}";
},
{
name = bottom;
position = "{172, -20}";
}
);
layerId = "F226A6F9-6034-4C5D-800B-D2697DD6BCB4";
shapes = (
{
closed = 1;
nodes = (
(144,0,l,{name = ab01;}),
(204,0,l),
(204,450,l,{name = sv01;}),
(364,450,l),
(364,500,l,{name = sv02;}),
(204,500,l),
(204,617,ls),
(204,678,o),
(224,700,o),
(259,700,cs,{name = dv01;}),
(277,700,o),
(314,694,o),
(339,686,c),
(356,728,l),
(307,746,o),
(284,751,o),
(259,751,cs,{name = dv02;}),
(187,751,o),
(144,709,o),
(144,618,cs),
(144,500,l,{name = dv04;}),
(32,500,l),
(32,450,l),
(144,450,l,{name = dv03;})
);
}
);
width = 413;
}
);
leftKerningGroup = f;
rightKerningGroup = f1;
unicode = 102;
},
{
glyphname = r;
layers = (
{
anchors = (
{
name = top;
position = "{234, 520}";
},
{
name = bottom;
position = "{141, -20}";
}
);
layerId = "C97486CF-1A64-40DF-96D7-C8549AF742BF";
shapes = (
{
closed = 1;
nodes = (
(45,0,l),
(235,0,l),
(235,190,ls),
(235,316.667,o),
(289,380,o),
(405,380,c),
(405,520,l),
(311,519,o),
(274,476,o),
(235,404,c),
(235,500,l),
(45,500,l)
);
}
);
width = 410;
},
{
anchors = (
{
name = top;
position = "{224, 520}";
},
{
name = bottom;
position = "{131, -20}";
}
);
layerId = "C6BB3B5A-2B00-4D31-935D-56D5DC5DA0A7";
shapes = (
{
closed = 1;
nodes = (
(50,0,l),
(215,0,l),
(215,209,ls),
(215,338,o),
(270,397,o),
(387,397,c),
(387,520,l),
(304,519,o),
(258.065,486,o),
(215,400,c),
(215,500,l),
(50,500,l)
);
}
);
width = 410;
},
{
anchors = (
{
name = top;
position = "{229, 520}";
},
{
name = bottom;
position = "{126, -20}";
}
);
layerId = "D32243E2-577E-4253-BC9B-8FEA88FA4FFA";
shapes = (
{
closed = 1;
nodes = (
(55,0,l,{name = ab01;}),
(200,0,l),
(200,215,ls),
(200,342,o),
(239,410,o),
(376,410,c,{name = sv01;}),
(376,520,l,{name = at01;}),
(288,519,o),
(230,469,o),
(200,395,c,{name = iv01;}),
(200,500,l),
(55,500,l,{name = av01;})
);
}
);
width = 410;
},
{
anchors = (
{
name = top;
position = "{229, 520}";
},
{
name = bottom;
position = "{126, -20}";
}
);
layerId = "6A0BD57D-C03B-4459-8D3D-7421EEB177BA";
shapes = (
{
closed = 1;
nodes = (
(64,0,l,{name = ab01;}),
(184,0,l),
(184,210.981,ls),
(184,337.57,o),
(227,430,o),
(368,430,c,{name = sv01;}),
(368,520,l,{name = at01;}),
(272,519,o),
(214,466,o),
(184,390,c,{name = iv01;}),
(184,500,l),
(64,500,l,{name = av01;})
);
}
);
width = 410;
},
{
anchors = (
{
name = top;
position = "{229, 520}";
},
{
name = bottom;
position = "{126, -20}";
}
);
layerId = "CA42EF1E-7CAB-449D-BA53-393A55112632";
shapes = (
{
closed = 1;
nodes = (
(84,0,l,{name = ab01;}),
(174,0,l),
(174,226,ls),
(174,329,o),
(214,450,o),
(363,450,c,{name = sv01;}),
(363,520,l,{name = at01;}),
(260,518,o),
(199,465,o),
(174,385,c,{name = iv01;}),
(174,500,l),
(84,500,l,{name = av01;})
);
}
);
width = 410;
},
{
anchors = (
{
name = top;
position = "{229, 520}";
},
{
name = bottom;
position = "{126, -20}";
}
);
layerId = "F226A6F9-6034-4C5D-800B-D2697DD6BCB4";
shapes = (
{
closed = 1;
nodes = (
(94,0,l,{name = ab01;}),
(154,0,l),
(154,246,ls),
(154,380,o),
(234,470,o),
(359,470,c,{name = sv01;}),
(359,520,l,{name = at01;}),
(264,517,o),
(183,458,o),
(154,365,c,{name = iv01;}),
(154,500,l),
(94,500,l,{name = av01;})
);
}
);
width = 410;
}
);
leftKerningGroup = i;
rightKerningGroup = r;
unicode = 114;
},
{
glyphname = t;
layers = (
{
anchors = (
{
name = top;
position = "{175, 630}";
},
{
name = bottom;
position = "{240, -20}";
},
{
name = topright;
position = "{302, 700}";
}
);
layerId = "C97486CF-1A64-40DF-96D7-C8549AF742BF";
shapes = (
{
closed = 1;
nodes = (
(356.61,134.41,l),
(340.79,126.69,o),
(316.64,122,o),
(306,122,cs),
(281,122,o),
(270,143.03,o),
(270,209.13,cs),
(270,621,l),
(80,621,l),
(80.05,132.75,ls),
(80.05,26.75,o),
(130,-20,o),
(246,-20,cs),
(297.8,-20,o),
(340.29,-10.68,o),
(389.8,10.47,c)
);
},
{
closed = 1;
nodes = (
(3,370,l),
(385,370,l),
(385,500,l),
(3,500,l)
);
}
);
width = 395;
},
{
anchors = (
{
name = top;
position = "{175, 630}";
},
{
name = bottom;
position = "{230, -20}";
},
{
name = topright;
position = "{283, 700}";
}
);
layerId = "C6BB3B5A-2B00-4D31-935D-56D5DC5DA0A7";
shapes = (
{
closed = 1;
nodes = (
(355.69,121.85,l),
(333.18,111.36,o),
(308.27,106.99,o),
(295,107,cs),
(265,107,o),
(256,127,o),
(256,193,cs),
(256,620,l),
(91,620,l),
(91,132,ls),
(91,33,o),
(142,-20,o),
(251,-20,cs),
(293.23,-20,o),
(333.11,-9.44,o),
(385.89,9.11,c)
);
},
{
closed = 1;
nodes = (
(14,380,l),
(378,380,l),
(378,500,l),
(14,500,l)
);
}
);
width = 395;
},
{
anchors = (
{
name = top;
position = "{175, 630}";
},
{
name = bottom;
position = "{230, -20}";
},
{
name = topright;
position = "{272, 700}";
}
);
layerId = "D32243E2-577E-4253-BC9B-8FEA88FA4FFA";
shapes = (
{
closed = 1;
nodes = (
(352.72,108.75,l),
(321.82,95.7,o),
(299.26,90,o),
(282,90,cs,{name = dv02;}),
(249,90,o),
(243,110.03,o),
(243,175.12,cs),
(243,620,l,{name = ab01;}),
(98,620,l),
(98,132,ls),
(98,30,o),
(143,-20,o),
(254,-20,cs,{name = dv01;}),
(299.58,-20,o),
(327.49,-10.57,o),
(379.93,6.99,c)
);
},
{
closed = 1;
nodes = (
(11,390,l,{name = dv03;}),
(368,390,l),
(368,500,l),
(11,500,l,{name = dv04;})
);
}
);
width = 395;
},
{
anchors = (
{
name = top;
position = "{167, 630}";
},
{
name = bottom;
position = "{220, -20}";
},
{
name = topright;
position = "{262, 700}";
}
);
layerId = "6A0BD57D-C03B-4459-8D3D-7421EEB177BA";
shapes = (
{
closed = 1;
nodes = (
(345.41,93.91,l),
(326.55,81.72,o),
(298.32,73,o),
(273,73,cs,{name = dv02;}),
(237,73,o),
(225,90,o),
(225,161,cs),
(225,620,l,{name = ab01;}),
(105,620,l),
(105,132,ls),
(105,30,o),
(147,-20,o),
(254,-20,cs,{name = dv01;}),
(286.27,-20,o),
(316.25,-15.36,o),
(368.83,6.36,c)
);
},
{
closed = 1;
nodes = (
(13,410,l,{name = dv03;}),
(355,410,l),
(355,500,l),
(13,500,l,{name = dv04;})
);
}
);
width = 395;
},
{
anchors = (
{
name = top;
position = "{165, 630}";
},
{
name = bottom;
position = "{220, -20}";
},
{
name = topright;
position = "{254, 700}";
}
);
layerId = "CA42EF1E-7CAB-449D-BA53-393A55112632";
shapes = (
{
closed = 1;
nodes = (
(330.57,73.3,l),
(309.42,61.43,o),
(278.89,53,o),
(254,53,cs,{name = dv02;}),
(220,53,o),
(210,68,o),
(210,141,cs),
(210,620,l,{name = ab01;}),
(120,620,l),
(120,132,ls),
(120,30,o),
(156,-20,o),
(245,-20,cs,{name = dv01;}),
(272.01,-20,o),
(299.02,-16.48,o),
(348.75,5.64,c)
);
},
{
closed = 1;
nodes = (
(13,430,l,{name = dv03;}),
(345,430,l),
(345,500,l),
(13,500,l,{name = dv04;})
);
}
);
width = 395;
},
{
anchors = (
{
name = top;
position = "{166, 630}";
},
{
name = bottom;
position = "{225, -20}";
},
{
name = topright;
position = "{242, 700}";
}
);
layerId = "F226A6F9-6034-4C5D-800B-D2697DD6BCB4";
shapes = (
{
closed = 1;
nodes = (
(320.64,53.06,l),
(298.45,41.32,o),
(266.37,33,o),
(244,33,cs,{name = dv02;}),
(205,33,o),
(195,58,o),
(195,131,cs),
(195,620,l,{name = ab01;}),
(135,620,l),
(135,132,ls),
(135,25,o),
(164,-20,o),
(242,-20,cs,{name = dv01;}),
(266.95,-20,o),
(284.83,-14.11,o),
(332.7,7.86,c)
);
},
{
closed = 1;
nodes = (
(23,450,l,{name = dv03;}),
(335,450,l),
(335,500,l),
(23,500,l,{name = dv04;})
);
}
);
width = 395;
}
);
leftKerningGroup = f;
rightKerningGroup = l;
unicode = 116;
},
{
glyphname = k;
layers = (
{
anchors = (
{
name = bottom;
position = "{277, -20}";
},
{
name = top;
position = "{140, 750}";
}
);
layerId = "C97486CF-1A64-40DF-96D7-C8549AF742BF";
shapes = (
{
closed = 1;
nodes = (
(44,0,l),
(234,0,l),
(234,750,l),
(44,750,l)
);
},
{
closed = 1;
nodes = (
(104,189,l),
(268,189,l,{name = iv01;}),
(360,0,l,{name = ab02;}),
(572,0,l),
(438,263,l),
(559,500,l,{name = av02;}),
(360,500,l),
(282,323,l,{name = iv02;}),
(102,323,l)
);
}
);
width = 574;
},
{
anchors = (
{
name = bottom;
position = "{277, -20}";
},
{
name = top;
position = "{126, 750}";
}
);
layerId = "C6BB3B5A-2B00-4D31-935D-56D5DC5DA0A7";
shapes = (
{
closed = 1;
nodes = (
(45,0,l),
(210,0,l),
(210,750,l),
(45,750,l)
);
},
{
closed = 1;
nodes = (
(100,199,l),
(286,199,l,{name = iv01;}),
(379,0,l,{name = ab02;}),
(567,0,l),
(426,265,l),
(551,500,l,{name = av02;}),
(378,500,l),
(290,319,l,{name = iv02;}),
(99,319,l)
);
}
);
width = 574;
},
{
anchors = (
{
name = bottom;
position = "{277, -20}";
},
{
name = top;
position = "{126, 750}";
}
);
layerId = "D32243E2-577E-4253-BC9B-8FEA88FA4FFA";
shapes = (
{
closed = 1;
nodes = (
(55,0,l,{name = sv03;}),
(200,0,l,{name = ab02;}),
(200,750,l,{name = ab01;}),
(55,750,l)
);
},
{
closed = 1;
nodes = (
(93,207,l),
(300,207,l,{name = iv01;}),
(392,0,l,{name = ab02;}),
(557,0,l),
(416,265,l),
(541,500,l,{name = av02;}),
(391,500,l),
(306,317,l,{name = iv02;}),
(92,317,l)
);
}
);
width = 574;
},
{
anchors = (
{
name = bottom;
position = "{277, -20}";
},
{
name = top;
position = "{120, 750}";
}
);
layerId = "6A0BD57D-C03B-4459-8D3D-7421EEB177BA";
shapes = (
{
closed = 1;
nodes = (
(56,0,l,{name = sv03;}),
(176,0,l,{name = ab02;}),
(176,750,l,{name = ab01;}),
(56,750,l)
);
},
{
closed = 1;
nodes = (
(81,222,l),
(309,222,l,{name = iv01;}),
(408,0,l,{name = ab02;}),
(544,0,l),
(404,263,l),
(530,500,l,{name = av02;}),
(405,500,l),
(315,312,l,{name = iv02;}),
(74,312,l)
);
}
);
width = 574;
},
{
anchors = (
{
name = bottom;
position = "{277, -20}";
},
{
name = top;
position = "{116, 750}";
}
);
layerId = "CA42EF1E-7CAB-449D-BA53-393A55112632";
shapes = (
{
closed = 1;
nodes = (
(67,0,l,{name = sv03;}),
(157,0,l,{name = ab02;}),
(157,750,l,{name = ab01;}),
(67,750,l)
);
},
{
closed = 1;
nodes = (
(81,234,l),
(328,234,l,{name = iv01;}),
(432,0,l,{name = ab02;}),
(534,0,l),
(394,263,l),
(520,500,l,{name = av02;}),
(425,500,l),
(332,299,l,{name = iv02;}),
(74,299,l)
);
}
);
width = 574;
},
{
anchors = (
{
name = bottom;
position = "{277, -20}";
},
{
name = top;
position = "{112, 750}";
}
);
layerId = "F226A6F9-6034-4C5D-800B-D2697DD6BCB4";
shapes = (
{
closed = 1;
nodes = (
(75,0,l),
(135,0,l,{name = ab02;}),
(135,750,l,{name = ab01;}),
(75,750,l,{name = sh01;})
);
},
{
closed = 1;
nodes = (
(94,243,l),
(348,243,l,{name = iv01;}),
(456,0,l,{name = ab02;}),
(527,0,l),
(387,263,l),
(513,500,l,{name = av02;}),
(451,500,l),
(353,293,l,{name = iv02;}),
(87,293,l)
);
}
);
width = 574;
}
);
leftKerningGroup = b;
rightKerningGroup = k;
unicode = 107;
},
{
glyphname = a;
layers = (
{
anchors = (
{
name = top;
position = "{301, 520}";
},
{
name = bottom;
position = "{293, -20}";
},
{
name = ogonek;
position = "{555, -3}";
}
);
layerId = "C97486CF-1A64-40DF-96D7-C8549AF742BF";
shapes = (
{
closed = 1;
nodes = (
(373,0,l),
(563,0,l),
(563,500,l),
(373,500,l)
);
},
{
closed = 1;
nodes = (
(346,-20,o),
(405,82,o),
(405,258,cs),
(405,432,o),
(347,520,o),
(226,520,cs),
(91,520,o),
(20,411,o),
(20,262,cs),
(20,99,o),
(105,-20,o),
(230,-20,cs)
);
},
{
closed = 1;
nodes = (
(242,116,o),
(210,167,o),
(210,251,cs),
(210,334,o),
(241,383,o),
(292,383,cs),
(343,383,o),
(373,335,o),
(373,251,cs),
(373,168,o),
(344,116,o),
(293,116,cs)
);
}
);
width = 606;
},
{
anchors = (
{
name = top;
position = "{300, 520}";
},
{
name = bottom;
position = "{294, -20}";
},
{
name = ogonek;
position = "{555, -3}";
}
);
layerId = "C6BB3B5A-2B00-4D31-935D-56D5DC5DA0A7";
shapes = (
{
closed = 1;
nodes = (
(397,0,l),
(562,0,l),
(562,500,l),
(397,500,l)
);
},
{
closed = 1;
nodes = (
(359,-20,o),
(433,90,o),
(433,257,cs),
(433,421,o),
(361,520,o),
(232,520,cs),
(97,520,o),
(20,411,o),
(20,259,cs),
(20,99,o),
(106,-20,o),
(235,-20,cs)
);
},
{
closed = 1;
nodes = (
(231.218,106,o),
(185,168,o),
(185,256,cs),
(185,341,o),
(227.199,393,o),
(290.498,393,cs),
(355.806,393,o),
(397,337,o),
(397,251,cs),
(397,166,o),
(356.81,106,o),
(294.517,106,cs)
);
}
);
width = 606;
},
{
anchors = (
{
name = top;
position = "{293, 520}";
},
{
name = bottom;
position = "{293, -20}";
},
{
name = ogonek;
position = "{538, -1}";
}
);
layerId = "D32243E2-577E-4253-BC9B-8FEA88FA4FFA";
shapes = (
{
closed = 1;
nodes = (
(398,0,l,{name = ab01;}),
(543,0,l),
(543,500,l,{name = av01;}),
(398,500,l)
);
},
{
closed = 1;
nodes = (
(365,-20,o),
(430,79,o),
(430,248,cs),
(430,423,o),
(360,520,o),
(232,520,cs,{name = at01;}),
(97,520,o),
(21,411,o),
(21,259,cs),
(21,99,o),
(106,-20,o),
(241,-20,cs,{name = dv01;})
);
},
{
closed = 1;
nodes = (
(211,90,o),
(166,152.194,o),
(166,254.514,cs),
(166,353.824,o),
(209,410,o),
(279,410,cs,{name = sv01;}),
(353,410,o),
(398,348.809,o),
(398,250.502,cs),
(398,153.197,o),
(354,90,o),
(282,90,cs,{name = dv02;})
);
}
);
width = 606;
},
{
anchors = (
{
name = top;
position = "{294, 520}";
},
{
name = bottom;
position = "{294, -20}";
},
{
name = ogonek;
position = "{527, -2}";
}
);
layerId = "6A0BD57D-C03B-4459-8D3D-7421EEB177BA";
shapes = (
{
closed = 1;
nodes = (
(413,0,l,{name = ab01;}),
(533,0,l),
(533,500,l,{name = av01;}),
(413,500,l)
);
},
{
closed = 1;
nodes = (
(368,-20,o),
(435,78,o),
(435,248,cs),
(435,422,o),
(365,520,o),
(235,520,cs,{name = at01;}),
(98,520,o),
(21,411,o),
(21,259,cs),
(21,99,o),
(107,-20,o),
(244,-20,cs,{name = dv01;})
);
},
{
closed = 1;
nodes = (
(192,70,o),
(141,143.203,o),
(141,256.518,cs),
(141,365.822,o),
(189,430,o),
(269,430,cs,{name = sv01;}),
(354,430,o),
(413,357.799,o),
(413,253.51,cs),
(413,151.226,o),
(356,70,o),
(272,70,cs,{name = dv02;})
);
}
);
width = 606;
},
{
anchors = (
{
name = top;
position = "{293, 520}";
},
{
name = bottom;
position = "{294, -20}";
},
{
name = ogonek;
position = "{520, -3}";
}
);
layerId = "CA42EF1E-7CAB-449D-BA53-393A55112632";
shapes = (
{
closed = 1;
nodes = (
(433,0,l,{name = ab01;}),
(523,0,l),
(523,500,l,{name = av01;}),
(433,500,l)
);
},
{
closed = 1;
nodes = (
(386,-20,o),
(455,78,o),
(455,248,cs),
(455,422,o),
(383,520,o),
(250,520,cs,{name = at01;}),
(110,520,o),
(31,411,o),
(31,259,cs),
(31,99,o),
(119,-20,o),
(259,-20,cs,{name = dv01;})
);
},
{
closed = 1;
nodes = (
(180,50,o),
(121,131.203,o),
(121,256.516,cs),
(121,377.82,o),
(177,450,o),
(269,450,cs,{name = sv01;}),
(366,450,o),
(433,369.799,o),
(433,253.509,cs),
(433,139.223,o),
(368,50,o),
(272,50,cs,{name = dv02;})
);
}
);
width = 606;
},
{
anchors = (
{
name = top;
position = "{294, 520}";
},
{
name = bottom;
position = "{293, -20}";
},
{
name = ogonek;
position = "{513, -3}";
}
);
layerId = "F226A6F9-6034-4C5D-800B-D2697DD6BCB4";
shapes = (
{
closed = 1;
nodes = (
(453,0,l,{name = ab01;}),
(513,0,l,{name = sh01;}),
(513,500,l,{name = av01;}),
(453,500,l)
);
},
{
closed = 1;
nodes = (
(395,-20,o),
(469,81,o),
(469,252,cs),
(469,422,o),
(395,520,o),
(262,520,cs,{name = at01;}),
(122,520,o),
(41,411,o),
(41,257,cs),
(41,99,o),
(126,-20,o),
(266,-20,cs,{name = dv01;})
);
},
{
closed = 1;
nodes = (
(168,30,o),
(101,119,o),
(101,256,cs),
(101,389,o),
(165,469,o),
(269,469,cs,{name = sv01;}),
(378,469,o),
(453,381,o),
(453,253,cs),
(453,124,o),
(378,30,o),
(272,30,cs,{name = dv02;})
);
}
);
width = 606;
}
);
leftKerningGroup = a;
rightKerningGroup = a1;
unicode = 97;
},
{
glyphname = v;
layers = (
{
anchors = (
{
name = top;
position = "{265, 520}";
},
{
name = bottom;
position = "{265, -20}";
}
);
layerId = "C97486CF-1A64-40DF-96D7-C8549AF742BF";
shapes = (
{
closed = 1;
nodes = (
(173,0,l),
(357,0,l),
(539,500,l),
(337,500,l),
(265,228,l),
(193,500,l),
(-9,500,l)
);
}
);
width = 530;
},
{
anchors = (
{
name = top;
position = "{265, 520}";
},
{
name = bottom;
position = "{265, -20}";
}
);
layerId = "C6BB3B5A-2B00-4D31-935D-56D5DC5DA0A7";
shapes = (
{
closed = 1;
nodes = (
(187,0,l),
(343,0,l),
(535,500,l),
(359,500,l),
(265,215,l),
(171,500,l),
(-5,500,l)
);
}
);
width = 530;
},
{
anchors = (
{
name = top;
position = "{265, 520}";
},
{
name = bottom;
position = "{265, -20}";
}
);
layerId = "D32243E2-577E-4253-BC9B-8FEA88FA4FFA";
shapes = (
{
closed = 1;
nodes = (
(197,0,l),
(333,0,l),
(525,500,l),
(371,500,l),
(265,179,l),
(159,500,l),
(5,500,l)
);
}
);
width = 530;
},
{
anchors = (
{
name = top;
position = "{265, 520}";
},
{
name = bottom;
position = "{265, -20}";
}
);
layerId = "6A0BD57D-C03B-4459-8D3D-7421EEB177BA";
shapes = (
{
closed = 1;
nodes = (
(207,0,l),
(323,0,l),
(515,500,l),
(386,500,l),
(265,148,l),
(144,500,l),
(15,500,l)
);
}
);
width = 530;
},
{
anchors = (
{
name = top;
position = "{265, 520}";
},
{
name = bottom;
position = "{265, -20}";
}
);
layerId = "CA42EF1E-7CAB-449D-BA53-393A55112632";
shapes = (
{
closed = 1;
nodes = (
(217,0,l),
(313,0,l),
(505,500,l),
(406,500,l),
(265,92,l),
(124,500,l),
(25,500,l)
);
}
);
width = 530;
},
{
anchors = (
{
name = top;
position = "{265, 520}";
},
{
name = bottom;
position = "{265, -20}";
}
);
layerId = "F226A6F9-6034-4C5D-800B-D2697DD6BCB4";
shapes = (
{
closed = 1;
nodes = (
(227,0,l),
(303,0,l),
(495,500,l),
(431,500,l),
(265,48,l),
(99,500,l),
(35,500,l)
);
}
);
width = 530;
}
);
leftKerningGroup = v;
rightKerningGroup = v1;
unicode = 118;
},
{
glyphname = w;
layers = (
{
anchors = (
{
name = top;
position = "{427, 520}";
},
{
name = bottom;
position = "{427, -20}";
}
);
layerId = "C97486CF-1A64-40DF-96D7-C8549AF742BF";
shapes = (
{
closed = 1;
nodes = (
(183,0,l),
(356,0,l),
(427,306,l),
(498,0,l),
(671,0,l),
(853,500,l),
(652,500,l),
(580,228,l),
(513,500,l),
(341,500,l),
(274,228,l),
(202,500,l),
(1,500,l)
);
}
);
width = 854;
},
{
anchors = (
{
name = top;
position = "{427, 520}";
},
{
name = bottom;
position = "{427, -20}";
}
);
layerId = "C6BB3B5A-2B00-4D31-935D-56D5DC5DA0A7";
shapes = (
{
closed = 1;
nodes = (
(197,0,l),
(343,0,l),
(427,313,l),
(511,0,l),
(657,0,l),
(839,500,l),
(663,500,l),
(579,216,l),
(500,500,l),
(354,500,l),
(275,216,l),
(191,500,l),
(15,500,l)
);
}
);
width = 854;
},
{
anchors = (
{
name = top;
position = "{427, 520}";
},
{
name = bottom;
position = "{427, -20}";
}
);
layerId = "D32243E2-577E-4253-BC9B-8FEA88FA4FFA";
shapes = (
{
closed = 1;
nodes = (
(206,0,l),
(332,0,l),
(427,341,l),
(522,0,l),
(648,0,l),
(830,500,l),
(676,500,l),
(580,179,l),
(487,500,l),
(367,500,l),
(274,179,l),
(178,500,l),
(24,500,l)
);
}
);
width = 854;
},
{
anchors = (
{
name = top;
position = "{427, 520}";
},
{
name = bottom;
position = "{427, -20}";
}
);
layerId = "6A0BD57D-C03B-4459-8D3D-7421EEB177BA";
shapes = (
{
closed = 1;
nodes = (
(209,0,l),
(315,0,l),
(427,385,l),
(539,0,l),
(645,0,l),
(827,500,l),
(698,500,l),
(585,148,l),
(477,500,l),
(377,500,l),
(269,148,l),
(156,500,l),
(27,500,l)
);
}
);
width = 854;
},
{
anchors = (
{
name = top;
position = "{427, 520}";
},
{
name = bottom;
position = "{427, -20}";
}
);
layerId = "CA42EF1E-7CAB-449D-BA53-393A55112632";
shapes = (
{
closed = 1;
nodes = (
(219,0,l),
(305,0,l),
(427,404,l),
(549,0,l),
(635,0,l),
(817,500,l),
(718,500,l),
(590,108,l),
(467,500,l),
(387,500,l),
(264,108,l),
(136,500,l),
(37,500,l)
);
}
);
width = 854;
},
{
anchors = (
{
name = top;
position = "{427, 520}";
},
{
name = bottom;
position = "{427, -20}";
}
);
layerId = "F226A6F9-6034-4C5D-800B-D2697DD6BCB4";
shapes = (
{
closed = 1;
nodes = (
(229,0,l),
(295,0,l),
(427,437,l),
(559,0,l),
(625,0,l),
(807,500,l),
(743,500,l),
(590,60,l),
(455,500,l),
(399,500,l),
(264,60,l),
(111,500,l),
(47,500,l)
);
}
);
width = 854;
}
);
leftKerningGroup = v;
rightKerningGroup = v1;
unicode = 119;
},
{
glyphname = x;
layers = (
{
anchors = (
{
name = top;
position = "{287, 520}";
},
{
name = bottom;
position = "{287, -20}";
}
);
layerId = "C97486CF-1A64-40DF-96D7-C8549AF742BF";
shapes = (
{
closed = 1;
nodes = (
(12,0,l,{name = ab01;}),
(226,0,l),
(288,154,l,{name = iv01;}),
(348,0,l,{name = ab02;}),
(564,0,l),
(412.491,261.985,l),
(404.497,236.012,l),
(557,500,l,{name = av02;}),
(351,500,l),
(273.652,324.41,l,{name = iv02;}),
(304.348,324.41,l),
(227,500,l),
(21,500,l,{name = av01;}),
(173.503,236.012,l),
(163.509,261.985,l)
);
}
);
width = 574;
},
{
anchors = (
{
name = top;
position = "{287, 520}";
},
{
name = bottom;
position = "{287, -20}";
}
);
layerId = "C6BB3B5A-2B00-4D31-935D-56D5DC5DA0A7";
shapes = (
{
closed = 1;
nodes = (
(22,0,l,{name = ab01;}),
(203,0,l),
(287,170,l,{name = iv01;}),
(371,0,l,{name = ab02;}),
(554,0,l),
(402.491,261.985,l),
(392.497,236.012,l),
(545,500,l,{name = av02;}),
(366,500,l),
(271.199,303.63,l,{name = iv02;}),
(304.801,303.63,l),
(210,500,l),
(31,500,l,{name = av01;}),
(183.503,236.012,l),
(173.509,261.985,l)
);
}
);
width = 574;
},
{
anchors = (
{
name = top;
position = "{287, 520}";
},
{
name = bottom;
position = "{287, -20}";
}
);
layerId = "D32243E2-577E-4253-BC9B-8FEA88FA4FFA";
shapes = (
{
closed = 1;
nodes = (
(32,0,l,{name = ab01;}),
(189,0,l),
(287,184,l,{name = iv01;}),
(385,0,l,{name = ab02;}),
(544,0,l),
(392.491,261.985,l),
(382.497,236.012,l),
(535,500,l,{name = av02;}),
(376,500,l),
(270.949,302.761,l,{name = iv02;}),
(305.051,302.761,l),
(200,500,l),
(41,500,l,{name = av01;}),
(193.503,236.012,l),
(183.509,261.985,l)
);
}
);
width = 574;
},
{
anchors = (
{
name = top;
position = "{287, 520}";
},
{
name = bottom;
position = "{287, -20}";
}
);
layerId = "6A0BD57D-C03B-4459-8D3D-7421EEB177BA";
shapes = (
{
closed = 1;
nodes = (
(42,0,l,{name = ab01;}),
(179,0,l),
(287,203,l,{name = iv01;}),
(395,0,l,{name = ab02;}),
(534,0,l),
(382.491,261.985,l),
(372.497,236.012,l),
(525,500,l,{name = av02;}),
(386,500,l),
(270.955,283.757,l,{name = iv02;}),
(305.045,283.757,l),
(190,500,l),
(51,500,l,{name = av01;}),
(203.503,236.012,l),
(193.509,261.985,l)
);
}
);
width = 574;
},
{
anchors = (
{
name = top;
position = "{287, 520}";
},
{
name = bottom;
position = "{287, -20}";
}
);
layerId = "CA42EF1E-7CAB-449D-BA53-393A55112632";
shapes = (
{
closed = 1;
nodes = (
(52,0,l,{name = ab01;}),
(159,0,l),
(287,222,l,{name = iv01;}),
(415,0,l,{name = ab02;}),
(524,0,l),
(360.059,262.726,l),
(350.059,237.274,l),
(514,500,l,{name = av02;}),
(406,500,l),
(270.508,265.005,l,{name = iv02;}),
(305.492,265.005,l),
(170,500,l),
(61,500,l,{name = av01;}),
(232.17,236.42,l),
(222.18,261.573,l)
);
}
);
width = 574;
},
{
anchors = (
{
name = top;
position = "{287, 520}";
},
{
name = bottom;
position = "{287, -20}";
}
);
layerId = "F226A6F9-6034-4C5D-800B-D2697DD6BCB4";
shapes = (
{
closed = 1;
nodes = (
(62,0,l,{name = ab01;}),
(136,0,l),
(289,236,l,{name = iv01;}),
(442,0,l,{name = ab02;}),
(514,0,l),
(350.059,262.726,l),
(340.059,237.274,l),
(504,500,l,{name = av02;}),
(434,500,l),
(271.827,250.422,l,{name = iv02;}),
(308.173,250.422,l),
(146,500,l),
(71,500,l,{name = av01;}),
(242.17,236.42,l),
(232.18,261.573,l)
);
}
);
width = 574;
}
);
leftKerningGroup = x;
rightKerningGroup = k;
unicode = 120;
},
{
glyphname = y;
layers = (
{
anchors = (
{
name = top;
position = "{263, 520}";
},
{
name = bottom;
position = "{446, -79}";
}
);
layerId = "C97486CF-1A64-40DF-96D7-C8549AF742BF";
shapes = (
{
closed = 1;
nodes = (
(-4,-198,l),
(43,-212,o),
(72,-221,o),
(144,-221,cs),
(263,-221,o),
(305,-168,o),
(336,-78,cs),
(535,500,l),
(334,500,l),
(198,-18,ls),
(183.624,-72.757,o),
(132,-85,o),
(93,-85,cs),
(78,-85,o),
(52,-82,o),
(33,-73,c)
);
},
{
closed = 1;
nodes = (
(156,0,l),
(313,0,l),
(192,500,l),
(-9,500,l)
);
}
);
width = 526;
},
{
anchors = (
{
name = top;
position = "{263, 520}";
},
{
name = bottom;
position = "{448, -69}";
}
);
layerId = "C6BB3B5A-2B00-4D31-935D-56D5DC5DA0A7";
shapes = (
{
closed = 1;
nodes = (
(24,-198,l),
(71,-212,o),
(95,-221,o),
(163,-221,cs),
(249,-221,o),
(302,-178,o),
(336,-78,cs),
(535,500,l),
(360,500,l),
(198,-29,ls),
(183.462,-76.473,o),
(149,-96,o),
(111,-96,cs),
(91,-96,o),
(75,-93,o),
(56,-84,c)
);
},
{
closed = 1;
nodes = (
(153,0,l),
(309,0,l),
(166,500,l),
(-9,500,l)
);
}
);
width = 526;
},
{
anchors = (
{
name = top;
position = "{263, 520}";
},
{
name = bottom;
position = "{441, -63}";
}
);
layerId = "D32243E2-577E-4253-BC9B-8FEA88FA4FFA";
shapes = (
{
closed = 1;
nodes = (
(31,-198,l),
(78,-212,o),
(92,-221,o),
(160,-221,cs,{name = dv01;}),
(250,-221,o),
(300,-180,o),
(335,-78,cs),
(534,500,l,{name = av01;}),
(382,500,l),
(218,-35,ls),
(200.76,-91.239,o),
(170,-108,o),
(118,-108,cs,{name = dv02;}),
(103,-108,o),
(75,-105,o),
(56,-96,c)
);
},
{
closed = 1;
nodes = (
(164,0,l),
(296,0,l),
(144,500,l,{name = av02;}),
(-8,500,l)
);
}
);
width = 526;
},
{
anchors = (
{
name = top;
position = "{263, 520}";
},
{
name = bottom;
position = "{430, -59}";
}
);
layerId = "6A0BD57D-C03B-4459-8D3D-7421EEB177BA";
shapes = (
{
closed = 1;
nodes = (
(34,-198,l),
(79,-212,o),
(93,-221,o),
(158,-221,cs,{name = dv01;}),
(250,-221,o),
(288,-163,o),
(317,-78,cs),
(516,500,l,{name = av01;}),
(389,500,l),
(231,-17,ls),
(210.667,-83.532,o),
(184,-128,o),
(128,-128,cs,{name = dv02;}),
(111,-128,o),
(78,-123,o),
(56,-114,c)
);
},
{
closed = 1;
nodes = (
(182,0,l),
(289,0,l),
(137,500,l,{name = av02;}),
(10,500,l)
);
}
);
width = 526;
},
{
anchors = (
{
name = top;
position = "{263, 520}";
},
{
name = bottom;
position = "{430, -59}";
}
);
layerId = "CA42EF1E-7CAB-449D-BA53-393A55112632";
shapes = (
{
closed = 1;
nodes = (
(46,-198,l),
(88,-212,o),
(101,-221,o),
(158,-221,cs,{name = dv01;}),
(240,-221,o),
(275,-171,o),
(307,-78,cs),
(506,500,l,{name = av01;}),
(411,500,l),
(229,-57.857,ls),
(209.651,-117.164,o),
(187,-151,o),
(143,-151,cs,{name = dv02;}),
(125,-151,o),
(93,-145.643,o),
(68,-136,c)
);
},
{
closed = 1;
nodes = (
(192,0,l),
(277,0,l),
(115,500,l,{name = av02;}),
(20,500,l)
);
}
);
width = 526;
},
{
anchors = (
{
name = top;
position = "{263, 520}";
},
{
name = bottom;
position = "{422, -59}";
}
);
layerId = "F226A6F9-6034-4C5D-800B-D2697DD6BCB4";
shapes = (
{
closed = 1;
nodes = (
(56,-198,l),
(93,-214,o),
(121,-221,o),
(153,-221,cs,{name = dv01;}),
(240,-221,o),
(261.553,-170.845,o),
(294,-78,cs),
(496,500,l,{name = av01;}),
(433,500,l),
(243,-57,ls),
(214.31,-141.106,o),
(189,-170,o),
(148,-170,cs,{name = dv02;}),
(130,-170,o),
(96,-164,o),
(71,-155,c)
);
},
{
closed = 1;
nodes = (
(212,0,l),
(270,0,l),
(93,500,l,{name = av02;}),
(30,500,l)
);
}
);
width = 526;
}
);
rightKerningGroup = y;
unicode = 121;
},
{
glyphname = z;
layers = (
{
anchors = (
{
name = top;
position = "{246, 520}";
},
{
name = bottom;
position = "{236, -20}";
}
);
layerId = "C97486CF-1A64-40DF-96D7-C8549AF742BF";
shapes = (
{
closed = 1;
nodes = (
(21,0,l),
(452,0,l),
(452,130,l),
(220,130,l),
(452,380,l),
(452,500,l),
(41,500,l),
(41,370,l),
(253,370,l),
(21,120,l)
);
}
);
width = 473;
},
{
anchors = (
{
name = top;
position = "{241, 520}";
},
{
name = bottom;
position = "{241, -20}";
}
);
layerId = "C6BB3B5A-2B00-4D31-935D-56D5DC5DA0A7";
shapes = (
{
closed = 1;
nodes = (
(21,0,l),
(452,0,l),
(452,120,l),
(204,120,l),
(452,389.71,l),
(452,500,l),
(41,500,l),
(41,380,l),
(269,380,l),
(21,110.29,l)
);
}
);
width = 473;
},
{
anchors = (
{
name = top;
position = "{246, 520}";
},
{
name = bottom;
position = "{236, -20}";
}
);
layerId = "D32243E2-577E-4253-BC9B-8FEA88FA4FFA";
shapes = (
{
closed = 1;
nodes = (
(23,0,l,{name = ab01;}),
(450,0,l),
(450,110,l,{name = sv01;}),
(198,110,l),
(450,414,l),
(450,500,l),
(43,500,l,{name = dv02;}),
(43,390,l,{name = dv01;}),
(275,390,l),
(23,86,l)
);
}
);
width = 473;
},
{
anchors = (
{
name = top;
position = "{246, 520}";
},
{
name = bottom;
position = "{236, -20}";
}
);
layerId = "6A0BD57D-C03B-4459-8D3D-7421EEB177BA";
shapes = (
{
closed = 1;
nodes = (
(23,0,l,{name = ab01;}),
(450,0,l),
(450,90,l,{name = sv01;}),
(163,90,l),
(450,420,l),
(450,500,l),
(43,500,l,{name = dv02;}),
(43,410,l,{name = dv01;}),
(310,410,l),
(23,80,l)
);
}
);
width = 473;
},
{
anchors = (
{
name = top;
position = "{246, 520}";
},
{
name = bottom;
position = "{236, -20}";
}
);
layerId = "CA42EF1E-7CAB-449D-BA53-393A55112632";
shapes = (
{
closed = 1;
nodes = (
(33,0,l,{name = ab01;}),
(440,0,l),
(440,70,l,{name = sv01;}),
(138,70,l),
(440,440,l),
(440,500,l),
(53,500,l,{name = dv02;}),
(53,430,l,{name = dv01;}),
(335,430,l),
(33,60,l)
);
}
);
width = 473;
},
{
anchors = (
{
name = top;
position = "{246, 520}";
},
{
name = bottom;
position = "{236, -20}";
}
);
layerId = "F226A6F9-6034-4C5D-800B-D2697DD6BCB4";
shapes = (
{
closed = 1;
nodes = (
(43,0,l,{name = ab01;}),
(430,0,l),
(430,50,l,{name = sv01;}),
(116,50,l),
(430,458,l),
(430,500,l),
(63,500,l,{name = dv02;}),
(63,450,l,{name = dv01;}),
(357,450,l),
(43,43,l)
);
}
);
width = 473;
}
);
leftKerningGroup = z1;
rightKerningGroup = z;
unicode = 122;
},
{
glyphname = E;
layers = (
{
anchors = (
{
name = top;
position = "{265, 719}";
},
{
name = bottom;
position = "{276, -20}";
},
{
name = ogonek;
position = "{488, -2}";
},
{
name = topgr;
position = "{-60, 500}";
}
);
layerId = "C97486CF-1A64-40DF-96D7-C8549AF742BF";
shapes = (
{
closed = 1;
nodes = (
(58,0,l),
(495,0,l),
(495,140,l),
(248,140,l),
(248,297,l),
(455,297,l),
(455,437,l),
(248,437,l),
(248,560,l),
(480,560,l),
(480,700,l),
(58,700,l)
);
}
);
width = 530;
},
{
anchors = (
{
name = top;
position = "{265, 719}";
},
{
name = bottom;
position = "{276, -20}";
},
{
name = ogonek;
position = "{488, -2}";
},
{
name = topgr;
position = "{-60, 500}";
}
);
layerId = "C6BB3B5A-2B00-4D31-935D-56D5DC5DA0A7";
shapes = (
{
closed = 1;
nodes = (
(58,0,l),
(495,0,l),
(495,130,l),
(224,130,l),
(224,300,l),
(455,300,l),
(455,430,l),
(224,430,l),
(224,570,l),
(480,570,l),
(480,700,l),
(58,700,l)
);
}
);
width = 530;
},
{
anchors = (
{
name = top;
position = "{265, 719}";
},
{
name = bottom;
position = "{276, -20}";
},
{
name = ogonek;
position = "{490, -2}";
},
{
name = topgr;
position = "{-50, 500}";
}
);
layerId = "D32243E2-577E-4253-BC9B-8FEA88FA4FFA";
shapes = (
{
closed = 1;
nodes = (
(58,0,l),
(495,0,l,{name = ab01;}),
(495,120,l,{name = sv01;}),
(204,120,l),
(204,305,l,{name = dv01;}),
(455,305,l),
(455,425,l),
(204,425,l,{name = dv02;}),
(204,580,l,{name = sv02;}),
(480,580,l),
(480,700,l,{name = at01;}),
(58,700,l)
);
}
);
width = 530;
},
{
anchors = (
{
name = top;
position = "{265, 719}";
},
{
name = bottom;
position = "{265, -20}";
},
{
name = ogonek;
position = "{479, -2}";
},
{
name = topgr;
position = "{-38, 500}";
}
);
layerId = "6A0BD57D-C03B-4459-8D3D-7421EEB177BA";
shapes = (
{
closed = 1;
nodes = (
(64,0,l),
(485,0,l,{name = ab01;}),
(485,100,l,{name = sv01;}),
(184,100,l),
(184,315,l,{name = dv01;}),
(445,315,l),
(445,415,l),
(184,415,l,{name = dv02;}),
(184,600,l,{name = sv02;}),
(470,600,l),
(470,700,l,{name = at01;}),
(64,700,l)
);
}
);
width = 530;
},
{
anchors = (
{
name = top;
position = "{265, 719}";
},
{
name = bottom;
position = "{260, -20}";
},
{
name = ogonek;
position = "{472, -2}";
},
{
name = topgr;
position = "{-28, 500}";
}
);
layerId = "CA42EF1E-7CAB-449D-BA53-393A55112632";
shapes = (
{
closed = 1;
nodes = (
(74,0,l),
(475,0,l,{name = ab01;}),
(475,80,l,{name = sv01;}),
(164,80,l),
(164,325,l,{name = dv01;}),
(435,325,l),
(435,405,l),
(164,405,l,{name = dv02;}),
(164,620,l,{name = sv02;}),
(461,620,l),
(461,700,l,{name = at01;}),
(74,700,l)
);
}
);
width = 530;
},
{
anchors = (
{
name = top;
position = "{265, 719}";
},
{
name = bottom;
position = "{265, -20}";
},
{
name = ogonek;
position = "{465, -3}";
},
{
name = topgr;
position = "{-22, 500}";
}
);
layerId = "F226A6F9-6034-4C5D-800B-D2697DD6BCB4";
shapes = (
{
closed = 1;
nodes = (
(84,0,l),
(465,0,l,{name = ab01;}),
(465,54,l,{name = sv01;}),
(144,54,l),
(144,338,l,{name = dv01;}),
(425,338,l),
(425,392,l),
(144,392,l,{name = dv02;}),
(144,646,l,{name = sv02;}),
(453,646,l),
(453,700,l,{name = at01;}),
(84,700,l)
);
}
);
width = 530;
}
);
leftKerningGroup = B;
rightKerningGroup = E;
unicode = 69;
},
{
glyphname = g;
layers = (
{
anchors = (
{
name = top;
position = "{288, 520}";
},
{
name = bottom;
position = "{283, -220}";
}
);
layerId = "C97486CF-1A64-40DF-96D7-C8549AF742BF";
shapes = (
{
closed = 1;
nodes = (
(338,-20,o),
(395,92,o),
(395,255,cs),
(395,417,o),
(339,520,o),
(216,520,cs),
(89,520,o),
(20,411,o),
(20,262,cs),
(20,99,o),
(103,-20,o),
(222,-20,cs)
);
},
{
closed = 1;
nodes = (
(240,116,o),
(210,167,o),
(210,251,cs),
(210,334,o),
(239,383,o),
(287,383,cs),
(334,383,o),
(362,335,o),
(362,251,cs),
(362,168,o),
(335,116,o),
(287,116,cs)
);
},
{
closed = 1;
nodes = (
(27,-130,l),
(83,-186,o),
(154,-220,o),
(259,-220,cs),
(439,-220,o),
(552,-120,o),
(552,52,cs),
(552,500,l),
(362,500,l),
(362,73.644,ls),
(362,-42.364,o),
(311,-85,o),
(239,-85,cs),
(191,-85,o),
(141,-67.979,o),
(115,-42,c)
);
}
);
width = 605;
},
{
anchors = (
{
name = bottom;
position = "{279, -220}";
},
{
name = top;
position = "{288, 520}";
}
);
layerId = "C6BB3B5A-2B00-4D31-935D-56D5DC5DA0A7";
shapes = (
{
closed = 1;
nodes = (
(348,-20,o),
(418,90,o),
(418,257,cs),
(418,421,o),
(350,520,o),
(225,520,cs),
(94,520,o),
(20,411,o),
(20,259,cs),
(20,99,o),
(103,-20,o),
(228,-20,cs)
);
},
{
closed = 1;
nodes = (
(226.204,106,o),
(185,165,o),
(185,257,cs),
(185,344,o),
(222.184,393,o),
(282.483,393,cs),
(347.806,393,o),
(386,337,o),
(386,251,cs),
(386,166,o),
(348.811,106,o),
(287.507,106,cs)
);
},
{
closed = 1;
nodes = (
(39,-127,l),
(89.098,-188,o),
(169.254,-220,o),
(268.447,-220,cs),
(442.787,-220,o),
(551,-121,o),
(551,52,cs),
(551,500,l),
(386,500,l),
(386,68,ls),
(386,-56,o),
(326,-97,o),
(250,-97,cs),
(197,-97,o),
(151,-77,o),
(124,-42,c)
);
}
);
width = 605;
},
{
anchors = (
{
name = bottom;
position = "{278, -220}";
},
{
name = top;
position = "{292, 520}";
}
);
layerId = "D32243E2-577E-4253-BC9B-8FEA88FA4FFA";
shapes = (
{
closed = 1;
nodes = (
(366,-20,o),
(428,89,o),
(428,253,cs),
(428,423,o),
(361,520,o),
(236,520,cs,{name = at01;}),
(104,520,o),
(30,411,o),
(30,259,cs),
(30,99,o),
(113,-20,o),
(242,-20,cs,{name = dv01;})
);
},
{
closed = 1;
nodes = (
(215.181,90,o),
(175,151.191,o),
(175,254.514,cs),
(175,355.831,o),
(214.176,410,o),
(281.48,410,cs,{name = sv01;}),
(353.805,410,o),
(396,348.809,o),
(396,250.502,cs),
(396,153.197,o),
(354.81,90,o),
(284.493,90,cs,{name = dv02;})
);
},
{
closed = 1;
nodes = (
(48,-133,l),
(98.101,-190,o),
(177.262,-220,o),
(271.452,-220,cs,{name = at01;}),
(439.793,-220,o),
(541,-124,o),
(541,52,cs),
(541,500,l,{name = av01;}),
(396,500,l),
(396,64.286,ls),
(396,-59.918,o),
(345,-110,o),
(260,-110,cs,{name = sv01;}),
(207,-110,o),
(157,-90.648,o),
(126,-55,c)
);
}
);
width = 605;
},
{
anchors = (
{
name = bottom;
position = "{291, -220}";
},
{
name = top;
position = "{297, 520}";
}
);
layerId = "6A0BD57D-C03B-4459-8D3D-7421EEB177BA";
shapes = (
{
closed = 1;
nodes = (
(379,-20,o),
(444,88,o),
(444,253,cs),
(444,422,o),
(376,520,o),
(249,520,cs,{name = at01;}),
(115,520,o),
(40,411,o),
(40,259,cs),
(40,99,o),
(124,-20,o),
(255,-20,cs,{name = dv01;})
);
},
{
closed = 1;
nodes = (
(210,70,o),
(160,143.203,o),
(160,256.518,cs),
(160,365.822,o),
(206,430,o),
(283,430,cs,{name = sv01;}),
(364,430,o),
(421,357.799,o),
(421,253.51,cs),
(421,151.226,o),
(366,70,o),
(286,70,cs,{name = dv02;})
);
},
{
closed = 1;
nodes = (
(67,-130,l),
(109,-183,o),
(185,-220,o),
(287,-220,cs),
(455,-220,o),
(541,-121,o),
(541,52,cs),
(541,500,l,{name = av01;}),
(421,500,l),
(421,50.286,ls),
(421,-98.951,o),
(358,-130,o),
(286,-130,cs),
(223,-130,o),
(166,-105.642,o),
(135,-62,c)
);
}
);
width = 605;
},
{
anchors = (
{
name = bottom;
position = "{298, -220}";
},
{
name = top;
position = "{307, 520}";
}
);
layerId = "CA42EF1E-7CAB-449D-BA53-393A55112632";
shapes = (
{
closed = 1;
nodes = (
(398,-20,o),
(464,88,o),
(464,253,cs),
(464,422,o),
(395,520,o),
(265,520,cs,{name = at01;}),
(127,520,o),
(50,411,o),
(50,259,cs),
(50,99,o),
(136,-20,o),
(270,-20,cs,{name = dv01;})
);
},
{
closed = 1;
nodes = (
(198,50,o),
(140,131.203,o),
(140,256.516,cs),
(140,377.82,o),
(194,450,o),
(283,450,cs,{name = sv01;}),
(376,450,o),
(441,369.799,o),
(441,254.511,cs),
(441,141.228,o),
(378,50,o),
(285,50,cs,{name = dv02;})
);
},
{
closed = 1;
nodes = (
(76,-130,l),
(117,-183,o),
(189,-220,o),
(288,-220,cs,{name = dv01;}),
(449,-220,o),
(531,-121,o),
(531,52,cs),
(531,500,l,{name = av01;}),
(441,500,l),
(441,36.287,ls),
(441,-117.951,o),
(373,-150,o),
(293,-150,cs,{name = dv02;}),
(220,-150,o),
(165,-123.639,o),
(129,-77,c)
);
}
);
width = 605;
},
{
anchors = (
{
name = bottom;
position = "{298, -220}";
},
{
name = top;
position = "{307, 520}";
}
);
layerId = "F226A6F9-6034-4C5D-800B-D2697DD6BCB4";
shapes = (
{
closed = 1;
nodes = (
(397,-20,o),
(473,82,o),
(473,255,cs),
(473,419,o),
(404,520,o),
(274,520,cs,{name = at01;}),
(144,520,o),
(60,420,o),
(60,260,cs),
(60,94,o),
(150,-20,o),
(277,-20,cs,{name = dv01;})
);
},
{
closed = 1;
nodes = (
(186,30,o),
(120,119,o),
(120,256,cs),
(120,389,o),
(182,469,o),
(283,469,cs,{name = sv01;}),
(388,469,o),
(461,381,o),
(461,254,cs),
(461,127,o),
(387,30,o),
(284,30,cs,{name = dv02;})
);
},
{
closed = 1;
nodes = (
(90,-130,l),
(130,-183,o),
(198,-220,o),
(290,-220,cs,{name = at01;}),
(441,-220,o),
(521,-121,o),
(521,52,cs),
(521,500,l,{name = av01;}),
(461,500,l),
(461,43,ls),
(461,-97,o),
(395,-169,o),
(281,-169,cs,{name = sv01;}),
(223,-169,o),
(172,-150,o),
(126,-94,c)
);
}
);
width = 605;
}
);
leftKerningGroup = a;
unicode = 103;
},
{
glyphname = D;
layers = (
{
anchors = (
{
name = top;
position = "{318, 719}";
},
{
name = bottom;
position = "{318, -20}";
}
);
layerId = "C97486CF-1A64-40DF-96D7-C8549AF742BF";
shapes = (
{
closed = 1;
nodes = (
(248,140,l),
(248,560,l),
(321.431,560,ls),
(440.508,560,o),
(506,489,o),
(506,359,cs),
(506,224,o),
(435.546,140,o),
(321.431,140,cs)
);
},
{
closed = 1;
nodes = (
(58,0,l),
(342,0,ls),
(555,0,o),
(699,141,o),
(699,350,cs),
(699,558,o),
(554,700,o),
(342,700,cs),
(58,700,l)
);
}
);
width = 722;
},
{
anchors = (
{
name = top;
position = "{318, 719}";
},
{
name = bottom;
position = "{318, -20}";
}
);
layerId = "C6BB3B5A-2B00-4D31-935D-56D5DC5DA0A7";
shapes = (
{
closed = 1;
nodes = (
(223,130,l),
(223,570,l),
(319,570,ls),
(447,570,o),
(526,481,o),
(526,352,cs),
(526,218,o),
(441,130,o),
(319,130,cs)
);
},
{
closed = 1;
nodes = (
(58,0,l),
(340,0,ls),
(551,0,o),
(694,141,o),
(694,350,cs),
(694,558,o),
(550,700,o),
(340,700,cs),
(58,700,l)
);
}
);
width = 722;
},
{
anchors = (
{
name = top;
position = "{318, 719}";
},
{
name = bottom;
position = "{318, -20}";
}
);
layerId = "D32243E2-577E-4253-BC9B-8FEA88FA4FFA";
shapes = (
{
closed = 1;
nodes = (
(213,120,l,{name = sv01;}),
(213,580,l,{name = sv02;}),
(317.661,580,ls),
(454.257,580,o),
(541,484,o),
(541,349,cs),
(541,209,o),
(448.274,120,o),
(317.661,120,cs)
);
},
{
closed = 1;
nodes = (
(68,0,l,{name = ab01;}),
(332,0,ls),
(545,0,o),
(689,141,o),
(689,350,cs),
(689,558,o),
(544,700,o),
(332,700,cs,{name = at01;}),
(68,700,l)
);
}
);
width = 722;
},
{
anchors = (
{
name = top;
position = "{318, 719}";
},
{
name = bottom;
position = "{318, -20}";
}
);
layerId = "6A0BD57D-C03B-4459-8D3D-7421EEB177BA";
shapes = (
{
closed = 1;
nodes = (
(194,100,l,{name = sv01;}),
(194,600,l,{name = sv02;}),
(310.635,600,ls),
(457.056,600,o),
(555,499,o),
(555,349,cs),
(555,197,o),
(454.088,100,o),
(310.635,100,cs)
);
},
{
closed = 1;
nodes = (
(74,0,l,{name = ab01;}),
(331,0,ls),
(538,0,o),
(679,141,o),
(679,350,cs),
(679,558,o),
(537,700,o),
(331,700,cs,{name = at01;}),
(74,700,l)
);
}
);
width = 722;
},
{
anchors = (
{
name = top;
position = "{318, 719}";
},
{
name = bottom;
position = "{318, -20}";
}
);
layerId = "CA42EF1E-7CAB-449D-BA53-393A55112632";
shapes = (
{
closed = 1;
nodes = (
(174,80,l,{name = sv01;}),
(174,620,l,{name = sv02;}),
(324.439,620,ls),
(480.916,620,o),
(575,518,o),
(575,349,cs),
(575,181,o),
(480.916,80,o),
(324.439,80,cs)
);
},
{
closed = 1;
nodes = (
(84,0,l,{name = ab01;}),
(333,0,ls),
(533,0,o),
(669,142,o),
(669,350,cs),
(669,557,o),
(532,700,o),
(333,700,cs,{name = at01;}),
(84,700,l)
);
}
);
width = 722;
},
{
anchors = (
{
name = top;
position = "{318, 719}";
},
{
name = bottom;
position = "{318, -20}";
}
);
layerId = "F226A6F9-6034-4C5D-800B-D2697DD6BCB4";
shapes = (
{
closed = 1;
nodes = (
(154,54,l,{name = sv01;}),
(154,646,l,{name = sv02;}),
(322,646,ls),
(493,646,o),
(598,534,o),
(598,346,cs),
(598,165,o),
(493,54,o),
(322,54,cs)
);
},
{
closed = 1;
nodes = (
(94,0,l,{name = ab01;}),
(335,0,ls),
(527,0,o),
(659,142,o),
(659,350,cs),
(659,557,o),
(526,700,o),
(335,700,cs,{name = at01;}),
(94,700,l)
);
}
);
width = 722;
}
);
leftKerningGroup = B;
rightKerningGroup = C;
unicode = 68;
},
{
glyphname = F;
layers = (
{
anchors = (
{
name = top;
position = "{260, 719}";
},
{
name = bottom;
position = "{271, -20}";
}
);
layerId = "C97486CF-1A64-40DF-96D7-C8549AF742BF";
shapes = (
{
closed = 1;
nodes = (
(58,0,l),
(248,0,l),
(248,270,l),
(463,270,l),
(463,410,l),
(248,410,l),
(248,560,l),
(488,560,l),
(488,700,l),
(58,700,l)
);
}
);
width = 510;
},
{
anchors = (
{
name = top;
position = "{260, 719}";
},
{
name = bottom;
position = "{271, -20}";
}
);
layerId = "C6BB3B5A-2B00-4D31-935D-56D5DC5DA0A7";
shapes = (
{
closed = 1;
nodes = (
(58,0,l),
(224,0,l),
(224,280,l),
(454,280,l),
(454,410,l),
(224,410,l),
(224,570,l),
(485,570,l),
(485,700,l),
(58,700,l)
);
}
);
width = 510;
},
{
anchors = (
{
name = top;
position = "{260, 719}";
},
{
name = bottom;
position = "{271, -20}";
}
);
layerId = "D32243E2-577E-4253-BC9B-8FEA88FA4FFA";
shapes = (
{
closed = 1;
nodes = (
(58,0,l),
(204,0,l,{name = ab01;}),
(204,290,l,{name = dv01;}),
(442,290,l),
(442,410,l),
(204,410,l,{name = dv02;}),
(204,580,l,{name = sv01;}),
(482,580,l),
(482,700,l,{name = at01;}),
(58,700,l,{name = dh01;})
);
}
);
width = 510;
},
{
anchors = (
{
name = top;
position = "{260, 719}";
},
{
name = bottom;
position = "{271, -20}";
}
);
layerId = "6A0BD57D-C03B-4459-8D3D-7421EEB177BA";
shapes = (
{
closed = 1;
nodes = (
(64,0,l),
(184,0,l,{name = ab01;}),
(184,300,l,{name = dv01;}),
(433,300,l),
(433,400,l),
(184,400,l,{name = dv02;}),
(184,600,l,{name = sv01;}),
(478,600,l),
(478,700,l,{name = at01;}),
(64,700,l,{name = dh01;})
);
}
);
width = 510;
},
{
anchors = (
{
name = top;
position = "{260, 719}";
},
{
name = bottom;
position = "{271, -20}";
}
);
layerId = "CA42EF1E-7CAB-449D-BA53-393A55112632";
shapes = (
{
closed = 1;
nodes = (
(74,0,l),
(164,0,l,{name = ab01;}),
(164,310,l,{name = dv01;}),
(435,310,l),
(435,390,l),
(164,390,l,{name = dv02;}),
(164,620,l,{name = sv01;}),
(475,620,l),
(475,700,l,{name = at01;}),
(74,700,l,{name = dh01;})
);
}
);
width = 510;
},
{
anchors = (
{
name = top;
position = "{260, 719}";
},
{
name = bottom;
position = "{271, -20}";
}
);
layerId = "F226A6F9-6034-4C5D-800B-D2697DD6BCB4";
shapes = (
{
closed = 1;
nodes = (
(84,0,l),
(144,0,l,{name = ab01;}),
(144,322,l,{name = dv01;}),
(433,322,l),
(433,376,l),
(144,376,l,{name = dv02;}),
(144,646,l,{name = sv01;}),
(473,646,l),
(473,700,l,{name = at01;}),
(84,700,l,{name = dh01;})
);
}
);
width = 510;
}
);
leftKerningGroup = B;
rightKerningGroup = F;
unicode = 70;
},
{
glyphname = A;
layers = (
{
anchors = (
{
name = top;
position = "{328, 719}";
},
{
name = bottom;
position = "{328, -20}";
},
{
name = ogonek;
position = "{650, -2}";
},
{
name = topgr;
position = "{66, 500}";
}
);
layerId = "C97486CF-1A64-40DF-96D7-C8549AF742BF";
shapes = (
{
closed = 1;
nodes = (
(193,106,l),
(459,106,l),
(415,236,l),
(237,236,l)
);
},
{
closed = 1;
nodes = (
(-3,0,l),
(196,0,l),
(379,700,l),
(224,700,l)
);
},
{
closed = 1;
nodes = (
(459,0,l),
(658,0,l),
(431,700,l),
(276,700,l)
);
}
);
width = 655;
},
{
anchors = (
{
name = top;
position = "{328, 719}";
},
{
name = bottom;
position = "{328, -20}";
},
{
name = ogonek;
position = "{640, -2}";
},
{
name = topgr;
position = "{76, 500}";
}
);
layerId = "C6BB3B5A-2B00-4D31-935D-56D5DC5DA0A7";
shapes = (
{
closed = 1;
nodes = (
(193,114,l),
(459,114,l),
(415,234,l),
(237,234,l)
);
},
{
closed = 1;
nodes = (
(7,0,l),
(181,0,l),
(372,700,l),
(234,700,l)
);
},
{
closed = 1;
nodes = (
(474,0,l),
(648,0,l),
(421,700,l),
(283,700,l)
);
}
);
width = 655;
},
{
anchors = (
{
name = top;
position = "{328, 719}";
},
{
name = bottom;
position = "{328, -20}";
},
{
name = ogonek;
position = "{632, -1}";
},
{
name = topgr;
position = "{86, 500}";
}
);
layerId = "D32243E2-577E-4253-BC9B-8FEA88FA4FFA";
shapes = (
{
closed = 1;
nodes = (
(183,119,l,{name = dv01;}),
(469,119,l),
(435,234,l,{name = dv03;}),
(217,234,l,{name = dv02;})
);
},
{
closed = 1;
nodes = (
(17,0,l),
(170,0,l),
(368,700,l),
(244,700,l)
);
},
{
closed = 1;
nodes = (
(485,0,l),
(638,0,l),
(411,700,l),
(287,700,l)
);
}
);
width = 655;
},
{
anchors = (
{
name = top;
position = "{328, 719}";
},
{
name = bottom;
position = "{328, -20}";
},
{
name = ogonek;
position = "{627, -2}";
},
{
name = topgr;
position = "{96, 500}";
}
);
layerId = "6A0BD57D-C03B-4459-8D3D-7421EEB177BA";
shapes = (
{
closed = 1;
nodes = (
(143,131,l,{name = dv01;}),
(509,131,l),
(475,226,l,{name = dv03;}),
(177,226,l,{name = dv02;})
);
},
{
closed = 1;
nodes = (
(22,0,l),
(148,0,l),
(357,700,l),
(249,700,l)
);
},
{
closed = 1;
nodes = (
(507,0,l),
(633,0,l),
(406,700,l),
(298,700,l)
);
}
);
width = 655;
},
{
anchors = (
{
name = top;
position = "{328, 719}";
},
{
name = bottom;
position = "{328, -20}";
},
{
name = ogonek;
position = "{620, -3}";
},
{
name = topgr;
position = "{106, 500}";
}
);
layerId = "CA42EF1E-7CAB-449D-BA53-393A55112632";
shapes = (
{
closed = 1;
nodes = (
(143,141,l,{name = dv01;}),
(509,141,l),
(475,216,l,{name = dv03;}),
(177,216,l,{name = dv02;})
);
},
{
closed = 1;
nodes = (
(32,0,l),
(128,0,l),
(342,700,l),
(259,700,l)
);
},
{
closed = 1;
nodes = (
(527,0,l),
(623,0,l),
(396,700,l),
(313,700,l)
);
}
);
width = 655;
},
{
anchors = (
{
name = top;
position = "{328, 719}";
},
{
name = bottom;
position = "{328, -20}";
},
{
name = ogonek;
position = "{613, -3}";
},
{
name = topgr;
position = "{106, 500}";
}
);
layerId = "F226A6F9-6034-4C5D-800B-D2697DD6BCB4";
shapes = (
{
closed = 1;
nodes = (
(123,154,l,{name = dv01;}),
(529,154,l),
(495,204,l,{name = dv03;}),
(157,204,l,{name = dv02;})
);
},
{
closed = 1;
nodes = (
(42,0,l),
(105,0,l),
(332,700,l),
(269,700,l)
);
},
{
closed = 1;
nodes = (
(550,0,l),
(613,0,l),
(386,700,l),
(323,700,l)
);
}
);
width = 655;
}
);
leftKerningGroup = A1;
rightKerningGroup = A;
unicode = 65;
},
{
glyphname = B;
layers = (
{
anchors = (
{
name = top;
position = "{308, 719}";
},
{
name = bottom;
position = "{328, -20}";
}
);
layerId = "C97486CF-1A64-40DF-96D7-C8549AF742BF";
shapes = (
{
closed = 1;
nodes = (
(68,0,l),
(356,0,ls),
(518,0,o),
(604,97,o),
(604,205,cs),
(604,328,o),
(494,372,o),
(365,372,c),
(493,372,o),
(558,426,o),
(558,518,cs),
(558,614,o),
(487,700,o),
(316,700,cs),
(68,700,l)
);
},
{
closed = 1;
nodes = (
(258,140,l),
(258,560,l),
(284,560,ls),
(343,560,o),
(369,538,o),
(369,501,cs),
(369,461,o),
(338,436,o),
(292,436,cs),
(100,436,l),
(100,300,l),
(286,300,ls),
(373,300,o),
(416,287,o),
(416,223,cs),
(416,163,o),
(377,140,o),
(301,140,cs)
);
}
);
width = 634;
},
{
anchors = (
{
name = top;
position = "{308, 719}";
},
{
name = bottom;
position = "{328, -20}";
}
);
layerId = "C6BB3B5A-2B00-4D31-935D-56D5DC5DA0A7";
shapes = (
{
closed = 1;
nodes = (
(68,0,l),
(356,0,ls),
(518,0,o),
(604,98,o),
(604,206,cs),
(604,329,o),
(494,372,o),
(365,372,c),
(493,372,o),
(558,426,o),
(558,518,cs),
(558,614,o),
(487,700,o),
(316,700,cs),
(68,700,l)
);
},
{
closed = 1;
nodes = (
(234,130,l),
(234,570,l),
(288,570,ls),
(367,570,o),
(391,542,o),
(391,505,cs),
(391,464,o),
(362,431,o),
(306,431,cs),
(100,431,l),
(100,305,l),
(310,305,ls),
(397,305,o),
(437,282,o),
(437,219,cs),
(437,159,o),
(401,130,o),
(325,130,cs)
);
}
);
width = 634;
},
{
anchors = (
{
name = top;
position = "{308, 719}";
},
{
name = bottom;
position = "{328, -20}";
}
);
layerId = "D32243E2-577E-4253-BC9B-8FEA88FA4FFA";
shapes = (
{
closed = 1;
nodes = (
(68,0,l,{name = ab01;}),
(356,0,ls),
(518,0,o),
(604,98,o),
(604,206,cs),
(604,329,o),
(494,372,o),
(365,372,c,{name = dv02;}),
(493,372,o),
(558,426,o),
(558,518,cs),
(558,614,o),
(487,700,o),
(316,700,cs,{name = at01;}),
(68,700,l)
);
},
{
closed = 1;
nodes = (
(214,120,l),
(214,580,l,{name = sv02;}),
(288,580,ls),
(375,580,o),
(412,564,o),
(412,507,cs,{name = sv04;}),
(412,449,o),
(373,426,o),
(306,426,cs,{name = sv03;}),
(100,426,l),
(100,310,l),
(310,310,ls,{name = dv01;}),
(421,310,o),
(458,287,o),
(458,217,cs),
(458,148,o),
(422,120,o),
(325,120,cs,{name = sv01;})
);
}
);
width = 634;
},
{
anchors = (
{
name = top;
position = "{298, 719}";
},
{
name = bottom;
position = "{328, -20}";
}
);
layerId = "6A0BD57D-C03B-4459-8D3D-7421EEB177BA";
shapes = (
{
closed = 1;
nodes = (
(78,0,l,{name = ab01;}),
(356,0,ls),
(495,0,o),
(594,83,o),
(594,201,cs),
(594,311,o),
(509,372,o),
(355,372,c,{name = dv02;}),
(482,372,o),
(548,425,o),
(548,525,cs),
(548,636,o),
(467,700,o),
(332,700,cs,{name = at01;}),
(78,700,l)
);
},
{
closed = 1;
nodes = (
(198,100,l),
(198,600,l,{name = sv02;}),
(306,600,ls),
(388,600,o),
(429,581,o),
(429,518,cs,{name = sv04;}),
(429,457,o),
(390,416,o),
(306,416,cs,{name = sv03;}),
(100,416,l),
(100,320,l),
(310,320,ls,{name = dv01;}),
(429,320,o),
(475,282,o),
(475,210,cs),
(475,140,o),
(432,100,o),
(324,100,cs,{name = sv01;})
);
}
);
width = 634;
},
{
anchors = (
{
name = top;
position = "{288, 719}";
},
{
name = bottom;
position = "{328, -20}";
}
);
layerId = "CA42EF1E-7CAB-449D-BA53-393A55112632";
shapes = (
{
closed = 1;
nodes = (
(88,0,l,{name = ab01;}),
(356,0,ls),
(489,0,o),
(584,73,o),
(584,196,cs),
(584,312,o),
(499,372,o),
(345,372,c,{name = dv02;}),
(472,372,o),
(538,425,o),
(538,526,cs),
(538,636,o),
(461,700,o),
(332,700,cs,{name = at01;}),
(88,700,l)
);
},
{
closed = 1;
nodes = (
(178,80,l),
(178,620,l,{name = sv02;}),
(317,620,ls),
(407,620,o),
(447,589,o),
(447,520,cs,{name = sv04;}),
(447,451,o),
(406,406,o),
(317,406,cs,{name = sv03;}),
(100,406,l),
(100,330,l),
(328,330,ls,{name = dv01;}),
(448,330,o),
(493,287,o),
(493,207,cs),
(493,127,o),
(447,80,o),
(327,80,cs,{name = sv01;})
);
}
);
width = 634;
},
{
anchors = (
{
name = top;
position = "{285, 719}";
},
{
name = bottom;
position = "{328, -20}";
}
);
layerId = "F226A6F9-6034-4C5D-800B-D2697DD6BCB4";
shapes = (
{
closed = 1;
nodes = (
(98,0,l,{name = ab01;}),
(356,0,ls),
(483,0,o),
(574,83,o),
(574,199,cs),
(574,311,o),
(489,372,o),
(335,372,c,{name = dv02;}),
(462,372,o),
(528,425,o),
(528,528,cs),
(528,636,o),
(455,700,o),
(332,700,cs,{name = at01;}),
(98,700,l)
);
},
{
closed = 1;
nodes = (
(158,54,l),
(158,646,l,{name = sv02;}),
(326,646,ls),
(417,646,o),
(467,613,o),
(467,531,cs,{name = sv04;}),
(467,447,o),
(415,396,o),
(324,396,cs,{name = sv03;}),
(110,396,l),
(110,346,l),
(334,346,ls,{name = dv01;}),
(452,346,o),
(513,296,o),
(513,199,cs),
(513,102,o),
(453,54,o),
(334,54,cs,{name = sv01;})
);
}
);
width = 634;
}
);
leftKerningGroup = B;
rightKerningGroup = B1;
unicode = 66;
},
{
glyphname = H;
layers = (
{
anchors = (
{
name = bottom;
position = "{358, -20}";
},
{
name = top;
position = "{358, 719}";
},
{
name = topgr;
position = "{-60, 500}";
}
);
layerId = "C97486CF-1A64-40DF-96D7-C8549AF742BF";
shapes = (
{
closed = 1;
nodes = (
(58,0,l),
(248,0,l),
(248,300,l),
(468,300,l),
(468,0,l),
(658,0,l),
(658,700,l),
(468,700,l),
(468,440,l),
(248,440,l),
(248,700,l),
(58,700,l)
);
}
);
width = 716;
},
{
anchors = (
{
name = bottom;
position = "{358, -20}";
},
{
name = top;
position = "{358, 719}";
},
{
name = topgr;
position = "{-60, 500}";
}
);
layerId = "C6BB3B5A-2B00-4D31-935D-56D5DC5DA0A7";
shapes = (
{
closed = 1;
nodes = (
(57,0,l),
(222,0,l),
(222,305,l),
(494,305,l),
(494,0,l),
(659,0,l),
(659,700,l),
(494,700,l),
(494,435,l),
(222,435,l),
(222,700,l),
(57,700,l)
);
}
);
width = 716;
},
{
anchors = (
{
name = bottom;
position = "{358, -20}";
},
{
name = top;
position = "{358, 719}";
},
{
name = topgr;
position = "{-50, 500}";
}
);
layerId = "D32243E2-577E-4253-BC9B-8FEA88FA4FFA";
shapes = (
{
closed = 1;
nodes = (
(67,0,l,{name = ab01;}),
(212,0,l),
(212,310,l,{name = dv01;}),
(504,310,l),
(504,0,l,{name = ab02;}),
(649,0,l),
(649,700,l,{name = at01;}),
(504,700,l),
(504,430,l),
(212,430,l,{name = dv02;}),
(212,700,l,{name = at02;}),
(67,700,l)
);
}
);
width = 716;
},
{
anchors = (
{
name = bottom;
position = "{358, -20}";
},
{
name = top;
position = "{358, 719}";
},
{
name = topgr;
position = "{-38, 500}";
}
);
layerId = "6A0BD57D-C03B-4459-8D3D-7421EEB177BA";
shapes = (
{
closed = 1;
nodes = (
(77,0,l,{name = ab01;}),
(197,0,l),
(197,320,l,{name = dv01;}),
(519,320,l),
(519,0,l,{name = ab02;}),
(639,0,l),
(639,700,l,{name = at01;}),
(519,700,l),
(519,420,l),
(197,420,l,{name = dv02;}),
(197,700,l,{name = at02;}),
(77,700,l)
);
}
);
width = 716;
},
{
anchors = (
{
name = bottom;
position = "{358, -20}";
},
{
name = top;
position = "{358, 719}";
},
{
name = topgr;
position = "{-28, 500}";
}
);
layerId = "CA42EF1E-7CAB-449D-BA53-393A55112632";
shapes = (
{
closed = 1;
nodes = (
(87,0,l,{name = ab01;}),
(177,0,l),
(177,330,l,{name = dv01;}),
(539,330,l),
(539,0,l,{name = ab02;}),
(629,0,l),
(629,700,l,{name = at01;}),
(539,700,l),
(539,410,l),
(177,410,l,{name = dv02;}),
(177,700,l,{name = at02;}),
(87,700,l)
);
}
);
width = 716;
},
{
anchors = (
{
name = top;
position = "{358, 719}";
},
{
name = bottom;
position = "{358, -20}";
},
{
name = topgr;
position = "{-22, 500}";
}
);
layerId = "F226A6F9-6034-4C5D-800B-D2697DD6BCB4";
shapes = (
{
closed = 1;
nodes = (
(97,0,l,{name = ab01;}),
(157,0,l),
(157,343,l,{name = dv01;}),
(559,343,l),
(559,0,l,{name = ab02;}),
(619,0,l),
(619,700,l,{name = at01;}),
(559,700,l),
(559,397,l),
(157,397,l,{name = dv02;}),
(157,700,l,{name = at02;}),
(97,700,l)
);
}
);
width = 716;
}
);
leftKerningGroup = B;
rightKerningGroup = H;
unicode = 72;
},
{
glyphname = C;
layers = (
{
anchors = (
{
name = bottom;
position = "{416, -20}";
},
{
name = top;
position = "{386, 719}";
}
);
layerId = "C97486CF-1A64-40DF-96D7-C8549AF742BF";
shapes = (
{
closed = 1;
nodes = (
(561,208,l),
(503.671,147.864,o),
(453.507,124,o),
(393.107,124,cs),
(281.519,124,o),
(216,206.719,o),
(216,357.386,cs),
(216,499.19,o),
(274.353,576,o),
(387.988,576,cs),
(453.507,576,o),
(505.718,550.907,o),
(561,493,c),
(667,599,l),
(612.148,665,o),
(514.634,720,o),
(381.568,720,cs),
(163.177,720,o),
(23,572,o),
(23,361,cs),
(23,140,o),
(175.366,-20,o),
(394.773,-20,cs),
(511.587,-20,o),
(596.912,25,o),
(667,102,c)
);
}
);
width = 684;
},
{
anchors = (
{
name = bottom;
position = "{416, -20}";
},
{
name = top;
position = "{386, 719}";
}
);
layerId = "C6BB3B5A-2B00-4D31-935D-56D5DC5DA0A7";
shapes = (
{
closed = 1;
nodes = (
(567,202,l),
(517.601,144,o),
(454.087,110,o),
(387.549,110,cs),
(273.628,110,o),
(196,209,o),
(196,358,cs),
(196,499,o),
(265.567,589,o),
(381.512,589,cs),
(449.063,589,o),
(514.597,559,o),
(564,501,c),
(659,596,l),
(597.513,670,o),
(503.77,720,o),
(378.78,720,cs),
(164.078,720,o),
(28,573,o),
(28,360,cs),
(28,139,o),
(174.153,-20,o),
(393.886,-20,cs),
(514.839,-20,o),
(590.436,28,o),
(662,107,c)
);
}
);
width = 684;
},
{
anchors = (
{
name = bottom;
position = "{406, -19}";
},
{
name = top;
position = "{386, 719}";
}
);
layerId = "D32243E2-577E-4253-BC9B-8FEA88FA4FFA";
shapes = (
{
closed = 1;
nodes = (
(573,191,l),
(525.244,135.549,o),
(468.533,104,o),
(389.934,104,cs,{name = dv02;}),
(255.619,104,o),
(181,199.639,o),
(181,355.423,cs),
(181,508.249,o),
(253.629,596,o),
(384.957,596,cs,{name = dv03;}),
(465.545,596,o),
(524.244,564.112,o),
(572,510,c),
(657,595,l),
(593,674,o),
(504,720,o),
(380,720,cs,{name = dv04;}),
(163,720,o),
(33,580,o),
(33,360,cs),
(33,130,o),
(175,-20,o),
(389,-20,cs,{name = dv01;}),
(502,-20,o),
(583,22,o),
(658,106,c)
);
}
);
width = 684;
},
{
anchors = (
{
name = bottom;
position = "{402, -20}";
},
{
name = top;
position = "{382, 719}";
}
);
layerId = "6A0BD57D-C03B-4459-8D3D-7421EEB177BA";
shapes = (
{
closed = 1;
nodes = (
(576,173,l),
(534.407,117.495,o),
(473.007,84,o),
(394.772,84,cs,{name = dv02;}),
(266.031,84,o),
(167,188.623,o),
(167,365.299,cs),
(167,524.208,o),
(246.225,616,o),
(386.85,616,cs,{name = dv03;}),
(462.114,616,o),
(523.513,586.989,o),
(576,528,c),
(647,599,l),
(581,681,o),
(492,720,o),
(379,720,cs,{name = dv04;}),
(166,720,o),
(43,581,o),
(43,365,cs),
(43,135,o),
(182,-20,o),
(387,-20,cs,{name = dv01;}),
(488,-20,o),
(572,18,o),
(647,102,c)
);
}
);
width = 684;
},
{
anchors = (
{
name = bottom;
position = "{401, -20}";
},
{
name = top;
position = "{381, 719}";
}
);
layerId = "CA42EF1E-7CAB-449D-BA53-393A55112632";
shapes = (
{
closed = 1;
nodes = (
(579,160,l),
(527.477,93,o),
(460.101,60,o),
(385.789,60,cs,{name = dv02;}),
(243.11,60,o),
(147,182,o),
(147,366,cs),
(147,542,o),
(234.193,640,o),
(373.899,640,cs,{name = dv03;}),
(453.165,640,o),
(517.569,609,o),
(579,541,c),
(637,599,l),
(572,681,o),
(487,720,o),
(378,720,cs,{name = dv04;}),
(172,720,o),
(53,581,o),
(53,365,cs),
(53,135,o),
(187,-20,o),
(385,-20,cs,{name = dv01;}),
(483,-20,o),
(563,18,o),
(637,102,c)
);
}
);
width = 684;
},
{
anchors = (
{
name = bottom;
position = "{393, -19}";
},
{
name = top;
position = "{373, 719}";
}
);
layerId = "F226A6F9-6034-4C5D-800B-D2697DD6BCB4";
shapes = (
{
closed = 1;
nodes = (
(584,144,l),
(531,73,o),
(458,35,o),
(376,35,cs),
(225,35,o),
(124,165,o),
(124,364,cs),
(124,555,o),
(220,665,o),
(369,665,cs),
(456,665,o),
(530,628,o),
(584,556,c),
(627,599,l),
(559,680,o),
(472,720,o),
(371,720,cs),
(186,720,o),
(63,585,o),
(63,362,cs),
(63,138,o),
(188,-20,o),
(379,-20,cs),
(477,-20,o),
(561,22,o),
(627,101,c)
);
}
);
width = 684;
}
);
leftKerningGroup = C1;
rightKerningGroup = C;
unicode = 67;
},
{
glyphname = G;
layers = (
{
anchors = (
{
name = top;
position = "{383, 719}";
},
{
name = bottom;
position = "{383, -20}";
}
);
layerId = "C97486CF-1A64-40DF-96D7-C8549AF742BF";
shapes = (
{
closed = 1;
nodes = (
(577,0,l),
(719,0,l),
(719,391,l),
(331,391,l),
(331,251,l),
(577,251,l)
);
},
{
closed = 1;
nodes = (
(566,307,l),
(566,193.855,o),
(481.483,124,o),
(380.062,124,cs),
(291.568,124,o),
(216,177.293,o),
(216,357.895,cs),
(216,504.943,o),
(266.706,576,o),
(384.026,576,cs),
(454.617,576,o),
(506.317,550.907,o),
(561,493,c),
(667,599,l),
(613,665,o),
(507,720,o),
(370,720,cs),
(156,720,o),
(23,587,o),
(23,350,cs),
(23,133,o),
(143,-20,o),
(337,-20,cs),
(506,-20,o),
(614,96,o),
(614,219,c)
);
}
);
width = 776;
},
{
anchors = (
{
name = top;
position = "{383, 719}";
},
{
name = bottom;
position = "{383, -20}";
}
);
layerId = "C6BB3B5A-2B00-4D31-935D-56D5DC5DA0A7";
shapes = (
{
closed = 1;
nodes = (
(592,0,l),
(723,0,l),
(723,387,l),
(336,387,l),
(336,256,l),
(592,256,l)
);
},
{
closed = 1;
nodes = (
(591,312,l),
(591,178,o),
(496.24,111,o),
(387.515,111,cs),
(273.803,111,o),
(196,184,o),
(196,354,cs),
(196,524,o),
(273.796,589,o),
(387.499,589,cs),
(464.298,589,o),
(529.128,559,o),
(578,501,c),
(673,596,l),
(612,670,o),
(508,720,o),
(374,720,cs),
(164,720,o),
(28,597,o),
(28,348,cs),
(28,105,o),
(167,-20,o),
(341,-20,cs),
(505,-20,o),
(625,90,o),
(629,220,c)
);
}
);
width = 776;
},
{
anchors = (
{
name = top;
position = "{383, 719}";
},
{
name = bottom;
position = "{383, -20}";
}
);
layerId = "D32243E2-577E-4253-BC9B-8FEA88FA4FFA";
shapes = (
{
closed = 1;
nodes = (
(597,0,l),
(720,0,l),
(720,381,l,{name = dv06;}),
(341,381,l,{name = av02;}),
(341,261,l,{name = av03;}),
(597,261,l,{name = dv05;})
);
},
{
closed = 1;
nodes = (
(602,316,l,{name = dv07;}),
(602,179.926,o),
(505.459,104,o),
(384.035,104,cs,{name = dv02;}),
(252.66,104,o),
(181,193.904,o),
(181,350.988,cs),
(181,508.072,o),
(252.639,596,o),
(387.957,596,cs,{name = dv03;}),
(470.541,596,o),
(530.241,564.112,o),
(578,510,c),
(663,595,l),
(599,674,o),
(500,720,o),
(373,720,cs,{name = dv04;}),
(166,720,o),
(33,597,o),
(33,344,cs),
(33,105,o),
(160,-20,o),
(356,-20,cs,{name = dv01;}),
(539,-20,o),
(631,90,o),
(631,221,c)
);
}
);
width = 776;
},
{
anchors = (
{
name = top;
position = "{383, 719}";
},
{
name = bottom;
position = "{383, -20}";
}
);
layerId = "6A0BD57D-C03B-4459-8D3D-7421EEB177BA";
shapes = (
{
closed = 1;
nodes = (
(607,0,l),
(711,0,l),
(711,376,l,{name = dv06;}),
(341,376,l,{name = av02;}),
(341,276,l,{name = av03;}),
(607,276,l,{name = dv05;})
);
},
{
closed = 1;
nodes = (
(607,303,l,{name = dv07;}),
(607,169.824,o),
(519.793,84,o),
(377.09,84,cs,{name = dv02;}),
(240.458,84,o),
(167,177.061,o),
(167,350.156,cs),
(167,549.903,o),
(255.174,616,o),
(395.856,616,cs,{name = dv03;}),
(475.114,616,o),
(538.52,586.989,o),
(594,528,c),
(665,599,l),
(597,681,o),
(495,720,o),
(379,720,cs,{name = dv04;}),
(172,720,o),
(43,597,o),
(43,350,cs),
(43,105,o),
(179,-20,o),
(359,-20,cs,{name = dv01;}),
(553,-20,o),
(631,124,o),
(631,243,c)
);
}
);
width = 776;
},
{
anchors = (
{
name = top;
position = "{383, 719}";
},
{
name = bottom;
position = "{383, -20}";
}
);
layerId = "CA42EF1E-7CAB-449D-BA53-393A55112632";
shapes = (
{
closed = 1;
nodes = (
(607,0,l),
(697,0,l),
(697,366,l,{name = dv06;}),
(341,366,l,{name = av02;}),
(341,286,l,{name = av03;}),
(607,286,l,{name = dv05;})
);
},
{
closed = 1;
nodes = (
(608,307,l,{name = dv07;}),
(608,156.39,o),
(527.697,60,o),
(376.013,60,cs,{name = dv02;}),
(225.32,60,o),
(147,154.325,o),
(147,345.986,cs),
(147,540.657,o),
(228.278,640,o),
(382.903,640,cs,{name = dv03;}),
(467.154,640,o),
(531.581,609.694,o),
(597,541,c),
(655,599,l),
(588,681,o),
(490,720,o),
(377,720,cs,{name = dv04;}),
(177,720,o),
(53,597,o),
(53,350,cs),
(53,105,o),
(184,-20,o),
(363,-20,cs,{name = dv01;}),
(513,-20,o),
(623,92,o),
(622,233,c)
);
}
);
width = 776;
},
{
anchors = (
{
name = top;
position = "{383, 719}";
},
{
name = bottom;
position = "{383, -20}";
}
);
layerId = "F226A6F9-6034-4C5D-800B-D2697DD6BCB4";
shapes = (
{
closed = 1;
nodes = (
(628,0,l),
(688,0,l),
(688,357,l,{name = dv06;}),
(341,357,l,{name = av02;}),
(341,303,l,{name = av03;}),
(628,303,l,{name = dv05;})
);
},
{
closed = 1;
nodes = (
(628,303,l,{name = dv07;}),
(628,140,o),
(540,35,o),
(374,35,cs,{name = dv02;}),
(214,35,o),
(124,151,o),
(124,342,cs),
(124,565,o),
(233,665,o),
(387,665,cs),
(477,665,o),
(549,628,o),
(602,556,c),
(645,599,l),
(578,680,o),
(493,720,o),
(387,720,cs),
(203,720,o),
(63,597,o),
(63,348,cs),
(63,105,o),
(197,-20,o),
(372,-20,cs,{name = dv01;}),
(542,-20,o),
(641,113,o),
(640,254,c)
);
}
);
width = 776;
}
);
leftKerningGroup = C1;
rightKerningGroup = G;
unicode = 71;
},
{
glyphname = L;
layers = (
{
anchors = (
{
name = top;
position = "{162, 719}";
},
{
name = bottom;
position = "{277, -20}";
},
{
name = topright;
position = "{332, 700}";
}
);
layerId = "C97486CF-1A64-40DF-96D7-C8549AF742BF";
shapes = (
{
closed = 1;
nodes = (
(58,0,l),
(514,0,l),
(514,140,l),
(248,140,l),
(248,700,l),
(58,700,l)
);
}
);
width = 524;
},
{
anchors = (
{
name = top;
position = "{151, 719}";
},
{
name = bottom;
position = "{277, -20}";
},
{
name = topright;
position = "{318, 700}";
}
);
layerId = "C6BB3B5A-2B00-4D31-935D-56D5DC5DA0A7";
shapes = (
{
closed = 1;
nodes = (
(58,0,l),
(511,0,l),
(511,130,l),
(224,130,l),
(224,700,l),
(58,700,l)
);
}
);
width = 524;
},
{
anchors = (
{
name = top;
position = "{140, 719}";
},
{
name = bottom;
position = "{277, -20}";
},
{
name = topright;
position = "{314, 700}";
}
);
layerId = "D32243E2-577E-4253-BC9B-8FEA88FA4FFA";
shapes = (
{
closed = 1;
nodes = (
(68,0,l,{name = ab01;}),
(508,0,l),
(508,120,l,{name = sv01;}),
(214,120,l),
(214,700,l,{name = at01;}),
(68,700,l)
);
}
);
width = 524;
},
{
anchors = (
{
name = top;
position = "{138, 719}";
},
{
name = bottom;
position = "{277, -20}";
},
{
name = topright;
position = "{312, 700}";
}
);
layerId = "6A0BD57D-C03B-4459-8D3D-7421EEB177BA";
shapes = (
{
closed = 1;
nodes = (
(78,0,l,{name = ab01;}),
(506,0,l),
(506,100,l,{name = sv01;}),
(198,100,l),
(198,700,l,{name = at01;}),
(78,700,l)
);
}
);
width = 524;
},
{
anchors = (
{
name = top;
position = "{133, 719}";
},
{
name = bottom;
position = "{277, -20}";
},
{
name = topright;
position = "{296, 700}";
}
);
layerId = "CA42EF1E-7CAB-449D-BA53-393A55112632";
shapes = (
{
closed = 1;
nodes = (
(88,0,l,{name = ab01;}),
(504,0,l),
(504,80,l,{name = sv01;}),
(178,80,l),
(178,700,l,{name = at01;}),
(88,700,l)
);
}
);
width = 524;
},
{
anchors = (
{
name = top;
position = "{132, 719}";
},
{
name = bottom;
position = "{277, -20}";
},
{
name = topright;
position = "{288, 700}";
}
);
layerId = "F226A6F9-6034-4C5D-800B-D2697DD6BCB4";
shapes = (
{
closed = 1;
nodes = (
(98,0,l,{name = ab01;}),
(502,0,l),
(502,54,l,{name = sv01;}),
(158,54,l),
(158,700,l,{name = at01;}),
(98,700,l)
);
}
);
width = 524;
}
);
leftKerningGroup = B;
rightKerningGroup = L;
unicode = 76;
},
{
glyphname = I;
layers = (
{
anchors = (
{
name = top;
position = "{163, 719}";
},
{
name = bottom;
position = "{163, -20}";
},
{
name = ogonek;
position = "{251, -3}";
},
{
name = topgr;
position = "{-50, 500}";
}
);
layerId = "C97486CF-1A64-40DF-96D7-C8549AF742BF";
shapes = (
{
closed = 1;
nodes = (
(68,0,l),
(258,0,l),
(258,700,l),
(68,700,l)
);
}
);
width = 326;
},
{
anchors = (
{
name = top;
position = "{163, 719}";
},
{
name = bottom;
position = "{163, -20}";
},
{
name = ogonek;
position = "{239, -3}";
},
{
name = topgr;
position = "{-33, 500}";
}
);
layerId = "C6BB3B5A-2B00-4D31-935D-56D5DC5DA0A7";
shapes = (
{
closed = 1;
nodes = (
(80,0,l),
(246,0,l),
(246,700,l),
(80,700,l)
);
}
);
width = 326;
},
{
anchors = (
{
name = top;
position = "{163, 719}";
},
{
name = bottom;
position = "{163, -20}";
},
{
name = ogonek;
position = "{231, -2}";
},
{
name = topgr;
position = "{-23, 500}";
}
);
layerId = "D32243E2-577E-4253-BC9B-8FEA88FA4FFA";
shapes = (
{
closed = 1;
nodes = (
(90,0,l,{name = ab01;}),
(236,0,l),
(236,700,l,{name = at01;}),
(90,700,l)
);
}
);
width = 326;
},
{
anchors = (
{
name = top;
position = "{163, 719}";
},
{
name = bottom;
position = "{163, -20}";
},
{
name = ogonek;
position = "{217, -2}";
},
{
name = topgr;
position = "{-13, 500}";
}
);
layerId = "6A0BD57D-C03B-4459-8D3D-7421EEB177BA";
shapes = (
{
closed = 1;
nodes = (
(103,0,l,{name = ab01;}),
(223,0,l),
(223,700,l,{name = at01;}),
(103,700,l)
);
}
);
width = 326;
},
{
anchors = (
{
name = top;
position = "{163, 719}";
},
{
name = bottom;
position = "{163, -20}";
},
{
name = ogonek;
position = "{205, -3}";
},
{
name = topgr;
position = "{1, 500}";
}
);
layerId = "CA42EF1E-7CAB-449D-BA53-393A55112632";
shapes = (
{
closed = 1;
nodes = (
(118,0,l,{name = ab01;}),
(208,0,l),
(208,700,l,{name = at01;}),
(118,700,l)
);
}
);
width = 326;
},
{
anchors = (
{
name = top;
position = "{168, 719}";
},
{
name = bottom;
position = "{163, -20}";
},
{
name = ogonek;
position = "{193, -3}";
},
{
name = topgr;
position = "{13, 500}";
}
);
layerId = "F226A6F9-6034-4C5D-800B-D2697DD6BCB4";
shapes = (
{
closed = 1;
nodes = (
(133,0,l),
(193,0,l),
(193,700,l),
(133,700,l)
);
}
);
width = 326;
}
);
leftKerningGroup = B;
rightKerningGroup = H;
unicode = 73;
},
{
glyphname = O;
layers = (
{
anchors = (
{
name = top;
position = "{388, 719}";
},
{
name = bottom;
position = "{388, -20}";
},
{
name = ogonek;
position = "{512, -2}";
},
{
name = topgr;
position = "{-24, 500}";
}
);
layerId = "C97486CF-1A64-40DF-96D7-C8549AF742BF";
shapes = (
{
closed = 1;
nodes = (
(280.251,124,o),
(216,210.847,o),
(216,352.961,cs),
(216,496.061,o),
(276.297,576,o),
(385.029,576,cs),
(495.738,576,o),
(559,491.127,o),
(559,346.052,cs),
(559,202.952,o),
(498.703,124,o),
(388.983,124,cs)
);
},
{
closed = 1;
nodes = (
(604,-20,o),
(752,125,o),
(752,350,cs),
(752,568,o),
(608,720,o),
(388,720,cs),
(168,720,o),
(23,569,o),
(23,350,cs),
(23,127,o),
(171,-20,o),
(387,-20,cs)
);
}
);
width = 775;
},
{
anchors = (
{
name = top;
position = "{388, 719}";
},
{
name = bottom;
position = "{388, -20}";
},
{
name = ogonek;
position = "{512, -1}";
},
{
name = topgr;
position = "{-14, 500}";
}
);
layerId = "C6BB3B5A-2B00-4D31-935D-56D5DC5DA0A7";
shapes = (
{
closed = 1;
nodes = (
(271.605,111,o),
(196,210,o),
(196,353,cs),
(196,498,o),
(265.636,589,o),
(385.013,589,cs),
(505.384,589,o),
(579,493,o),
(579,346,cs),
(579,204,o),
(507.374,111,o),
(388.992,111,cs)
);
},
{
closed = 1;
nodes = (
(611,-20,o),
(747,144,o),
(747,350,cs),
(747,557,o),
(606,720,o),
(388,720,cs),
(170,720,o),
(28,560,o),
(28,350,cs),
(28,142,o),
(168,-20,o),
(387,-20,cs)
);
}
);
width = 775;
},
{
anchors = (
{
name = top;
position = "{388, 719}";
},
{
name = bottom;
position = "{388, -20}";
},
{
name = ogonek;
position = "{518, -1}";
},
{
name = topgr;
position = "{-4, 500}";
}
);
layerId = "D32243E2-577E-4253-BC9B-8FEA88FA4FFA";
shapes = (
{
closed = 1;
nodes = (
(268.156,104,o),
(181,189.952,o),
(181,352.964,cs),
(181,510.048,o),
(262.213,596,o),
(385.024,596,cs,{name = dv03;}),
(508.825,596,o),
(594,504.12,o),
(594,346.048,cs,{name = dv05;}),
(594,183.036,o),
(510.806,104,o),
(388.986,104,cs,{name = dv02;})
);
},
{
closed = 1;
nodes = (
(611,-20,o),
(742,124,o),
(742,350,cs,{name = dv06;}),
(742,567,o),
(606,720,o),
(388,720,cs,{name = dv04;}),
(170,720,o),
(33,570,o),
(33,350,cs),
(33,122,o),
(168,-20,o),
(387,-20,cs,{name = dv01;})
);
}
);
width = 775;
},
{
anchors = (
{
name = top;
position = "{388, 719}";
},
{
name = bottom;
position = "{388, -20}";
},
{
name = ogonek;
position = "{513, -1}";
},
{
name = topgr;
position = "{2, 500}";
}
);
layerId = "6A0BD57D-C03B-4459-8D3D-7421EEB177BA";
shapes = (
{
closed = 1;
nodes = (
(252.45,84,o),
(167,183.84,o),
(167,349.967,cs),
(167,518.071,o),
(245.575,616,o),
(383.08,616,cs,{name = dv03;}),
(524.514,616,o),
(608,520.126,o),
(608,350.045,cs,{name = dv05;}),
(608,184.907,o),
(527.461,84,o),
(390.938,84,cs,{name = dv02;})
);
},
{
closed = 1;
nodes = (
(589,-20,o),
(732,107,o),
(732,350,cs,{name = dv06;}),
(732,575,o),
(602,720,o),
(388,720,cs,{name = dv04;}),
(182,720,o),
(43,586,o),
(43,350,cs),
(43,109,o),
(186,-20,o),
(387,-20,cs,{name = dv01;})
);
}
);
width = 775;
},
{
anchors = (
{
name = top;
position = "{388, 719}";
},
{
name = bottom;
position = "{388, -20}";
},
{
name = ogonek;
position = "{514, -1}";
},
{
name = topgr;
position = "{6, 500}";
}
);
layerId = "CA42EF1E-7CAB-449D-BA53-393A55112632";
shapes = (
{
closed = 1;
nodes = (
(233.916,60,o),
(147,158.541,o),
(147,349.512,cs),
(147,531.827,o),
(233.916,640,o),
(384.043,640,cs,{name = dv03;}),
(546.023,640,o),
(628,543.671,o),
(628,350.003,cs,{name = dv05;}),
(628,170.384,o),
(539.109,60,o),
(389.969,60,cs,{name = dv02;})
);
},
{
closed = 1;
nodes = (
(583,-20,o),
(722,107,o),
(722,350,cs,{name = dv06;}),
(722,575,o),
(596,720,o),
(388,720,cs,{name = dv04;}),
(188,720,o),
(53,586,o),
(53,350,cs),
(53,109,o),
(192,-20,o),
(387,-20,cs,{name = dv01;})
);
}
);
width = 775;
},
{
anchors = (
{
name = top;
position = "{388, 719}";
},
{
name = bottom;
position = "{388, -20}";
},
{
name = ogonek;
position = "{513, -1}";
},
{
name = topgr;
position = "{6, 500}";
}
);
layerId = "F226A6F9-6034-4C5D-800B-D2697DD6BCB4";
shapes = (
{
closed = 1;
nodes = (
(221,35,o),
(124,146,o),
(124,350,cs),
(124,548,o),
(220,665,o),
(386,665,cs,{name = dv03;}),
(558,665,o),
(651,554,o),
(651,350,cs,{name = dv05;}),
(651,153,o),
(550,35,o),
(390,35,cs,{name = dv02;})
);
},
{
closed = 1;
nodes = (
(577,-20,o),
(712,110,o),
(712,350,cs,{name = dv06;}),
(712,578,o),
(590,720,o),
(389,720,cs,{name = dv04;}),
(194,720,o),
(63,587,o),
(63,350,cs),
(63,110,o),
(198,-20,o),
(388,-20,cs,{name = dv01;})
);
}
);
width = 775;
}
);
leftKerningGroup = C1;
rightKerningGroup = C;
unicode = 79;
},
{
glyphname = N;
layers = (
{
anchors = (
{
name = top;
position = "{366, 719}";
},
{
name = bottom;
position = "{366, -20}";
}
);
layerId = "C97486CF-1A64-40DF-96D7-C8549AF742BF";
shapes = (
{
closed = 1;
nodes = (
(58,0,l),
(248,0,l),
(248,389,l),
(494,0,l),
(674,0,l),
(674,700,l),
(484,700,l),
(484,311,l),
(238,700,l),
(58,700,l)
);
}
);
width = 732;
},
{
anchors = (
{
name = top;
position = "{366, 719}";
},
{
name = bottom;
position = "{366, -20}";
}
);
layerId = "C6BB3B5A-2B00-4D31-935D-56D5DC5DA0A7";
shapes = (
{
closed = 1;
nodes = (
(57,0,l),
(223,0,l),
(223,439,l),
(519,0,l),
(675,0,l),
(675,700,l),
(509,700,l),
(509,261,l),
(213,700,l),
(57,700,l)
);
}
);
width = 732;
},
{
anchors = (
{
name = top;
position = "{366, 719}";
},
{
name = bottom;
position = "{366, -20}";
}
);
layerId = "D32243E2-577E-4253-BC9B-8FEA88FA4FFA";
shapes = (
{
closed = 1;
nodes = (
(67,0,l),
(213,0,l,{name = ab01;}),
(213,468,l,{name = iv01;}),
(529,0,l,{name = ab02;}),
(665,0,l),
(665,700,l,{name = at01;}),
(519,700,l),
(519,232,l,{name = iv02;}),
(203,700,l,{name = at02;}),
(67,700,l)
);
}
);
width = 732;
},
{
anchors = (
{
name = top;
position = "{366, 719}";
},
{
name = bottom;
position = "{366, -20}";
}
);
layerId = "6A0BD57D-C03B-4459-8D3D-7421EEB177BA";
shapes = (
{
closed = 1;
nodes = (
(77,0,l),
(197,0,l,{name = ab01;}),
(197,515,l,{name = iv01;}),
(545,0,l,{name = ab02;}),
(655,0,l),
(655,700,l,{name = at01;}),
(535,700,l),
(535,185,l,{name = iv02;}),
(187,700,l,{name = at02;}),
(77,700,l)
);
}
);
width = 732;
},
{
anchors = (
{
name = top;
position = "{366, 719}";
},
{
name = bottom;
position = "{366, -20}";
}
);
layerId = "CA42EF1E-7CAB-449D-BA53-393A55112632";
shapes = (
{
closed = 1;
nodes = (
(87,0,l),
(177,0,l,{name = ab01;}),
(177,554,l,{name = iv01;}),
(565,0,l,{name = ab02;}),
(645,0,l),
(645,700,l,{name = at01;}),
(555,700,l),
(555,146,l,{name = iv02;}),
(167,700,l,{name = at02;}),
(87,700,l)
);
}
);
width = 732;
},
{
anchors = (
{
name = top;
position = "{366, 719}";
},
{
name = bottom;
position = "{366, -20}";
}
);
layerId = "F226A6F9-6034-4C5D-800B-D2697DD6BCB4";
shapes = (
{
closed = 1;
nodes = (
(97,0,l),
(157,0,l,{name = ab01;}),
(157,593,l,{name = iv01;}),
(585,0,l,{name = ab02;}),
(635,0,l),
(635,700,l,{name = at01;}),
(575,700,l),
(575,107,l,{name = iv02;}),
(147,700,l,{name = at02;}),
(97,700,l)
);
}
);
width = 732;
}
);
leftKerningGroup = B;
rightKerningGroup = H;
unicode = 78;
},
{
glyphname = Q;
layers = (
{
anchors = (
{
name = top;
position = "{388, 719}";
},
{
name = bottom;
position = "{388, -20}";
},
{
name = ogonek;
position = "{512, -2}";
}
);
layerId = "C97486CF-1A64-40DF-96D7-C8549AF742BF";
shapes = (
{
closed = 1;
nodes = (
(280.251,124,o),
(216,210.847,o),
(216,352.961,cs),
(216,496.061,o),
(276.297,576,o),
(385.029,576,cs),
(495.738,576,o),
(559,491.127,o),
(559,346.052,cs),
(559,202.952,o),
(498.703,124,o),
(388.983,124,cs)
);
},
{
closed = 1;
nodes = (
(604,-20,o),
(752,125,o),
(752,350,cs),
(752,568,o),
(608,720,o),
(388,720,cs),
(168,720,o),
(23,569,o),
(23,350,cs),
(23,127,o),
(171,-20,o),
(387,-20,cs)
);
},
{
closed = 1;
nodes = (
(323,-3,l),
(323,-194,o),
(386,-230,o),
(634,-230,c),
(634,-90,l),
(513,-90,o),
(483,-87,o),
(483,-3,c)
);
}
);
width = 775;
},
{
anchors = (
{
name = top;
position = "{388, 719}";
},
{
name = bottom;
position = "{388, -20}";
},
{
name = ogonek;
position = "{512, -1}";
}
);
layerId = "C6BB3B5A-2B00-4D31-935D-56D5DC5DA0A7";
shapes = (
{
closed = 1;
nodes = (
(271.605,111,o),
(196,210,o),
(196,353,cs),
(196,498,o),
(265.636,589,o),
(385.013,589,cs),
(505.384,589,o),
(579,493,o),
(579,346,cs),
(579,204,o),
(507.374,111,o),
(388.992,111,cs)
);
},
{
closed = 1;
nodes = (
(611,-20,o),
(747,144,o),
(747,350,cs),
(747,557,o),
(606,720,o),
(388,720,cs),
(170,720,o),
(28,560,o),
(28,350,cs),
(28,142,o),
(168,-20,o),
(387,-20,cs)
);
},
{
closed = 1;
nodes = (
(330,-3,l),
(330,-197,o),
(393,-221,o),
(634,-221,c),
(634,-91,l),
(493,-91,o),
(483,-84,o),
(483,-3,c)
);
}
);
width = 775;
},
{
anchors = (
{
name = top;
position = "{388, 719}";
},
{
name = bottom;
position = "{388, -20}";
},
{
name = ogonek;
position = "{518, -1}";
}
);
layerId = "D32243E2-577E-4253-BC9B-8FEA88FA4FFA";
shapes = (
{
closed = 1;
nodes = (
(268.156,104,o),
(181,189.952,o),
(181,352.964,cs),
(181,510.048,o),
(262.213,596,o),
(385.024,596,cs,{name = dv03;}),
(508.825,596,o),
(594,504.12,o),
(594,346.048,cs,{name = dv05;}),
(594,183.036,o),
(510.806,104,o),
(388.986,104,cs,{name = dv02;})
);
},
{
closed = 1;
nodes = (
(611,-20,o),
(742,124,o),
(742,350,cs,{name = dv06;}),
(742,567,o),
(606,720,o),
(388,720,cs,{name = dv04;}),
(170,720,o),
(33,570,o),
(33,350,cs),
(33,122,o),
(168,-20,o),
(387,-20,cs,{name = dv01;})
);
},
{
closed = 1;
nodes = (
(340,-3,l,{name = ab02;}),
(340,-182,o),
(392,-222,o),
(634,-222,c),
(634,-102,l),
(492,-102,o),
(463,-90.81,o),
(463,-3,c,{name = ab01;})
);
}
);
width = 775;
},
{
anchors = (
{
name = top;
position = "{388, 719}";
},
{
name = bottom;
position = "{388, -20}";
},
{
name = ogonek;
position = "{513, -1}";
}
);
layerId = "6A0BD57D-C03B-4459-8D3D-7421EEB177BA";
shapes = (
{
closed = 1;
nodes = (
(252.45,84,o),
(167,183.84,o),
(167,349.967,cs),
(167,518.071,o),
(245.575,616,o),
(383.08,616,cs,{name = dv03;}),
(524.514,616,o),
(608,520.126,o),
(608,350.045,cs,{name = dv05;}),
(608,184.907,o),
(527.461,84,o),
(390.938,84,cs,{name = dv02;})
);
},
{
closed = 1;
nodes = (
(589,-20,o),
(732,107,o),
(732,350,cs,{name = dv06;}),
(732,575,o),
(602,720,o),
(388,720,cs,{name = dv04;}),
(182,720,o),
(43,586,o),
(43,350,cs),
(43,109,o),
(186,-20,o),
(387,-20,cs,{name = dv01;})
);
},
{
closed = 1;
nodes = (
(350,-3,l,{name = ab02;}),
(350,-180,o),
(402,-204,o),
(634,-204,c),
(634,-111,l),
(484,-111,o),
(453,-117,o),
(453,-3,c,{name = ab01;})
);
}
);
width = 775;
},
{
anchors = (
{
name = top;
position = "{388, 719}";
},
{
name = bottom;
position = "{388, -20}";
},
{
name = ogonek;
position = "{514, -1}";
}
);
layerId = "CA42EF1E-7CAB-449D-BA53-393A55112632";
shapes = (
{
closed = 1;
nodes = (
(233.916,60,o),
(147,158.541,o),
(147,349.512,cs),
(147,531.827,o),
(233.916,640,o),
(384.043,640,cs,{name = dv03;}),
(546.023,640,o),
(628,543.671,o),
(628,350.003,cs,{name = dv05;}),
(628,170.384,o),
(539.109,60,o),
(389.969,60,cs,{name = dv02;})
);
},
{
closed = 1;
nodes = (
(583,-20,o),
(722,107,o),
(722,350,cs,{name = dv06;}),
(722,575,o),
(596,720,o),
(388,720,cs,{name = dv04;}),
(188,720,o),
(53,586,o),
(53,350,cs),
(53,109,o),
(192,-20,o),
(387,-20,cs,{name = dv01;})
);
},
{
closed = 1;
nodes = (
(360,-3,l,{name = ab02;}),
(360,-166,o),
(412,-194,o),
(634,-194,c),
(634,-121,l),
(468,-121,o),
(443,-111,o),
(443,-3,c,{name = ab01;})
);
}
);
width = 775;
},
{
anchors = (
{
name = top;
position = "{388, 719}";
},
{
name = bottom;
position = "{388, -20}";
},
{
name = ogonek;
position = "{513, -1}";
}
);
layerId = "F226A6F9-6034-4C5D-800B-D2697DD6BCB4";
shapes = (
{
closed = 1;
nodes = (
(221,35,o),
(124,146,o),
(124,350,cs),
(124,548,o),
(220,665,o),
(386,665,cs,{name = dv03;}),
(558,665,o),
(651,554,o),
(651,350,cs,{name = dv05;}),
(651,153,o),
(550,35,o),
(390,35,cs,{name = dv02;})
);
},
{
closed = 1;
nodes = (
(577,-20,o),
(712,110,o),
(712,350,cs,{name = dv06;}),
(712,578,o),
(590,720,o),
(389,720,cs,{name = dv04;}),
(194,720,o),
(63,587,o),
(63,350,cs),
(63,110,o),
(198,-20,o),
(388,-20,cs,{name = dv01;})
);
},
{
closed = 1;
nodes = (
(370,-3,l,{name = ab02;}),
(370,-154,o),
(423,-184,o),
(634,-184,c),
(634,-129,l),
(456,-129,o),
(430,-118,o),
(430,-3,c,{name = ab01;})
);
}
);
width = 775;
}
);
leftKerningGroup = C1;
rightKerningGroup = C;
unicode = 81;
},
{
glyphname = J;
layers = (
{
anchors = (
{
name = bottom;
position = "{248, -20}";
},
{
name = top;
position = "{399, 719}";
}
);
layerId = "C97486CF-1A64-40DF-96D7-C8549AF742BF";
shapes = (
{
closed = 1;
nodes = (
(0,122,l),
(65,24,o),
(139,-20,o),
(248,-20,cs),
(412,-20,o),
(490,80,o),
(490,242,cs),
(490,700,l),
(300,700,l),
(300,249,ls),
(300,164,o),
(283.534,120,o),
(233.967,120,cs),
(187.576,120,o),
(146.102,159.569,o),
(106,228,c)
);
}
);
width = 540;
},
{
anchors = (
{
name = bottom;
position = "{248, -20}";
},
{
name = top;
position = "{403, 719}";
}
);
layerId = "C6BB3B5A-2B00-4D31-935D-56D5DC5DA0A7";
shapes = (
{
closed = 1;
nodes = (
(0,122,l),
(59,30,o),
(138,-20,o),
(248,-20,cs),
(394,-20,o),
(487,67,o),
(487,222,cs),
(487,700,l),
(321,700,l),
(321,240,ls),
(321,148,o),
(297,110,o),
(239,110,cs),
(187,110,o),
(151,140,o),
(95,217,c)
);
}
);
width = 540;
},
{
anchors = (
{
name = bottom;
position = "{248, -20}";
},
{
name = top;
position = "{413, 719}";
}
);
layerId = "D32243E2-577E-4253-BC9B-8FEA88FA4FFA";
shapes = (
{
closed = 1;
nodes = (
(0,122,l),
(67,25,o),
(141,-20,o),
(250,-20,cs,{name = dv01;}),
(400,-20,o),
(486,64,o),
(486,222,cs),
(486,700,l,{name = at01;}),
(340,700,l),
(340,239,ls),
(340,151,o),
(312,100,o),
(242,100,cs,{name = dv02;}),
(186,100,o),
(138,132,o),
(85,207,c)
);
}
);
width = 540;
},
{
anchors = (
{
name = bottom;
position = "{248, -20}";
},
{
name = top;
position = "{418, 719}";
}
);
layerId = "6A0BD57D-C03B-4459-8D3D-7421EEB177BA";
shapes = (
{
closed = 1;
nodes = (
(6,122,l),
(72,25,o),
(146,-20,o),
(251,-20,cs,{name = dv01;}),
(394,-20,o),
(476,64,o),
(476,222,cs),
(476,700,l,{name = at01;}),
(356,700,l),
(356,230,ls),
(356,127,o),
(322,80,o),
(251,80,cs,{name = dv02;}),
(191,80,o),
(127,114,o),
(77,193,c)
);
}
);
width = 540;
},
{
anchors = (
{
name = bottom;
position = "{248, -20}";
},
{
name = top;
position = "{418, 719}";
}
);
layerId = "CA42EF1E-7CAB-449D-BA53-393A55112632";
shapes = (
{
closed = 1;
nodes = (
(16,122,l),
(80,25,o),
(150,-20,o),
(249,-20,cs,{name = dv01;}),
(384,-20,o),
(461,64,o),
(461,222,cs),
(461,700,l,{name = at01;}),
(371,700,l),
(371,215,ls),
(371,117,o),
(326,60,o),
(244,60,cs,{name = dv02;}),
(178,60,o),
(124,97,o),
(74,180,c)
);
}
);
width = 540;
},
{
anchors = (
{
name = top;
position = "{422, 719}";
},
{
name = bottom;
position = "{248, -20}";
}
);
layerId = "F226A6F9-6034-4C5D-800B-D2697DD6BCB4";
shapes = (
{
closed = 1;
nodes = (
(26,122,l),
(89,25,o),
(155,-20,o),
(249,-20,cs,{name = dv01;}),
(378,-20,o),
(451,64,o),
(451,222,cs),
(451,700,l,{name = at01;}),
(391,700,l),
(391,196,ls),
(391,92,o),
(339,35,o),
(248,35,cs,{name = dv02;}),
(170.403,35,o),
(117.207,79.516,o),
(69,165,c)
);
}
);
width = 540;
}
);
leftKerningGroup = J;
rightKerningGroup = J1;
unicode = 74;
},
{
glyphname = T;
layers = (
{
anchors = (
{
name = top;
position = "{313, 719}";
},
{
name = bottom;
position = "{313, -20}";
}
);
layerId = "C97486CF-1A64-40DF-96D7-C8549AF742BF";
shapes = (
{
closed = 1;
nodes = (
(218,0,l),
(408,0,l),
(408,560,l),
(616,560,l),
(616,700,l),
(10,700,l),
(10,560,l),
(218,560,l)
);
}
);
width = 626;
},
{
anchors = (
{
name = top;
position = "{313, 719}";
},
{
name = bottom;
position = "{313, -20}";
}
);
layerId = "C6BB3B5A-2B00-4D31-935D-56D5DC5DA0A7";
shapes = (
{
closed = 1;
nodes = (
(230,0,l),
(396,0,l),
(396,570,l),
(616,570,l),
(616,700,l),
(10,700,l),
(10,570,l),
(230,570,l)
);
}
);
width = 626;
},
{
anchors = (
{
name = top;
position = "{313, 719}";
},
{
name = bottom;
position = "{313, -20}";
}
);
layerId = "D32243E2-577E-4253-BC9B-8FEA88FA4FFA";
shapes = (
{
closed = 1;
nodes = (
(240,0,l,{name = ab01;}),
(386,0,l),
(386,580,l,{name = sv02;}),
(616,580,l,{name = sv03;}),
(616,700,l),
(10,700,l,{name = at01;}),
(10,580,l,{name = sv01;}),
(240,580,l)
);
}
);
width = 626;
},
{
anchors = (
{
name = top;
position = "{313, 719}";
},
{
name = bottom;
position = "{313, -20}";
}
);
layerId = "6A0BD57D-C03B-4459-8D3D-7421EEB177BA";
shapes = (
{
closed = 1;
nodes = (
(253,0,l,{name = ab01;}),
(373,0,l),
(373,600,l,{name = sv02;}),
(606,600,l,{name = sv03;}),
(606,700,l),
(20,700,l,{name = at01;}),
(20,600,l,{name = sv01;}),
(253,600,l)
);
}
);
width = 626;
},
{
anchors = (
{
name = top;
position = "{313, 719}";
},
{
name = bottom;
position = "{313, -20}";
}
);
layerId = "CA42EF1E-7CAB-449D-BA53-393A55112632";
shapes = (
{
closed = 1;
nodes = (
(268,0,l,{name = ab01;}),
(358,0,l),
(358,620,l,{name = sv02;}),
(596,620,l,{name = sv03;}),
(596,700,l),
(30,700,l,{name = at01;}),
(30,620,l,{name = sv01;}),
(268,620,l)
);
}
);
width = 626;
},
{
anchors = (
{
name = top;
position = "{313, 719}";
},
{
name = bottom;
position = "{313, -20}";
}
);
layerId = "F226A6F9-6034-4C5D-800B-D2697DD6BCB4";
shapes = (
{
closed = 1;
nodes = (
(283,0,l,{name = ab01;}),
(343,0,l),
(343,646,l,{name = sv02;}),
(591,646,l,{name = sv03;}),
(591,700,l),
(35,700,l,{name = at01;}),
(35,646,l,{name = sv01;}),
(283,646,l)
);
}
);
width = 626;
}
);
leftKerningGroup = T;
rightKerningGroup = T1;
unicode = 84;
},
{
glyphname = U;
layers = (
{
anchors = (
{
name = top;
position = "{338, 719}";
},
{
name = bottom;
position = "{338, -20}";
},
{
name = ogonek;
position = "{454, -1}";
}
);
layerId = "C97486CF-1A64-40DF-96D7-C8549AF742BF";
shapes = (
{
closed = 1;
nodes = (
(50,700,l),
(50,262,ls),
(50,88,o),
(158.784,-20,o),
(335.946,-20,cs),
(513.108,-20,o),
(625,89,o),
(625,262,cs),
(625,700,l),
(435,700,l),
(435,278,ls),
(435,170,o),
(403.8,120,o),
(336.943,120,cs),
(270.086,120,o),
(240,169,o),
(240,278,cs),
(240,700,l)
);
}
);
width = 675;
},
{
anchors = (
{
name = top;
position = "{338, 719}";
},
{
name = bottom;
position = "{338, -20}";
},
{
name = ogonek;
position = "{454, -1}";
}
);
layerId = "C6BB3B5A-2B00-4D31-935D-56D5DC5DA0A7";
shapes = (
{
closed = 1;
nodes = (
(50,700,l),
(50,262,ls),
(50,88,o),
(158.784,-20,o),
(335.946,-20,cs),
(513.108,-20,o),
(625,89,o),
(625,262,cs),
(625,700,l),
(459,700,l),
(459,285,ls),
(459,168,o),
(418.682,110,o),
(338.045,110,cs),
(256.318,110,o),
(216,168,o),
(216,285,cs),
(216,700,l)
);
}
);
width = 675;
},
{
anchors = (
{
name = top;
position = "{338, 719}";
},
{
name = bottom;
position = "{338, -20}";
},
{
name = ogonek;
position = "{449, -1}";
}
);
layerId = "D32243E2-577E-4253-BC9B-8FEA88FA4FFA";
shapes = (
{
closed = 1;
nodes = (
(60,700,l,{name = at01;}),
(60,262,ls),
(60,88,o),
(165,-20,o),
(336,-20,cs,{name = dv01;}),
(507,-20,o),
(615,89,o),
(615,262,cs),
(615,700,l,{name = at02;}),
(469,700,l),
(469,292,ls),
(469,157,o),
(430,100,o),
(337,100,cs,{name = dv02;}),
(245,100,o),
(206,156,o),
(206,292,cs),
(206,700,l)
);
}
);
width = 675;
},
{
anchors = (
{
name = top;
position = "{338, 719}";
},
{
name = bottom;
position = "{338, -20}";
},
{
name = ogonek;
position = "{447, -1}";
}
);
layerId = "6A0BD57D-C03B-4459-8D3D-7421EEB177BA";
shapes = (
{
closed = 1;
nodes = (
(70,700,l,{name = at01;}),
(70,262,ls),
(70,88,o),
(165,-20,o),
(336,-20,cs,{name = dv01;}),
(507,-20,o),
(605,89,o),
(605,262,cs),
(605,700,l,{name = at02;}),
(485,700,l),
(485,278,ls),
(485,139,o),
(430,80,o),
(337,80,cs,{name = dv02;}),
(245,80,o),
(190,138,o),
(190,278,cs),
(190,700,l)
);
}
);
width = 675;
},
{
anchors = (
{
name = top;
position = "{338, 719}";
},
{
name = bottom;
position = "{338, -20}";
},
{
name = ogonek;
position = "{448, -1}";
}
);
layerId = "CA42EF1E-7CAB-449D-BA53-393A55112632";
shapes = (
{
closed = 1;
nodes = (
(80,700,l,{name = at01;}),
(80,262,ls),
(80,88,o),
(171,-20,o),
(336,-20,cs,{name = dv01;}),
(501,-20,o),
(595,89,o),
(595,262,cs),
(595,700,l,{name = at02;}),
(505,700,l),
(505,264,ls),
(505,121,o),
(442,60,o),
(337,60,cs,{name = dv02;}),
(233,60,o),
(170,120,o),
(170,264,cs),
(170,700,l)
);
}
);
width = 675;
},
{
anchors = (
{
name = top;
position = "{338, 719}";
},
{
name = bottom;
position = "{338, -20}";
},
{
name = ogonek;
position = "{447, -1}";
}
);
layerId = "F226A6F9-6034-4C5D-800B-D2697DD6BCB4";
shapes = (
{
closed = 1;
nodes = (
(90,700,l,{name = at01;}),
(90,262,ls),
(90,88,o),
(177,-20,o),
(336,-20,cs,{name = dv01;}),
(495,-20,o),
(585,89,o),
(585,262,cs),
(585,700,l,{name = at02;}),
(525,700,l),
(525,259,ls),
(525,110,o),
(454,35,o),
(337,35,cs,{name = dv02;}),
(221,35,o),
(150,109,o),
(150,259,cs),
(150,700,l)
);
}
);
width = 675;
}
);
leftKerningGroup = U;
rightKerningGroup = J1;
unicode = 85;
},
{
glyphname = P;
layers = (
{
anchors = (
{
name = top;
position = "{322, 719}";
},
{
name = bottom;
position = "{322, -20}";
}
);
layerId = "C97486CF-1A64-40DF-96D7-C8549AF742BF";
shapes = (
{
closed = 1;
nodes = (
(58,0,l),
(248,0,l),
(248,216,l),
(334,216,ls),
(524,216,o),
(605,334,o),
(605,460,cs),
(605,585,o),
(524,700,o),
(334,700,cs),
(58,700,l)
);
},
{
closed = 1;
nodes = (
(248,356,l),
(248,560,l),
(299,560,ls),
(357,560,o),
(414,543.842,o),
(414,458,cs),
(414,372.158,o),
(358,356,o),
(299,356,cs)
);
}
);
width = 628;
},
{
anchors = (
{
name = top;
position = "{322, 719}";
},
{
name = bottom;
position = "{322, -20}";
}
);
layerId = "C6BB3B5A-2B00-4D31-935D-56D5DC5DA0A7";
shapes = (
{
closed = 1;
nodes = (
(68,0,l),
(234,0,l),
(234,216,l),
(334,216,ls),
(524,216,o),
(605,334,o),
(605,460,cs),
(605,585,o),
(524,700,o),
(334,700,cs),
(68,700,l)
);
},
{
closed = 1;
nodes = (
(234,347,l),
(234,570,l),
(299,570,ls),
(381,570,o),
(438,537,o),
(438,458,cs),
(438,380,o),
(382,347,o),
(299,347,cs)
);
}
);
width = 628;
},
{
anchors = (
{
name = top;
position = "{322, 719}";
},
{
name = bottom;
position = "{322, -20}";
}
);
layerId = "D32243E2-577E-4253-BC9B-8FEA88FA4FFA";
shapes = (
{
closed = 1;
nodes = (
(68,0,l),
(214,0,l,{name = ab01;}),
(214,216,l,{name = dv01;}),
(334,216,ls),
(499,216,o),
(605,311,o),
(605,459,cs),
(605,606,o),
(500,700,o),
(334,700,cs,{name = at01;}),
(68,700,l)
);
},
{
closed = 1;
nodes = (
(214,336,l,{name = dv02;}),
(214,580,l,{name = sv01;}),
(299,580,ls),
(410,580,o),
(459,543,o),
(459,457,cs),
(459,372,o),
(411,336,o),
(299,336,cs)
);
}
);
width = 628;
},
{
anchors = (
{
name = top;
position = "{322, 719}";
},
{
name = bottom;
position = "{322, -20}";
}
);
layerId = "6A0BD57D-C03B-4459-8D3D-7421EEB177BA";
shapes = (
{
closed = 1;
nodes = (
(78,0,l),
(198,0,l,{name = ab01;}),
(198,226,l,{name = dv01;}),
(320,226,ls),
(488,226,o),
(595,319,o),
(595,466,cs),
(595,608,o),
(494,700,o),
(334,700,cs,{name = at01;}),
(78,700,l)
);
},
{
closed = 1;
nodes = (
(198,326,l,{name = dv02;}),
(198,600,l,{name = sv01;}),
(293,600,ls),
(419,600,o),
(475,557.846,o),
(475,467.516,cs),
(475,373.172,o),
(413,326,o),
(293,326,cs)
);
}
);
width = 628;
},
{
anchors = (
{
name = top;
position = "{322, 719}";
},
{
name = bottom;
position = "{322, -20}";
}
);
layerId = "CA42EF1E-7CAB-449D-BA53-393A55112632";
shapes = (
{
closed = 1;
nodes = (
(88,0,l),
(178,0,l,{name = ab01;}),
(178,237,l,{name = dv01;}),
(310,237,ls),
(483,237,o),
(585,328,o),
(585,472,cs),
(585,612,o),
(488,700,o),
(314,700,cs,{name = at01;}),
(88,700,l)
);
},
{
closed = 1;
nodes = (
(178,317,l,{name = dv02;}),
(178,620,l,{name = sv01;}),
(311,620,ls),
(439,620,o),
(495,576,o),
(495,474,cs),
(495,368,o),
(435,317,o),
(308,317,cs)
);
}
);
width = 628;
},
{
anchors = (
{
name = top;
position = "{322, 719}";
},
{
name = bottom;
position = "{322, -20}";
}
);
layerId = "F226A6F9-6034-4C5D-800B-D2697DD6BCB4";
shapes = (
{
closed = 1;
nodes = (
(98,0,l),
(158,0,l,{name = ab01;}),
(158,249,l,{name = dv01;}),
(305,249,ls),
(483,249,o),
(575,338,o),
(575,483,cs),
(575,612,o),
(502,700,o),
(304,700,cs,{name = at01;}),
(98,700,l)
);
},
{
closed = 1;
nodes = (
(158,303,l,{name = dv02;}),
(158,646,l,{name = sv01;}),
(305,646,ls),
(453,646,o),
(514,597,o),
(514,482,cs),
(514,362,o),
(447,303,o),
(304,303,cs)
);
}
);
width = 628;
}
);
leftKerningGroup = B;
rightKerningGroup = P;
unicode = 80;
},
{
glyphname = R;
layers = (
{
anchors = (
{
name = top;
position = "{324, 719}";
},
{
name = bottom;
position = "{324, -20}";
}
);
layerId = "C97486CF-1A64-40DF-96D7-C8549AF742BF";
shapes = (
{
closed = 1;
nodes = (
(58,0,l),
(248,0,l),
(248,560,l),
(309,560,ls),
(393,560,o),
(418,534,o),
(418,472,cs),
(418,410,o),
(393,384,o),
(309,384,cs),
(100,384,l),
(100,244,l),
(348,244,ls),
(507,244,o),
(609,334,o),
(609,476,cs),
(609,615,o),
(511,700,o),
(348,700,cs),
(58,700,l)
);
},
{
closed = 1;
nodes = (
(423,0,l),
(627,0,l),
(457,333,l),
(280,281,l)
);
}
);
width = 648;
},
{
anchors = (
{
name = top;
position = "{324, 719}";
},
{
name = bottom;
position = "{324, -20}";
}
);
layerId = "C6BB3B5A-2B00-4D31-935D-56D5DC5DA0A7";
shapes = (
{
closed = 1;
nodes = (
(58,0,l),
(224,0,l),
(224,570,l),
(314,570,ls),
(410,570,o),
(442,537,o),
(442,472,cs),
(442,407,o),
(410,374,o),
(314,374,cs),
(100,374,l),
(100,244,l),
(348,244,ls),
(507,244,o),
(609,334,o),
(609,476,cs),
(609,615,o),
(511,700,o),
(348,700,cs),
(58,700,l)
);
},
{
closed = 1;
nodes = (
(449,0,l),
(627,0,l),
(457,333,l),
(306,281,l)
);
}
);
width = 648;
},
{
anchors = (
{
name = top;
position = "{324, 719}";
},
{
name = bottom;
position = "{324, -20}";
}
);
layerId = "D32243E2-577E-4253-BC9B-8FEA88FA4FFA";
shapes = (
{
closed = 1;
nodes = (
(68,0,l),
(214,0,l,{name = ab01;}),
(214,580,l,{name = sv01;}),
(298,580,ls),
(415,580,o),
(463,548,o),
(463,472,cs),
(463,396,o),
(415,364,o),
(298,364,cs),
(100,364,l,{name = dv02;}),
(100,244,l,{name = dv01;}),
(348,244,ls),
(507,244,o),
(609,334,o),
(609,476,cs),
(609,615,o),
(511,700,o),
(348,700,cs,{name = at01;}),
(68,700,l)
);
},
{
closed = 1;
nodes = (
(469,0,l,{name = ab02;}),
(627,0,l),
(457,333,l),
(326,281,l)
);
}
);
width = 648;
},
{
anchors = (
{
name = top;
position = "{324, 719}";
},
{
name = bottom;
position = "{324, -20}";
}
);
layerId = "6A0BD57D-C03B-4459-8D3D-7421EEB177BA";
shapes = (
{
closed = 1;
nodes = (
(78,0,l),
(198,0,l,{name = ab01;}),
(198,600,l,{name = sv01;}),
(308,600,ls),
(441,600,o),
(479,565,o),
(479,478,cs),
(479,389,o),
(439,354,o),
(306,354,cs),
(100,354,l,{name = dv02;}),
(100,254,l,{name = dv01;}),
(349,254,ls),
(505,254,o),
(599,342,o),
(599,479,cs),
(599,617,o),
(504,700,o),
(348,700,cs,{name = at01;}),
(78,700,l)
);
},
{
closed = 1;
nodes = (
(482,0,l,{name = ab02;}),
(617,0,l),
(447,333,l),
(339,281,l)
);
}
);
width = 648;
},
{
anchors = (
{
name = top;
position = "{324, 719}";
},
{
name = bottom;
position = "{324, -20}";
}
);
layerId = "CA42EF1E-7CAB-449D-BA53-393A55112632";
shapes = (
{
closed = 1;
nodes = (
(88,0,l),
(178,0,l,{name = ab01;}),
(178,620,l,{name = sv01;}),
(340,620,ls),
(456,620,o),
(499,583,o),
(499,482,cs),
(499,381,o),
(456,344,o),
(339,344,cs),
(100,344,l,{name = dv02;}),
(100,264,l,{name = dv01;}),
(344,264,ls),
(495,264,o),
(589,348,o),
(589,484,cs),
(589,619,o),
(498,700,o),
(348,700,cs,{name = at01;}),
(88,700,l)
);
},
{
closed = 1;
nodes = (
(506,0,l,{name = ab02;}),
(607,0,l),
(437,333,l),
(363,281,l)
);
}
);
width = 648;
},
{
anchors = (
{
name = top;
position = "{324, 719}";
},
{
name = bottom;
position = "{324, -20}";
}
);
layerId = "F226A6F9-6034-4C5D-800B-D2697DD6BCB4";
shapes = (
{
closed = 1;
nodes = (
(98,0,l),
(158,0,l,{name = ab01;}),
(158,646,l,{name = sv01;}),
(344,646,ls),
(464,646,o),
(518,583,o),
(518,482,cs),
(518,381,o),
(465,328,o),
(348,328,cs),
(110,328,l,{name = dv02;}),
(110,274,l,{name = dv01;}),
(344,274,ls),
(489,274,o),
(579,348,o),
(579,484,cs),
(579,619,o),
(492,700,o),
(348,700,cs,{name = at01;}),
(98,700,l)
);
},
{
closed = 1;
nodes = (
(529,0,l,{name = ab02;}),
(597,0,l),
(427,333,l),
(386,281,l)
);
}
);
width = 648;
}
);
leftKerningGroup = B;
rightKerningGroup = R;
unicode = 82;
},
{
glyphname = K;
layers = (
{
anchors = (
{
name = bottom;
position = "{335, -20}";
},
{
name = top;
position = "{335, 719}";
}
);
layerId = "C97486CF-1A64-40DF-96D7-C8549AF742BF";
shapes = (
{
closed = 1;
nodes = (
(58,0,l),
(58,700,l),
(248,700,l),
(248,0,l)
);
},
{
closed = 1;
nodes = (
(129,282,l),
(140,426,l),
(316,426,l),
(474,700,l),
(675,700,l),
(467,367,l),
(679,0,l),
(460,0,l),
(304,282,l)
);
}
);
width = 670;
},
{
anchors = (
{
name = top;
position = "{335, 719}";
},
{
name = bottom;
position = "{335, -20}";
}
);
layerId = "C6BB3B5A-2B00-4D31-935D-56D5DC5DA0A7";
shapes = (
{
closed = 1;
nodes = (
(57,0,l),
(57,700,l),
(223,700,l),
(223,0,l)
);
},
{
closed = 1;
nodes = (
(105,287,l),
(116,421,l),
(319,421,l),
(480,700,l),
(654,700,l),
(446,367,l),
(658,0,l),
(466,0,l),
(307,287,l)
);
}
);
width = 670;
},
{
anchors = (
{
name = top;
position = "{335, 719}";
},
{
name = bottom;
position = "{335, -20}";
}
);
layerId = "D32243E2-577E-4253-BC9B-8FEA88FA4FFA";
shapes = (
{
closed = 1;
nodes = (
(67,0,l),
(67,700,l),
(212,700,l),
(212,0,l)
);
},
{
closed = 1;
nodes = (
(100,299,l),
(111,421,l),
(337,421,l),
(498,700,l),
(649,700,l),
(441,367,l),
(653,0,l),
(484,0,l),
(325,299,l)
);
}
);
width = 670;
},
{
anchors = (
{
name = top;
position = "{335, 719}";
},
{
name = bottom;
position = "{335, -20}";
}
);
layerId = "6A0BD57D-C03B-4459-8D3D-7421EEB177BA";
shapes = (
{
closed = 1;
nodes = (
(78,0,l,{name = ab01;}),
(78,700,l,{name = at01;}),
(198,700,l),
(198,0,l)
);
},
{
closed = 1;
nodes = (
(110,312,l),
(101,410,l),
(327,410,l),
(488,700,l),
(629,700,l),
(421,367,l),
(633,0,l),
(493,0,l),
(320,312,l)
);
}
);
width = 670;
},
{
anchors = (
{
name = top;
position = "{335, 719}";
},
{
name = bottom;
position = "{335, -20}";
}
);
layerId = "CA42EF1E-7CAB-449D-BA53-393A55112632";
shapes = (
{
closed = 1;
nodes = (
(88,0,l,{name = ab01;}),
(88,700,l,{name = at01;}),
(178,700,l),
(178,0,l)
);
},
{
closed = 1;
nodes = (
(110,318,l),
(101,399,l),
(338,399,l),
(512,700,l),
(619,700,l),
(411,367,l),
(623,0,l),
(519,0,l),
(350,318,l)
);
}
);
width = 670;
},
{
anchors = (
{
name = top;
position = "{335, 719}";
},
{
name = bottom;
position = "{335, -20}";
}
);
layerId = "F226A6F9-6034-4C5D-800B-D2697DD6BCB4";
shapes = (
{
closed = 1;
nodes = (
(98,0,l,{name = av01;}),
(98,700,l),
(158,700,l,{name = av02;}),
(158,0,l)
);
},
{
closed = 1;
nodes = (
(130,335,l),
(121,389,l),
(351,389,l),
(538,700,l),
(609,700,l),
(401,367,l),
(613,0,l),
(543,0,l),
(357,335,l)
);
}
);
width = 670;
}
);
leftKerningGroup = B;
rightKerningGroup = K;
unicode = 75;
},
{
glyphname = V;
layers = (
{
anchors = (
{
name = top;
position = "{328, 719}";
},
{
name = bottom;
position = "{328, -20}";
}
);
layerId = "C97486CF-1A64-40DF-96D7-C8549AF742BF";
shapes = (
{
closed = 1;
nodes = (
(276,0,l),
(431,0,l),
(658,700,l),
(459,700,l)
);
},
{
closed = 1;
nodes = (
(224,0,l),
(379,0,l),
(196,700,l),
(-3,700,l)
);
}
);
width = 655;
},
{
anchors = (
{
name = top;
position = "{328, 719}";
},
{
name = bottom;
position = "{328, -20}";
}
);
layerId = "C6BB3B5A-2B00-4D31-935D-56D5DC5DA0A7";
shapes = (
{
closed = 1;
nodes = (
(283,0,l),
(421,0,l),
(648,700,l),
(474,700,l)
);
},
{
closed = 1;
nodes = (
(234,0,l),
(372,0,l),
(181,700,l),
(7,700,l)
);
}
);
width = 655;
},
{
anchors = (
{
name = top;
position = "{328, 719}";
},
{
name = bottom;
position = "{328, -20}";
}
);
layerId = "D32243E2-577E-4253-BC9B-8FEA88FA4FFA";
shapes = (
{
closed = 1;
nodes = (
(287,0,l),
(411,0,l),
(638,700,l),
(485,700,l)
);
},
{
closed = 1;
nodes = (
(244,0,l),
(368,0,l),
(170,700,l),
(17,700,l)
);
}
);
width = 655;
},
{
anchors = (
{
name = top;
position = "{328, 719}";
},
{
name = bottom;
position = "{328, -20}";
}
);
layerId = "6A0BD57D-C03B-4459-8D3D-7421EEB177BA";
shapes = (
{
closed = 1;
nodes = (
(298,0,l),
(406,0,l),
(633,700,l),
(507,700,l)
);
},
{
closed = 1;
nodes = (
(249,0,l),
(357,0,l),
(148,700,l),
(22,700,l)
);
}
);
width = 655;
},
{
anchors = (
{
name = top;
position = "{328, 719}";
},
{
name = bottom;
position = "{328, -20}";
}
);
layerId = "CA42EF1E-7CAB-449D-BA53-393A55112632";
shapes = (
{
closed = 1;
nodes = (
(313,0,l),
(396,0,l),
(623,700,l),
(527,700,l)
);
},
{
closed = 1;
nodes = (
(259,0,l),
(342,0,l),
(128,700,l),
(32,700,l)
);
}
);
width = 655;
},
{
anchors = (
{
name = top;
position = "{328, 719}";
},
{
name = bottom;
position = "{328, -20}";
}
);
layerId = "F226A6F9-6034-4C5D-800B-D2697DD6BCB4";
shapes = (
{
closed = 1;
nodes = (
(269,0,l),
(332,0,l),
(105,700,l),
(42,700,l)
);
},
{
closed = 1;
nodes = (
(323,0,l),
(386,0,l),
(613,700,l),
(550,700,l)
);
}
);
width = 655;
}
);
leftKerningGroup = V1;
rightKerningGroup = V;
unicode = 86;
},
{
glyphname = W;
layers = (
{
anchors = (
{
name = top;
position = "{480, 719}";
},
{
name = bottom;
position = "{480, -20}";
}
);
layerId = "C97486CF-1A64-40DF-96D7-C8549AF742BF";
shapes = (
{
closed = 1;
nodes = (
(189,0,l),
(346,0,l),
(186,700,l),
(-12,700,l)
);
},
{
closed = 1;
nodes = (
(232,0,l),
(381,0,l),
(546,700,l),
(392,700,l)
);
},
{
closed = 1;
nodes = (
(580,0,l),
(729,0,l),
(569,700,l),
(415,700,l)
);
},
{
closed = 1;
nodes = (
(615,0,l),
(772,0,l),
(973,700,l),
(775,700,l)
);
}
);
width = 960;
},
{
anchors = (
{
name = top;
position = "{480, 719}";
},
{
name = bottom;
position = "{480, -20}";
}
);
layerId = "C6BB3B5A-2B00-4D31-935D-56D5DC5DA0A7";
shapes = (
{
closed = 1;
nodes = (
(203,0,l),
(340,0,l),
(175,700,l),
(2,700,l)
);
},
{
closed = 1;
nodes = (
(237,0,l),
(371,0,l),
(536,700,l),
(402,700,l)
);
},
{
closed = 1;
nodes = (
(590,0,l),
(724,0,l),
(559,700,l),
(425,700,l)
);
},
{
closed = 1;
nodes = (
(621,0,l),
(758,0,l),
(959,700,l),
(786,700,l)
);
}
);
width = 960;
},
{
anchors = (
{
name = top;
position = "{480, 719}";
},
{
name = bottom;
position = "{480, -20}";
}
);
layerId = "D32243E2-577E-4253-BC9B-8FEA88FA4FFA";
shapes = (
{
closed = 1;
nodes = (
(213,0,l),
(329,0,l),
(164,700,l),
(12,700,l)
);
},
{
closed = 1;
nodes = (
(247,0,l),
(361,0,l),
(530,700,l),
(412,700,l)
);
},
{
closed = 1;
nodes = (
(600,0,l),
(714,0,l),
(549,700,l),
(429,700,l)
);
},
{
closed = 1;
nodes = (
(632,0,l),
(748,0,l),
(949,700,l),
(797,700,l)
);
}
);
width = 960;
},
{
anchors = (
{
name = top;
position = "{480, 719}";
},
{
name = bottom;
position = "{480, -20}";
}
);
layerId = "6A0BD57D-C03B-4459-8D3D-7421EEB177BA";
shapes = (
{
closed = 1;
nodes = (
(218,0,l),
(317,0,l),
(142,700,l),
(17,700,l)
);
},
{
closed = 1;
nodes = (
(257,0,l),
(351,0,l),
(515,700,l),
(432,700,l)
);
},
{
closed = 1;
nodes = (
(610,0,l),
(704,0,l),
(529,700,l),
(446,700,l)
);
},
{
closed = 1;
nodes = (
(644,0,l),
(743,0,l),
(944,700,l),
(819,700,l)
);
}
);
width = 960;
},
{
anchors = (
{
name = top;
position = "{480, 719}";
},
{
name = bottom;
position = "{480, -20}";
}
);
layerId = "CA42EF1E-7CAB-449D-BA53-393A55112632";
shapes = (
{
closed = 1;
nodes = (
(228,0,l),
(304,0,l),
(122,700,l),
(27,700,l)
);
},
{
closed = 1;
nodes = (
(272,0,l),
(341,0,l),
(501,700,l),
(442,700,l)
);
},
{
closed = 1;
nodes = (
(620,0,l),
(689,0,l),
(519,700,l),
(460,700,l)
);
},
{
closed = 1;
nodes = (
(657,0,l),
(733,0,l),
(934,700,l),
(839,700,l)
);
}
);
width = 960;
},
{
anchors = (
{
name = top;
position = "{480, 719}";
},
{
name = bottom;
position = "{480, -20}";
}
);
layerId = "F226A6F9-6034-4C5D-800B-D2697DD6BCB4";
shapes = (
{
closed = 1;
nodes = (
(238,0,l),
(295,0,l),
(99,700,l),
(37,700,l)
);
},
{
closed = 1;
nodes = (
(272,0,l),
(326,0,l),
(487,700,l),
(442,700,l)
);
},
{
closed = 1;
nodes = (
(635,0,l),
(689,0,l),
(519,700,l),
(474,700,l)
);
},
{
closed = 1;
nodes = (
(666,0,l),
(723,0,l),
(924,700,l),
(862,700,l)
);
}
);
width = 960;
}
);
leftKerningGroup = V1;
rightKerningGroup = V;
unicode = 87;
},
{
glyphname = Y;
layers = (
{
anchors = (
{
name = top;
position = "{331, 719}";
},
{
name = bottom;
position = "{331, -20}";
},
{
name = topgr;
position = "{-115, 500}";
}
);
layerId = "C97486CF-1A64-40DF-96D7-C8549AF742BF";
shapes = (
{
closed = 1;
nodes = (
(235,0,l),
(425,0,l),
(425,279,l),
(658,700,l),
(446,700,l),
(335,472,l),
(219,700,l),
(2,700,l),
(235,279,l)
);
}
);
width = 662;
},
{
anchors = (
{
name = top;
position = "{331, 719}";
},
{
name = bottom;
position = "{331, -20}";
},
{
name = topgr;
position = "{-95, 500}";
}
);
layerId = "C6BB3B5A-2B00-4D31-935D-56D5DC5DA0A7";
shapes = (
{
closed = 1;
nodes = (
(248,0,l),
(414,0,l),
(414,284,l),
(654,700,l),
(466,700,l),
(334,442,l),
(199,700,l),
(8,700,l),
(248,284,l)
);
}
);
width = 662;
},
{
anchors = (
{
name = top;
position = "{331, 719}";
},
{
name = bottom;
position = "{331, -20}";
},
{
name = topgr;
position = "{-85, 500}";
}
);
layerId = "D32243E2-577E-4253-BC9B-8FEA88FA4FFA";
shapes = (
{
closed = 1;
nodes = (
(258,0,l,{name = ab01;}),
(404,0,l),
(404,285,l,{name = iv04;}),
(644,700,l,{name = at01;}),
(479,700,l),
(334,427,l,{name = iv05;}),
(186,700,l,{name = at02;}),
(18,700,l),
(258,285,l,{name = iv01;})
);
}
);
width = 662;
},
{
anchors = (
{
name = top;
position = "{331, 719}";
},
{
name = bottom;
position = "{331, -20}";
},
{
name = topgr;
position = "{-75, 500}";
}
);
layerId = "6A0BD57D-C03B-4459-8D3D-7421EEB177BA";
shapes = (
{
closed = 1;
nodes = (
(271,0,l,{name = ab01;}),
(391,0,l),
(391,295,l,{name = iv04;}),
(634,700,l,{name = at01;}),
(497,700,l),
(334,418,l,{name = iv05;}),
(168,700,l,{name = at02;}),
(28,700,l),
(271,295,l,{name = iv01;})
);
}
);
width = 662;
},
{
anchors = (
{
name = top;
position = "{331, 719}";
},
{
name = bottom;
position = "{331, -20}";
},
{
name = topgr;
position = "{-60, 500}";
}
);
layerId = "CA42EF1E-7CAB-449D-BA53-393A55112632";
shapes = (
{
closed = 1;
nodes = (
(281,0,l,{name = ab01;}),
(381,0,l),
(381,296,l,{name = iv04;}),
(624,700,l,{name = at01;}),
(507,700,l),
(331,395,l,{name = iv05;}),
(155,700,l,{name = at02;}),
(38,700,l),
(281,296,l,{name = iv01;})
);
}
);
width = 662;
},
{
anchors = (
{
name = top;
position = "{331, 719}";
},
{
name = bottom;
position = "{329, -20}";
},
{
name = topgr;
position = "{-50, 500}";
}
);
layerId = "F226A6F9-6034-4C5D-800B-D2697DD6BCB4";
shapes = (
{
closed = 1;
nodes = (
(301,0,l,{name = ab01;}),
(361,0,l),
(361,295,l,{name = iv04;}),
(614,700,l,{name = at01;}),
(542,700,l),
(331,349,l,{name = iv05;}),
(120,700,l,{name = at02;}),
(48,700,l),
(301,295,l,{name = iv01;})
);
}
);
width = 662;
}
);
leftKerningGroup = Y1;
rightKerningGroup = Y;
unicode = 89;
},
{
glyphname = Z;
layers = (
{
anchors = (
{
name = top;
position = "{300, 719}";
},
{
name = bottom;
position = "{290, -20}";
}
);
layerId = "C97486CF-1A64-40DF-96D7-C8549AF742BF";
shapes = (
{
closed = 1;
nodes = (
(20,0,l),
(560,0,l),
(560,140,l),
(227,140,l),
(558,570,l),
(558,700,l),
(48,700,l),
(48,560,l),
(351,560,l),
(20,130,l)
);
}
);
width = 577;
},
{
anchors = (
{
name = top;
position = "{300, 719}";
},
{
name = bottom;
position = "{290, -20}";
}
);
layerId = "C6BB3B5A-2B00-4D31-935D-56D5DC5DA0A7";
shapes = (
{
closed = 1;
nodes = (
(20,0,l),
(560,0,l),
(560,130,l),
(211,130,l),
(558,580,l),
(558,700,l),
(48,700,l),
(48,570,l),
(367,570,l),
(20,120,l)
);
}
);
width = 577;
},
{
anchors = (
{
name = top;
position = "{300, 719}";
},
{
name = bottom;
position = "{290, -20}";
}
);
layerId = "D32243E2-577E-4253-BC9B-8FEA88FA4FFA";
shapes = (
{
closed = 1;
nodes = (
(20,0,l,{name = ab01;}),
(560,0,l),
(560,120,l,{name = sv01;}),
(194,120,l),
(558,590,l),
(558,700,l,{name = at01;}),
(48,700,l),
(48,580,l,{name = sv02;}),
(384,580,l),
(20,110,l)
);
}
);
width = 577;
},
{
anchors = (
{
name = top;
position = "{297, 719}";
},
{
name = bottom;
position = "{287, -20}";
}
);
layerId = "6A0BD57D-C03B-4459-8D3D-7421EEB177BA";
shapes = (
{
closed = 1;
nodes = (
(27,0,l,{name = ab01;}),
(547,0,l),
(547,100,l,{name = sv01;}),
(168,100,l),
(545,605,l),
(545,700,l,{name = at01;}),
(55,700,l),
(55,600,l,{name = sv02;}),
(404,600,l),
(27,95,l)
);
}
);
width = 577;
},
{
anchors = (
{
name = top;
position = "{297, 719}";
},
{
name = bottom;
position = "{287, -20}";
}
);
layerId = "CA42EF1E-7CAB-449D-BA53-393A55112632";
shapes = (
{
closed = 1;
nodes = (
(38,0,l,{name = ab01;}),
(536,0,l),
(536,80,l,{name = sv01;}),
(143,80,l),
(534,625,l),
(534,700,l,{name = at01;}),
(66,700,l),
(66,620,l,{name = sv02;}),
(429,620,l),
(38,75,l)
);
}
);
width = 577;
},
{
anchors = (
{
name = top;
position = "{300, 719}";
},
{
name = bottom;
position = "{290, -20}";
}
);
layerId = "F226A6F9-6034-4C5D-800B-D2697DD6BCB4";
shapes = (
{
closed = 1;
nodes = (
(51,0,l,{name = ab01;}),
(529,0,l),
(529,54,l,{name = sv01;}),
(122,54,l),
(527,651,l),
(527,700,l,{name = at01;}),
(79,700,l),
(79,646,l,{name = sv02;}),
(456,646,l),
(51,49,l)
);
}
);
width = 577;
}
);
leftKerningGroup = Z1;
rightKerningGroup = Z;
unicode = 90;
},
{
glyphname = M;
layers = (
{
anchors = (
{
name = top;
position = "{444, 719}";
},
{
name = bottom;
position = "{444, -20}";
}
);
layerId = "C97486CF-1A64-40DF-96D7-C8549AF742BF";
shapes = (
{
closed = 1;
nodes = (
(58,0,l),
(238,0,l),
(238,321,l),
(384,0,l),
(504,0,l),
(650,321,l),
(650,0,l),
(830,0,l),
(830,700,l),
(650,700,l),
(444,249,l),
(238,700,l),
(58,700,l)
);
}
);
width = 888;
},
{
anchors = (
{
name = top;
position = "{444, 719}";
},
{
name = bottom;
position = "{444, -20}";
}
);
layerId = "C6BB3B5A-2B00-4D31-935D-56D5DC5DA0A7";
shapes = (
{
closed = 1;
nodes = (
(57,0,l,{name = ab03;}),
(217,0,l),
(217,382,l,{name = iv01;}),
(401,0,l,{name = ab01;}),
(487,0,l),
(671,382,l,{name = iv02;}),
(671,0,l,{name = ab02;}),
(831,0,l),
(831,700,l,{name = at01;}),
(671,700,l),
(444,226,l,{name = iv03;}),
(217,700,l,{name = at02;}),
(57,700,l)
);
}
);
width = 888;
},
{
anchors = (
{
name = top;
position = "{444, 719}";
},
{
name = bottom;
position = "{444, -20}";
}
);
layerId = "D32243E2-577E-4253-BC9B-8FEA88FA4FFA";
shapes = (
{
closed = 1;
nodes = (
(67,0,l,{name = ab03;}),
(213,0,l),
(213,414,l,{name = iv01;}),
(406,0,l,{name = ab01;}),
(482,0,l),
(675,414,l,{name = iv02;}),
(675,0,l,{name = ab02;}),
(821,0,l),
(821,700,l,{name = at01;}),
(675,700,l),
(444,204,l,{name = iv03;}),
(213,700,l,{name = at02;}),
(67,700,l)
);
}
);
width = 888;
},
{
anchors = (
{
name = top;
position = "{444, 719}";
},
{
name = bottom;
position = "{444, -20}";
}
);
layerId = "6A0BD57D-C03B-4459-8D3D-7421EEB177BA";
shapes = (
{
closed = 1;
nodes = (
(77,0,l,{name = ab03;}),
(197,0,l),
(197,464,l,{name = iv01;}),
(413,0,l,{name = ab01;}),
(475,0,l),
(691,464,l,{name = iv02;}),
(691,0,l,{name = ab02;}),
(811,0,l),
(811,700,l,{name = at01;}),
(691,700,l),
(444,170,l,{name = iv03;}),
(197,700,l,{name = at02;}),
(77,700,l)
);
}
);
width = 888;
},
{
anchors = (
{
name = top;
position = "{444, 719}";
},
{
name = bottom;
position = "{444, -20}";
}
);
layerId = "CA42EF1E-7CAB-449D-BA53-393A55112632";
shapes = (
{
closed = 1;
nodes = (
(87,0,l,{name = ab03;}),
(177,0,l),
(177,525,l,{name = iv01;}),
(422,0,l,{name = ab01;}),
(466,0,l),
(711,525,l,{name = iv02;}),
(711,0,l,{name = ab02;}),
(801,0,l),
(801,700,l,{name = at01;}),
(711,700,l),
(444,127,l,{name = iv03;}),
(177,700,l,{name = at02;}),
(87,700,l)
);
}
);
width = 888;
},
{
anchors = (
{
name = top;
position = "{444, 719}";
},
{
name = bottom;
position = "{444, -20}";
}
);
layerId = "F226A6F9-6034-4C5D-800B-D2697DD6BCB4";
shapes = (
{
closed = 1;
nodes = (
(97,0,l,{name = ab03;}),
(157,0,l),
(157,570,l,{name = iv01;}),
(423,0,l,{name = ab01;}),
(465,0,l),
(731,570,l,{name = iv02;}),
(731,0,l,{name = ab02;}),
(791,0,l),
(791,700,l,{name = at01;}),
(731,700,l),
(444,85,l,{name = iv03;}),
(157,700,l,{name = at02;}),
(97,700,l)
);
}
);
width = 888;
}
);
leftKerningGroup = B;
rightKerningGroup = H;
unicode = 77;
},
{
glyphname = X;
layers = (
{
anchors = (
{
name = top;
position = "{324, 719}";
},
{
name = bottom;
position = "{324, -20}";
}
);
layerId = "C97486CF-1A64-40DF-96D7-C8549AF742BF";
shapes = (
{
closed = 1;
nodes = (
(-2,0,l),
(221,0,l),
(325,188,l),
(429,0,l),
(649,0,l),
(436,354,l),
(644,700,l),
(425,700,l),
(324,518,l),
(223,700,l),
(3,700,l),
(211,354,l)
);
}
);
width = 648;
},
{
anchors = (
{
name = top;
position = "{324, 719}";
},
{
name = bottom;
position = "{324, -20}";
}
);
layerId = "C6BB3B5A-2B00-4D31-935D-56D5DC5DA0A7";
shapes = (
{
closed = 1;
nodes = (
(10,0,l),
(204,0,l),
(325,218,l),
(446,0,l),
(641,0,l),
(428,354,l),
(636,700,l),
(441,700,l),
(324,489,l),
(207,700,l),
(11,700,l),
(221,351,l)
);
}
);
width = 648;
},
{
anchors = (
{
name = top;
position = "{324, 719}";
},
{
name = bottom;
position = "{324, -20}";
}
);
layerId = "D32243E2-577E-4253-BC9B-8FEA88FA4FFA";
shapes = (
{
closed = 1;
nodes = (
(19,0,l),
(191,0,l),
(325,242,l),
(459,0,l),
(630,0,l),
(417,354,l),
(625,700,l),
(455,700,l),
(324,464,l),
(193,700,l),
(24,700,l),
(232,354,l)
);
}
);
width = 648;
},
{
anchors = (
{
name = top;
position = "{324, 719}";
},
{
name = bottom;
position = "{324, -20}";
}
);
layerId = "6A0BD57D-C03B-4459-8D3D-7421EEB177BA";
shapes = (
{
closed = 1;
nodes = (
(25,0,l),
(167,0,l),
(325,285,l),
(483,0,l),
(624,0,l),
(411,354,l),
(619,700,l),
(480,700,l),
(325,420,l),
(170,700,l),
(30,700,l),
(238,354,l)
);
}
);
width = 648;
},
{
anchors = (
{
name = top;
position = "{324, 719}";
},
{
name = bottom;
position = "{324, -20}";
}
);
layerId = "CA42EF1E-7CAB-449D-BA53-393A55112632";
shapes = (
{
closed = 1;
nodes = (
(35,0,l),
(139,0,l),
(324,321,l),
(509,0,l),
(614,0,l),
(401,354,l),
(609,700,l),
(504,700,l),
(325,390,l),
(146,700,l),
(40,700,l),
(248,354,l)
);
}
);
width = 648;
},
{
anchors = (
{
name = top;
position = "{324, 719}";
},
{
name = bottom;
position = "{324, -20}";
}
);
layerId = "F226A6F9-6034-4C5D-800B-D2697DD6BCB4";
shapes = (
{
closed = 1;
nodes = (
(48,0,l),
(119,0,l),
(324,341,l),
(529,0,l),
(600,0,l),
(387,354,l),
(595,700,l),
(522,700,l),
(324,370,l),
(126,700,l),
(53,700,l),
(261,354,l)
);
}
);
width = 648;
}
);
leftKerningGroup = X;
rightKerningGroup = K;
unicode = 88;
},
{
glyphname = s;
layers = (
{
anchors = (
{
name = top;
position = "{253, 520}";
},
{
name = bottom;
position = "{253, -20}";
}
);
layerId = "C97486CF-1A64-40DF-96D7-C8549AF742BF";
shapes = (
{
closed = 1;
nodes = (
(30,70,l),
(84,16,o),
(161,-20,o),
(256,-20,cs),
(383,-20,o),
(471,45,o),
(471,148,cs),
(471,231,o),
(414,285,o),
(295,314,cs),
(250,325,o),
(228,336,o),
(228,357,cs),
(228,374,o),
(244,390,o),
(275,390,cs),
(310,390,o),
(352,369,o),
(376,342,c),
(464,430,l),
(410,484,o),
(343,520,o),
(250,520,cs),
(118,520,o),
(38,448,o),
(38,352,cs),
(38,268,o),
(99,212,o),
(206,191,cs),
(254,182,o),
(281,168,o),
(281,143,cs),
(281,121,o),
(260,110,o),
(228,110,cs),
(184,110,o),
(142,131,o),
(118,158,c)
);
}
);
width = 507;
},
{
anchors = (
{
name = top;
position = "{253, 520}";
},
{
name = bottom;
position = "{253, -20}";
}
);
layerId = "C6BB3B5A-2B00-4D31-935D-56D5DC5DA0A7";
shapes = (
{
closed = 1;
nodes = (
(28,73,l),
(76,14,o),
(153,-20,o),
(243,-20,cs),
(367,-20,o),
(469,45,o),
(469,147,cs),
(469,214,o),
(424,268,o),
(284,307,cs),
(236,321,o),
(201,326,o),
(201,359,cs),
(201,381,o),
(217,397,o),
(257,397,cs),
(301,397,o),
(347,377,o),
(374,342,c),
(459,427,l),
(411,486,o),
(334,520,o),
(237,520,cs),
(121,520,o),
(36,450,o),
(36,357,cs),
(36,283,o),
(91,224,o),
(219,198,cs),
(253,191,o),
(304,184,o),
(304,148,cs),
(304,122,o),
(276,103,o),
(232,103,cs),
(186,103,o),
(140,123,o),
(113,158,c)
);
}
);
width = 507;
},
{
anchors = (
{
name = top;
position = "{253, 520}";
},
{
name = bottom;
position = "{253, -20}";
}
);
layerId = "D32243E2-577E-4253-BC9B-8FEA88FA4FFA";
shapes = (
{
closed = 1;
nodes = (
(37,67,l),
(84,13,o),
(157,-20,o),
(247,-20,cs),
(370,-20,o),
(459,42.145,o),
(459,148.392,cs),
(459,222.564,o),
(413.033,261.775,o),
(280,298.741,cs),
(211.033,317.905,o),
(191,330.816,o),
(191,359.883,cs),
(191,388.951,o),
(211,410,o),
(251,410,cs),
(290,410,o),
(335,389.63,o),
(365,355,c),
(443,433,l),
(396,487,o),
(323,520,o),
(239,520,cs),
(120,520,o),
(46,453.846,o),
(46,363.636,cs),
(46,288.462,o),
(97.067,235.601,o),
(236,200.256,cs),
(294.067,185.484,o),
(314,173.193,o),
(314,144.126,cs),
(314,109.044,o),
(283,90,o),
(237,90,cs),
(190,90,o),
(145,110.37,o),
(115,145,c)
);
}
);
width = 507;
},
{
anchors = (
{
name = top;
position = "{253, 520}";
},
{
name = bottom;
position = "{253, -20}";
}
);
layerId = "6A0BD57D-C03B-4459-8D3D-7421EEB177BA";
shapes = (
{
closed = 1;
nodes = (
(46,70,l),
(86,20,o),
(156,-20,o),
(246,-20,cs),
(360,-20,o),
(449,44.143,o),
(449,141.359,cs),
(449,207.506,o),
(407.879,247.173,o),
(288,281.67,cs),
(205.878,305.303,o),
(176,327.773,o),
(176,367.862,cs),
(176,404.944,o),
(201,430,o),
(245,430,cs),
(292,430,o),
(340,401.582,o),
(368,362,c),
(436,430,l),
(396,480,o),
(326,520,o),
(239,520,cs),
(128,520,o),
(56,454.855,o),
(56,366.659,cs),
(56,291.492,o),
(107.878,234.906,o),
(236,201.292,cs),
(298.881,184.794,o),
(329,167.216,o),
(329,132.138,cs),
(329,96.058,o),
(297,70,o),
(244,70,cs),
(190,70,o),
(142,98.418,o),
(114,138,c)
);
}
);
width = 507;
},
{
anchors = (
{
name = top;
position = "{253, 520}";
},
{
name = bottom;
position = "{253, -20}";
}
);
layerId = "CA42EF1E-7CAB-449D-BA53-393A55112632";
shapes = (
{
closed = 1;
nodes = (
(56,70,l),
(95,20,o),
(162,-20,o),
(248,-20,cs),
(357,-20,o),
(439,44.136,o),
(439,130.32,cs),
(439,202.473,o),
(381.987,246.519,o),
(284,273.625,cs),
(189.987,299.632,o),
(156,334.755,o),
(156,376.844,cs),
(156,421.94,o),
(194,450,o),
(244,450,cs),
(293,450,o),
(343,421.611,o),
(377,377,c),
(430,430,l),
(391,480,o),
(324,520,o),
(240,520,cs),
(134,520,o),
(66,455.864,o),
(66,373.689,cs),
(66,298.529,o),
(121.967,241.281,o),
(234,212.345,cs),
(315.968,191.175,o),
(349,160.235,o),
(349,120.149,cs),
(349,77.058,o),
(311,50,o),
(253,50,cs),
(193,50,o),
(143,78.389,o),
(109,123,c)
);
}
);
width = 507;
},
{
anchors = (
{
name = top;
position = "{253, 520}";
},
{
name = bottom;
position = "{253, -20}";
}
);
layerId = "F226A6F9-6034-4C5D-800B-D2697DD6BCB4";
shapes = (
{
closed = 1;
nodes = (
(67,70,l),
(105,19,o),
(170,-20,o),
(249,-20,cs),
(352,-20,o),
(429,46,o),
(429,128,cs),
(429,196,o),
(376,242,o),
(263,274,cs),
(169,300,o),
(136,331,o),
(136,380,cs),
(136,431,o),
(172,469,o),
(241,469,cs),
(294,469,o),
(341,446,o),
(384,394,c),
(420,430,l),
(382,481,o),
(318,520,o),
(241,520,cs),
(145,520,o),
(76,458,o),
(76,382,cs),
(76,310,o),
(138,255,o),
(248,227,cs),
(331,206,o),
(369,175,o),
(369,125,cs),
(369,65,o),
(312,31,o),
(247,31,cs),
(193,31,o),
(146,54,o),
(103,106,c)
);
}
);
width = 507;
}
);
leftKerningGroup = s1;
rightKerningGroup = s;
unicode = 115;
},
{
glyphname = S;
layers = (
{
anchors = (
{
name = bottom;
position = "{310, -20}";
},
{
name = top;
position = "{286, 719}";
}
);
layerId = "C97486CF-1A64-40DF-96D7-C8549AF742BF";
shapes = (
{
closed = 1;
nodes = (
(26,101,l),
(78,37,o),
(169,-20,o),
(304,-20,cs),
(466,-20,o),
(563,61.135,o),
(563,209.382,cs),
(563,308.548,o),
(499.006,369.673,o),
(356,407.713,cs),
(258.006,433.78,o),
(230,453.79,o),
(230,500.868,cs),
(230,546.945,o),
(257,580,o),
(309,580,cs),
(358,580,o),
(405,549.651,o),
(455,493,c),
(561,599,l),
(509,663,o),
(417,720,o),
(291,720,cs),
(135,720,o),
(40,632.855,o),
(40,492.621,cs),
(40,379.432,o),
(117.746,305.222,o),
(279.281,266.244,cs),
(346.06,250.13,o),
(373,236.194,o),
(373,193.122,cs),
(373,147.045,o),
(343.124,120,o),
(287.355,120,cs),
(228.599,120,o),
(181.793,150.349,o),
(132,207,c)
);
}
);
width = 600;
},
{
anchors = (
{
name = bottom;
position = "{310, -20}";
},
{
name = top;
position = "{286, 719}";
}
);
layerId = "C6BB3B5A-2B00-4D31-935D-56D5DC5DA0A7";
shapes = (
{
closed = 1;
nodes = (
(30,104,l),
(90,32,o),
(180,-20,o),
(310,-20,cs),
(473,-20,o),
(561,61,o),
(561,197,cs),
(561,298,o),
(497.807,363.922,o),
(336.373,399,cs),
(240.087,419.922,o),
(203,442,o),
(203,501,cs),
(203,553,o),
(232.112,589,o),
(294.353,589,cs),
(354.585,589,o),
(415.822,556,o),
(462,501,c),
(557,596,l),
(497,668,o),
(407,720,o),
(287,720,cs),
(133,720,o),
(38,635,o),
(38,498,cs),
(38,386,o),
(109.23,315.139,o),
(280.678,277,cs),
(369.958,257.139,o),
(396,238,o),
(396,191,cs),
(396,138,o),
(362.878,111,o),
(300.648,111,cs),
(232.396,111,o),
(171.17,144,o),
(125,199,c)
);
}
);
width = 600;
},
{
anchors = (
{
name = bottom;
position = "{310, -20}";
},
{
name = top;
position = "{286, 719}";
}
);
layerId = "D32243E2-577E-4253-BC9B-8FEA88FA4FFA";
shapes = (
{
closed = 1;
nodes = (
(33,105,l),
(95,28,o),
(180,-20,o),
(303,-20,cs),
(465,-20,o),
(561,63.134,o),
(561,195.347,cs),
(561,303.522,o),
(496.844,361.683,o),
(315.35,399.677,cs),
(224.123,418.775,o),
(183,443.748,o),
(183,500.84,cs),
(183,557.932,o),
(225.147,600,o),
(302.416,600,cs),
(369.65,600,o),
(424.843,563.596,o),
(470,510,c),
(555,595,l),
(492,672,o),
(406,720,o),
(289,720,cs),
(134,720,o),
(38,634.863,o),
(38,501.648,cs),
(38,384.459,o),
(112.102,317.843,o),
(297,279.289,cs),
(381.104,261.752,o),
(416,243.231,o),
(416,194.152,cs),
(416,136.058,o),
(368,100,o),
(293,100,cs),
(218,100,o),
(163,136.404,o),
(118,190,c)
);
}
);
width = 600;
},
{
anchors = (
{
name = bottom;
position = "{304, -20}";
},
{
name = top;
position = "{286, 719}";
}
);
layerId = "6A0BD57D-C03B-4459-8D3D-7421EEB177BA";
shapes = (
{
closed = 1;
nodes = (
(38,101,l),
(102,21,o),
(189,-20,o),
(300,-20,cs),
(455,-20,o),
(551,60.125,o),
(551,183.318,cs),
(551,289.484,o),
(479.004,353.602,o),
(324,388.639,cs),
(222.004,411.693,o),
(168,444.726,o),
(168,508.826,cs),
(168,570.923,o),
(219,620,o),
(301,620,cs),
(368,620,o),
(426,586.637,o),
(477,528,c),
(548,599,l),
(484,679,o),
(397,720,o),
(292,720,cs),
(141,720,o),
(48,634.867,o),
(48,505.665,cs),
(48,393.49,o),
(118.967,326.226,o),
(290,290.329,cs),
(390.967,269.137,o),
(434,242.254,o),
(434,188.169,cs),
(434,125.07,o),
(377,80,o),
(291,80,cs),
(218,80,o),
(160,113.363,o),
(109,172,c)
);
}
);
width = 600;
},
{
anchors = (
{
name = bottom;
position = "{300, -20}";
},
{
name = top;
position = "{286, 719}";
}
);
layerId = "CA42EF1E-7CAB-449D-BA53-393A55112632";
shapes = (
{
closed = 1;
nodes = (
(48,101,l),
(111,21,o),
(194,-20,o),
(301,-20,cs),
(435,-20,o),
(541,45.099,o),
(541,174.294,cs),
(541,280.455,o),
(469.009,353.606,o),
(313,389.621,cs),
(187.009,418.705,o),
(148,464.734,o),
(148,526.829,cs),
(148,600.941,o),
(203,640,o),
(281,640,cs),
(353,640,o),
(415,605.653,o),
(474,541,c),
(532,599,l),
(469,679,o),
(386,720,o),
(284,720,cs),
(147,720,o),
(58,646.889,o),
(58,529.712,cs),
(58,418.543,o),
(137.988,344.373,o),
(288,312.382,cs),
(400.988,288.288,o),
(451,245.281,o),
(451,176.176,cs),
(451,99.059,o),
(390,60,o),
(306,60,cs),
(227,60,o),
(165,94.347,o),
(106,159,c)
);
}
);
width = 600;
},
{
anchors = (
{
name = top;
position = "{286, 719}";
},
{
name = bottom;
position = "{300, -20}";
}
);
layerId = "F226A6F9-6034-4C5D-800B-D2697DD6BCB4";
shapes = (
{
closed = 1;
nodes = (
(59,101,l),
(125,23,o),
(208,-20,o),
(310,-20,cs),
(433,-20,o),
(531,45,o),
(531,163,cs),
(531,312,o),
(406,341,o),
(295,375,cs),
(207,402,o),
(129,433,o),
(129,531,cs),
(129,626,o),
(203,665,o),
(278,665,cs),
(356,665,o),
(429,628,o),
(479,556,c),
(522,599,l),
(456,677,o),
(373,720,o),
(277,720,cs),
(151,720,o),
(68,643,o),
(68,537,cs),
(68,390,o),
(183,354,o),
(290,321,cs),
(383,292,o),
(470,265,o),
(470,168,cs),
(470,70,o),
(390,35,o),
(309,35,cs),
(225,35,o),
(152,72,o),
(102,144,c)
);
}
);
width = 600;
}
);
leftKerningGroup = S1;
rightKerningGroup = S;
unicode = 83;
},
{
glyphname = period;
layers = (
{
layerId = "C97486CF-1A64-40DF-96D7-C8549AF742BF";
shapes = (
{
closed = 1;
nodes = (
(189,-20,o),
(233,26,o),
(233,83,cs),
(233,140,o),
(189,184,o),
(131,184,cs),
(72,184,o),
(29,140,o),
(29,83,cs),
(29,26,o),
(72,-20,o),
(131,-20,cs)
);
}
);
width = 262;
},
{
layerId = "C6BB3B5A-2B00-4D31-935D-56D5DC5DA0A7";
shapes = (
{
closed = 1;
nodes = (
(182,-20,o),
(221,21,o),
(221,71,cs),
(221,121,o),
(182,160,o),
(131,160,cs),
(79,160,o),
(41,121,o),
(41,71,cs),
(41,21,o),
(79,-20,o),
(131,-20,cs)
);
}
);
width = 262;
},
{
layerId = "D32243E2-577E-4253-BC9B-8FEA88FA4FFA";
shapes = (
{
closed = 1;
nodes = (
(176,-20,o),
(210,16,o),
(210,60,cs),
(210,104,o),
(176,138,o),
(131,138,cs),
(85,138,o),
(52,104,o),
(52,60,cs),
(52,16,o),
(85,-20,o),
(131,-20,cs)
);
}
);
width = 262;
},
{
layerId = "6A0BD57D-C03B-4459-8D3D-7421EEB177BA";
shapes = (
{
closed = 1;
nodes = (
(169,-20,o),
(199,11,o),
(199,49,cs),
(199,86,o),
(169,115,o),
(131,115,cs),
(92,115,o),
(63,86,o),
(63,49,cs),
(63,11,o),
(92,-20,o),
(131,-20,cs)
);
}
);
width = 262;
},
{
layerId = "CA42EF1E-7CAB-449D-BA53-393A55112632";
shapes = (
{
closed = 1;
nodes = (
(72.5,5.088,o),
(96.105,-20,o),
(131,-20,cs),
(164.868,-20,o),
(189.5,5.088,o),
(189.5,35.965,cs),
(189.5,66.842,o),
(164.868,90,o),
(131,90,cs),
(96.105,90,o),
(72.5,66.842,o),
(72.5,35.965,cs)
);
}
);
width = 262;
},
{
layerId = "F226A6F9-6034-4C5D-800B-D2697DD6BCB4";
shapes = (
{
closed = 1;
nodes = (
(156,-20,o),
(176,0,o),
(176,25,cs),
(176,49,o),
(156,70,o),
(131,70,cs),
(105,70,o),
(86,49,o),
(86,25,cs),
(86,0,o),
(105,-20,o),
(131,-20,cs)
);
}
);
width = 262;
}
);
unicode = 46;
},
{
glyphname = comma;
layers = (
{
layerId = "C97486CF-1A64-40DF-96D7-C8549AF742BF";
shapes = (
{
closed = 1;
nodes = (
(47,-191,l),
(159,-136,o),
(233,-34,o),
(233,64,cs),
(233,140,o),
(189,184,o),
(131,184,cs),
(72,184,o),
(29,140,o),
(29,83,cs),
(29,25,o),
(73,-20,o),
(129,-20,c),
(114,-53,o),
(78,-92,o),
(33,-126,c)
);
}
);
width = 262;
},
{
layerId = "C6BB3B5A-2B00-4D31-935D-56D5DC5DA0A7";
shapes = (
{
closed = 1;
nodes = (
(55,-178,l),
(166,-111,o),
(221,-35,o),
(221,50,cs),
(221,121,o),
(182,160,o),
(131,160,cs),
(79,160,o),
(41,121,o),
(41,72,cs),
(41,21,o),
(79,-20,o),
(135,-20,c),
(128,-52,o),
(86,-106,o),
(45,-137,c)
);
}
);
width = 262;
},
{
layerId = "D32243E2-577E-4253-BC9B-8FEA88FA4FFA";
shapes = (
{
closed = 1;
nodes = (
(61,-168,l),
(154,-115,o),
(210,-34,o),
(210,48,cs),
(210,106,o),
(176,138,o),
(131,138,cs),
(85,138,o),
(52,104,o),
(52,59,cs),
(52,1.495,o),
(94.283,-20,o),
(145,-20,c),
(136,-62,o),
(104,-104,o),
(52,-139,c)
);
}
);
width = 262;
},
{
layerId = "6A0BD57D-C03B-4459-8D3D-7421EEB177BA";
shapes = (
{
closed = 1;
nodes = (
(71,-158,l),
(158,-93,o),
(199,-32,o),
(199,32,cs),
(199,87,o),
(169,115,o),
(130,115,cs),
(90,115,o),
(63,85,o),
(63,46,cs),
(63,-4,o),
(108,-34,o),
(151,-12,c),
(144,-49,o),
(118,-85,o),
(63,-133,c)
);
}
);
width = 262;
},
{
layerId = "CA42EF1E-7CAB-449D-BA53-393A55112632";
shapes = (
{
closed = 1;
nodes = (
(81,-146,l),
(145,-105,o),
(188,-34,o),
(188,26,cs),
(188,72,o),
(163,94,o),
(132,94,cs),
(98,94,o),
(74,69,o),
(74,37,cs),
(74,-7,o),
(120,-34,o),
(155,-12,c),
(145,-48,o),
(111,-101,o),
(74,-130,c)
);
}
);
width = 262;
},
{
layerId = "F226A6F9-6034-4C5D-800B-D2697DD6BCB4";
shapes = (
{
closed = 1;
nodes = (
(90,-124,l),
(146,-75,o),
(176,-26,o),
(176,15,cs),
(176,48,o),
(157,70,o),
(130,70,cs),
(104,70,o),
(86,53,o),
(86,26,cs),
(86,-20,o),
(137,-28,o),
(153,-10,c),
(140,-49,o),
(120,-80,o),
(86,-113,c)
);
}
);
width = 262;
}
);
unicode = 44;
},
{
glyphname = parenleft;
layers = (
{
layerId = "C97486CF-1A64-40DF-96D7-C8549AF742BF";
shapes = (
{
closed = 1;
nodes = (
(365,-107,l),
(291,-72,o),
(234,100,o),
(234,290,cs),
(234,476,o),
(289,635,o),
(365,669,c),
(365,777,l),
(168,740,o),
(50,562,o),
(50,301,cs),
(50,25,o),
(182,-191,o),
(365,-215,c)
);
}
);
width = 391;
},
{
layerId = "C6BB3B5A-2B00-4D31-935D-56D5DC5DA0A7";
shapes = (
{
closed = 1;
nodes = (
(365,-135,l),
(278,-103,o),
(214,78,o),
(214,291,cs),
(214,489,o),
(273,648,o),
(365,697,c),
(365,777,l),
(170,741,o),
(50,564,o),
(50,310,cs),
(50,26,o),
(182,-194,o),
(365,-215,c)
);
}
);
width = 391;
},
{
layerId = "D32243E2-577E-4253-BC9B-8FEA88FA4FFA";
shapes = (
{
closed = 1;
nodes = (
(365,-152,l),
(264,-122,o),
(194,60,o),
(194,292,cs),
(194,516,o),
(262,683,o),
(365,714,c),
(365,777,l),
(170,741,o),
(50,564,o),
(50,310,cs),
(50,26,o),
(182,-194,o),
(365,-215,c)
);
}
);
width = 391;
},
{
layerId = "6A0BD57D-C03B-4459-8D3D-7421EEB177BA";
shapes = (
{
closed = 1;
nodes = (
(365,-172,l),
(256,-142,o),
(180,49,o),
(180,293,cs),
(180,529,o),
(254,704,o),
(365,734,c),
(365,777,l),
(176,741,o),
(60,564,o),
(60,310,cs),
(60,26,o),
(188,-194,o),
(365,-215,c)
);
}
);
width = 391;
},
{
layerId = "CA42EF1E-7CAB-449D-BA53-393A55112632";
shapes = (
{
closed = 1;
nodes = (
(365,-192,l),
(244,-161,o),
(160,38,o),
(160,293,cs),
(160,540,o),
(242,723,o),
(365,754,c),
(365,777,l),
(182,741,o),
(70,564,o),
(70,310,cs),
(70,26,o),
(194,-194,o),
(365,-215,c)
);
}
);
width = 391;
},
{
layerId = "F226A6F9-6034-4C5D-800B-D2697DD6BCB4";
shapes = (
{
closed = 1;
nodes = (
(365,-195,l),
(233,-164,o),
(139,37,o),
(139,293,cs),
(139,541,o),
(230,726,o),
(365,757,c),
(365,777,l),
(188,741,o),
(80,565,o),
(80,310,cs),
(80,26,o),
(200,-194,o),
(365,-215,c)
);
}
);
width = 391;
}
);
unicode = 40;
},
{
glyphname = parenright;
layers = (
{
layerId = "C97486CF-1A64-40DF-96D7-C8549AF742BF";
shapes = (
{
closed = 1;
nodes = (
(25,-215,l),
(220,-177,o),
(341,17,o),
(341,291,cs),
(341,560,o),
(224,740,o),
(25,777,c),
(25,669,l),
(101,635,o),
(156,476,o),
(156,289,cs),
(156,99,o),
(99,-73,o),
(25,-107,c)
);
}
);
width = 384;
},
{
layerId = "C6BB3B5A-2B00-4D31-935D-56D5DC5DA0A7";
shapes = (
{
closed = 1;
nodes = (
(25,-215,l),
(220,-177,o),
(341,17,o),
(341,291,cs),
(341,560,o),
(224,740,o),
(25,777,c),
(25,709,l),
(114,656,o),
(176,506,o),
(176,289,cs),
(176,70,o),
(113,-112,o),
(25,-147,c)
);
}
);
width = 384;
},
{
layerId = "D32243E2-577E-4253-BC9B-8FEA88FA4FFA";
shapes = (
{
closed = 1;
nodes = (
(25,-215,l),
(220,-177,o),
(341,17,o),
(341,291,cs),
(341,560,o),
(224,740,o),
(25,777,c),
(25,734,l),
(114,700,o),
(196,517,o),
(196,289,cs),
(196,60,o),
(113,-137,o),
(25,-172,c)
);
}
);
width = 384;
},
{
layerId = "6A0BD57D-C03B-4459-8D3D-7421EEB177BA";
shapes = (
{
closed = 1;
nodes = (
(25,-215,l),
(214,-177,o),
(331,17,o),
(331,291,cs),
(331,560,o),
(218,740,o),
(25,777,c),
(25,754,l),
(122,720,o),
(211,529,o),
(211,290,cs),
(211,49,o),
(121,-157,o),
(25,-192,c)
);
}
);
width = 384;
},
{
layerId = "CA42EF1E-7CAB-449D-BA53-393A55112632";
shapes = (
{
closed = 1;
nodes = (
(25,-215,l),
(208,-177,o),
(321,17,o),
(321,291,cs),
(321,560,o),
(212,740,o),
(25,777,c),
(25,754,l),
(132,720,o),
(231,529,o),
(231,290,cs),
(231,49,o),
(131,-157,o),
(25,-192,c)
);
}
);
width = 384;
},
{
layerId = "F226A6F9-6034-4C5D-800B-D2697DD6BCB4";
shapes = (
{
closed = 1;
nodes = (
(25,-215,l),
(202,-177,o),
(311,17,o),
(311,291,cs),
(311,561,o),
(205,740,o),
(25,777,c),
(25,757,l),
(142,723,o),
(252,530,o),
(252,290,cs),
(252,48,o),
(141,-160,o),
(25,-195,c)
);
}
);
width = 384;
}
);
unicode = 41;
},
